<svg width="60" height="60" viewBox="0 0 60 60" fill="none" xmlns="http://www.w3.org/2000/svg">
    <path d="M19.3469 7.13057V7.41393H19.6303H21.0323C22.4169 7.41393 23.553 8.56392 23.5531 9.98841C23.5531 9.98842 23.5531 9.98843 23.5531 9.98843V10.941C23.5531 11.3157 23.2565 11.6102 22.9018 11.6102C22.5471 11.6102 22.2505 11.3157 22.2505 10.941V9.98841C22.2505 9.3119 21.7094 8.75249 21.0324 8.75249H16.3587C15.682 8.75249 15.1407 9.31173 15.1407 9.98841V12.3698C15.1407 13.3091 15.8913 14.0821 16.8261 14.0821H20.565C22.2074 14.0821 23.5531 15.4457 23.5531 17.1328V19.5144C23.5531 20.9387 22.4169 22.0889 21.0323 22.0889H19.6303H19.3469V22.3722V23.8011C19.3469 24.1758 19.0503 24.4703 18.6956 24.4703C18.3409 24.4703 18.0442 24.1758 18.0442 23.8011V22.3722V22.0889H17.7609H16.3589C14.9742 22.0889 13.838 20.9387 13.838 19.5144V18.5618C13.838 18.1871 14.1347 17.8926 14.4894 17.8926C14.8441 17.8926 15.1407 18.1871 15.1407 18.5618V19.5144C15.1407 20.1909 15.6818 20.7503 16.3587 20.7503H21.0324C21.7092 20.7503 22.2505 20.1911 22.2505 19.5144V17.1328C22.2505 16.1936 21.4998 15.4206 20.5651 15.4206H16.8262C15.1838 15.4206 13.838 14.0569 13.838 12.3698V9.98829C13.838 8.56394 14.9742 7.41381 16.3589 7.41381H17.7609H18.0442V7.13046V5.7016C18.0442 5.32691 18.3409 5.03237 18.6956 5.03237C19.0503 5.03237 19.3469 5.32691 19.3469 5.7016V7.13057Z"
          stroke="#A3A1A1" stroke-width="0.566702"/>
    <path d="M54.6636 0.289702L54.7666 0.553556L53.7566 0.947906L52.7465 1.34227M54.6636 0.289702L52.7465 1.34227M54.6636 0.289702L54.7666 0.553553C54.831 0.528422 54.8924 0.503265 54.9518 0.478929C55.1247 0.408108 55.2807 0.344243 55.4428 0.308235C55.6449 0.263375 55.8056 0.275826 55.9508 0.371386M54.6636 0.289702L56.5383 1.51081M52.7465 1.34227L50.2392 2.32129L47.7319 3.30032L47.6414 3.06867L47.7319 3.30032L46.3489 3.84036C46.0147 3.97093 45.8412 4.35761 45.9725 4.70728M52.7465 1.34227L45.9725 4.70728M45.9725 4.70728C46.1032 5.0542 46.4804 5.22074 46.8115 5.09176L45.9725 4.70728ZM0.907899 40.1598C15.7564 39.5304 29.2127 33.8377 39.8159 23.6977C47.3956 16.4492 52.1782 8.2675 54.3244 2.66709L54.5537 2.06865L53.9568 2.30176L46.8117 5.0917L59.6727 9.87072L59.6727 9.87069M0.907899 40.1598L0.895899 39.8767L0.907961 40.1598C0.907941 40.1598 0.90792 40.1598 0.907899 40.1598ZM0.907899 40.1598C0.553268 40.1749 0.268661 40.4821 0.283937 40.8565C0.298864 41.221 0.591823 41.4978 0.934102 41.4978C0.943791 41.4978 0.952756 41.4976 0.960716 41.4972L0.96159 41.4972C9.20161 41.1478 16.9906 39.3067 24.1141 36.0267C30.1554 33.245 35.7369 29.427 40.7036 24.6773C48.2542 17.4566 53.0995 9.28965 55.3776 3.56153L55.6484 2.8808L55.9061 3.56654L58.4573 10.3529C58.5579 10.6205 58.8059 10.7813 59.0651 10.7813C59.1417 10.7813 59.2197 10.7674 59.2961 10.7375L59.2962 10.7375C59.6305 10.6069 59.804 10.2202 59.6727 9.87069M59.6727 9.87069L58.9247 7.88097L58.1767 5.8912L57.6093 4.38185L57.0419 2.87249C56.9952 2.74843 56.9463 2.62224 56.8968 2.49447C56.7726 2.17363 56.6444 1.84284 56.5383 1.51081M59.6727 9.87069L56.5383 1.51081M56.5383 1.51081C56.5277 1.47765 56.5172 1.44437 56.5066 1.41106C56.4314 1.17344 56.3556 0.934145 56.2452 0.72684L56.2452 0.726723C56.1585 0.563688 56.0617 0.444369 55.9508 0.371386M55.9508 0.371386C55.9508 0.371397 55.9509 0.371406 55.9509 0.371417L56.1066 0.134704L55.9508 0.371386Z"
          stroke="#A3A1A1" stroke-width="0.566702"/>
    <path d="M46.2689 58.378H46.5522V58.0947V22.8481C46.5522 21.4237 47.6884 20.2736 49.073 20.2736H56.5509C57.9355 20.2736 59.0717 21.4237 59.0716 22.8481V59.0473C59.0716 59.422 58.7749 59.7165 58.4202 59.7165H0.934687C0.580008 59.7165 0.283351 59.422 0.283351 59.0473V46.6633C0.283351 45.239 1.41954 44.0889 2.80418 44.0889H10.2818C11.6664 44.0889 12.8026 45.239 12.8026 46.6633V58.0947V58.378H13.086H15.4228H15.7061V58.0947V43.8055C15.7061 42.3812 16.8423 41.231 18.227 41.231H25.7048C27.0895 41.231 28.2256 42.3812 28.2256 43.8055V58.0947V58.378H28.509H30.8458H31.1292V58.0947V36.661C31.1292 35.2366 32.2654 34.0865 33.65 34.0865H41.1278C42.5125 34.0865 43.6487 35.2366 43.6487 36.661V58.0947V58.378H43.932H46.2689ZM57.4856 58.378H57.7689V58.0947V22.8481C57.7689 22.1716 57.2278 21.6121 56.5509 21.6121H49.073C48.3963 21.6121 47.855 22.1714 47.855 22.8481V58.0947V58.378H48.1384H57.4856ZM42.0626 58.378H42.346V58.0947V36.661C42.346 35.9845 41.8049 35.4251 41.128 35.4251H33.6501C32.9733 35.4251 32.4321 35.9843 32.4321 36.661V58.0947V58.378H32.7154H42.0626ZM26.6396 58.378H26.923V58.0947V43.8055C26.923 43.129 26.3819 42.5696 25.7049 42.5696H18.2271C17.5503 42.5696 17.0091 43.1288 17.0091 43.8055V58.0947V58.378H17.2924H26.6396ZM11.2167 58.378H11.5001V58.0947V46.6633C11.5001 45.9868 10.959 45.4274 10.282 45.4274H2.80418C2.12738 45.4274 1.58614 45.9868 1.58614 46.6633V58.0947V58.378H1.86949H11.2167Z"
          stroke="#A3A1A1" stroke-width="0.566702"/>
</svg>
