<svg width="62" height="66" viewBox="0 0 62 66" fill="none" xmlns="http://www.w3.org/2000/svg">
    <path d="M11.6154 12.9172L11.4963 12.8805L11.3888 12.9434L4.88804 16.7496L3.75964 14.7657L11.2173 10.3993L28.3952 15.6917L27.7388 17.8848L11.6154 12.9172Z"
          stroke="#A3A1A1" stroke-width="0.566702"/>
    <path d="M11.6154 17.9636L11.4963 17.9269L11.3888 17.9898L4.88804 21.7959L3.75964 19.8121L11.2173 15.4457L28.3952 20.7381L27.7388 22.9312L11.6154 17.9636Z"
          stroke="#A3A1A1" stroke-width="0.566702"/>
    <path d="M11.6154 23.009L11.4963 22.9723L11.3888 23.0352L4.88804 26.8414L3.75964 24.8575L11.2173 20.4911L28.3952 25.7835L27.7388 27.9766L11.6154 23.009Z"
          stroke="#A3A1A1" stroke-width="0.566702"/>
    <path d="M11.6154 28.0544L11.4963 28.0177L11.3888 28.0806L4.88804 31.8868L3.75964 29.9029L11.2173 25.5365L28.3952 30.8289L27.7388 33.022L11.6154 28.0544Z"
          stroke="#A3A1A1" stroke-width="0.566702"/>
    <path d="M11.6154 33.0983L11.4963 33.0616L11.3888 33.1246L4.88789 36.9305L3.75963 34.9467L11.2173 30.5804L28.3952 35.8729L27.7388 38.066L11.6154 33.0983Z"
          stroke="#A3A1A1" stroke-width="0.566702"/>
    <path d="M11.6154 38.1447L11.4963 38.108L11.3888 38.171L4.88789 41.9769L3.75963 39.9931L11.2173 35.6268L28.3952 40.9192L27.7388 43.1124L11.6154 38.1447Z"
          stroke="#A3A1A1" stroke-width="0.566702"/>
    <path d="M11.6154 43.1911L11.4963 43.1544L11.3888 43.2174L4.88789 47.0233L3.75963 45.0394L11.2173 40.6732L28.3952 45.9656L27.7388 48.1588L11.6154 43.1911Z"
          stroke="#A3A1A1" stroke-width="0.566702"/>
    <path d="M11.6154 48.2365L11.4963 48.1998L11.3888 48.2628L4.88789 52.0687L3.75963 50.0849L11.2173 45.7186L28.3952 51.0111L27.7388 53.2042L11.6154 48.2365Z"
          stroke="#A3A1A1" stroke-width="0.566702"/>
    <path d="M38.3986 12.9172L38.2795 12.8805L38.172 12.9434L31.6711 16.7496L30.5428 14.7657L38.0004 10.3993L55.1783 15.6917L54.522 17.8848L38.3986 12.9172Z"
          stroke="#A3A1A1" stroke-width="0.566702"/>
    <path d="M38.3986 7.87127L38.2795 7.83458L38.172 7.89753L31.6711 11.7037L30.5428 9.71978L38.0004 5.35337L55.1783 10.6458L54.522 12.8389L38.3986 7.87127Z"
          stroke="#A3A1A1" stroke-width="0.566702"/>
    <path d="M38.3991 2.82537L38.28 2.78868L38.1725 2.85164L31.6716 6.65776L30.5433 4.67388L38.0009 0.307476L55.1787 5.59992L54.5225 7.79304L38.3991 2.82537Z"
          stroke="#A3A1A1" stroke-width="0.566702"/>
    <path d="M38.3986 17.9636L38.2795 17.9269L38.172 17.9898L31.6711 21.7959L30.5428 19.8121L38.0004 15.4457L55.1783 20.7381L54.522 22.9312L38.3986 17.9636Z"
          stroke="#A3A1A1" stroke-width="0.566702"/>
    <path d="M38.3986 23.009L38.2795 22.9723L38.172 23.0352L31.6711 26.8414L30.5428 24.8575L38.0004 20.4911L55.1783 25.7835L54.522 27.9766L38.3986 23.009Z"
          stroke="#A3A1A1" stroke-width="0.566702"/>
    <path d="M38.3986 28.0544L38.2795 28.0177L38.172 28.0806L31.6711 31.8868L30.5428 29.9029L38.0004 25.5365L55.1783 30.8289L54.522 33.022L38.3986 28.0544Z"
          stroke="#A3A1A1" stroke-width="0.566702"/>
    <path d="M38.3986 33.0983L38.2795 33.0616L38.172 33.1246L31.6711 36.9305L30.5428 34.9467L38.0004 30.5804L55.1783 35.8729L54.522 38.066L38.3986 33.0983Z"
          stroke="#A3A1A1" stroke-width="0.566702"/>
    <path d="M38.3986 38.1447L38.2795 38.108L38.172 38.171L31.6711 41.9769L30.5428 39.9931L38.0004 35.6268L55.1783 40.9193L54.522 43.1124L38.3986 38.1447Z"
          stroke="#A3A1A1" stroke-width="0.566702"/>
    <path d="M38.3986 43.1911L38.2795 43.1544L38.172 43.2174L31.6711 47.0233L30.5428 45.0394L38.0004 40.6732L55.1783 45.9656L54.522 48.1588L38.3986 43.1911Z"
          stroke="#A3A1A1" stroke-width="0.566702"/>
    <path d="M38.3986 48.2365L38.2795 48.1998L38.172 48.2628L31.6711 52.0687L30.5428 50.0849L38.0004 45.7186L55.1783 51.0111L54.522 53.2042L38.3986 48.2365Z"
          stroke="#A3A1A1" stroke-width="0.566702"/>
    <path d="M54.4588 63.2655V63.5489H54.7422H61.7166V65.7169H0.283351V63.5489H4.16312H4.44647V63.2655V56.4142V56.3393L4.40943 56.2741L3.75948 55.1312L11.2172 50.765L28.3951 56.0574L27.6872 58.4225L27.6753 58.4622V58.5037V63.2655V63.5489H27.9587H30.9468H31.2301V63.2655V56.4142V56.3392L31.1931 56.2741L30.543 55.1312L38.0007 50.765L55.1786 56.0574L54.4707 58.4225L54.4588 58.4622V58.5037V63.2655ZM14.9486 63.2655V63.5489H15.2319H23.8392H24.1225V63.2655V59.5479V59.3252L23.9062 59.2725L15.299 57.1767L14.9486 57.0913V57.452V63.2655ZM41.7324 63.2655V63.5489H42.0158H50.6228H50.9062V63.2655V59.5479V59.3252L50.6899 59.2726L42.0828 57.1767L41.7324 57.0913V57.452V63.2655Z"
          stroke="#A3A1A1" stroke-width="0.566702"/>
</svg>
