<svg width="62" height="61" viewBox="0 0 62 61" fill="none" xmlns="http://www.w3.org/2000/svg">
    <path d="M0.107785 35.8709L0.0970441 35.8941L0.326102 35.9943M0.107785 35.8709L0.251055 36.3558C0.252286 36.3469 0.254793 36.3347 0.259564 36.317C0.262556 36.306 0.265518 36.2959 0.269228 36.2832C0.270734 36.2781 0.272364 36.2726 0.274168 36.2664C0.279774 36.2471 0.286654 36.2228 0.292491 36.1967L0.29258 36.1967L0.293875 36.1901C0.301163 36.1528 0.306849 36.1052 0.310493 36.0747C0.311679 36.0647 0.312649 36.0566 0.313388 36.0512C0.31777 36.0194 0.32185 36.0046 0.325454 35.9958C0.325672 35.9953 0.325888 35.9948 0.326102 35.9943M0.107785 35.8709V35.8683M0.107785 35.8709V35.8683M0.326102 35.9943L0.334735 35.9757L0.357785 35.9258V35.9184L11.101 10.1769C11.1072 10.1662 11.1131 10.1544 11.1181 10.1414C11.2798 9.76527 11.6666 9.49443 12.1305 9.49443H29.6523H29.9023V9.24443V6.42343V6.24462L29.733 6.18684C28.2576 5.68305 27.2066 4.35025 27.2066 2.78613C27.2066 0.797669 28.8987 -0.838867 31.0001 -0.838867C33.1016 -0.838867 34.7936 0.797669 34.7936 2.78613C34.7936 4.35024 33.7426 5.68305 32.2672 6.18684L32.098 6.24462V6.42343V9.24455V9.49455H32.348H49.8698H49.8699C50.0897 9.4944 50.3037 9.55704 50.4846 9.67335C50.6618 9.78727 50.7987 9.94717 50.8803 10.1321C50.8859 10.1478 50.8929 10.1624 50.9009 10.1758L61.6425 35.9132V35.9206L61.6655 35.9705L61.6741 35.989C61.6786 36.0006 61.6827 36.0168 61.6869 36.0473C61.6876 36.0527 61.6886 36.0607 61.6898 36.0706C61.6935 36.1009 61.6991 36.1478 61.7064 36.1849L61.707 36.188C61.7143 36.2228 61.7266 36.2665 61.7345 36.2941C61.737 36.3031 61.7391 36.3104 61.7403 36.3152C61.7453 36.3338 61.7478 36.3464 61.749 36.3554C61.7484 36.3605 61.748 36.3662 61.7477 36.3722C61.7468 36.3792 61.7448 36.3966 61.7447 36.4174C61.7158 42.6589 56.4136 47.7445 49.8696 47.7445C43.3257 47.7445 38.0236 42.6588 37.9946 36.4174C37.9945 36.4048 37.9937 36.3943 37.993 36.3872C37.9926 36.3826 37.9921 36.378 37.9917 36.3753C37.9915 36.3682 37.9909 36.3617 37.9903 36.3558C37.9916 36.3465 37.9941 36.3336 37.9991 36.3143C38.0009 36.3074 38.0024 36.3021 38.0037 36.2971C38.0065 36.287 38.009 36.2782 38.0139 36.2596C38.0194 36.2389 38.0258 36.2134 38.0309 36.1855C38.038 36.1485 38.0435 36.102 38.0471 36.072C38.0483 36.0621 38.0493 36.054 38.05 36.0487C38.0544 36.0168 38.0585 36.0021 38.0621 35.9933C38.0623 35.9927 38.0625 35.9922 38.0627 35.9918L38.0713 35.9732L38.0944 35.9233V35.9159L48.1084 11.9241L48.253 11.5778H47.8777H32.348H32.098V11.8278V53.1611V53.4111H32.348H49.8698C50.4859 53.4111 50.9678 53.8879 50.9678 54.4528C50.9678 55.0178 50.486 55.4945 49.8699 55.4945H12.1305C11.5144 55.4945 11.0326 55.0178 11.0326 54.4528C11.0326 53.8878 11.5144 53.4111 12.1305 53.4111H29.6521H29.9021V53.1611V11.8278V11.5778H29.6521H14.1224H13.7472L13.8917 11.9241L23.903 35.9132V35.9206L23.926 35.9705L23.9346 35.989C23.9391 36.0006 23.9432 36.0168 23.9474 36.0473C23.9481 36.0527 23.9491 36.0608 23.9503 36.0706C23.954 36.1009 23.9596 36.1478 23.9669 36.1849L23.9675 36.188C23.9748 36.2231 23.9872 36.2666 23.995 36.2943C23.9976 36.3032 23.9996 36.3105 24.0009 36.3153C24.0059 36.3341 24.0084 36.3467 24.0097 36.3558C24.0091 36.3608 24.0087 36.3662 24.0084 36.3721C24.008 36.3751 24.0075 36.38 24.0069 36.3863C24.0062 36.3947 24.0055 36.4054 24.0054 36.4173C23.9766 42.6588 18.6743 47.7444 12.1304 47.7444C5.58645 47.7444 0.284315 42.6587 0.255304 36.4173L0.00571758 36.4185H0.255307C0.255307 36.4058 0.254515 36.3951 0.253927 36.3884C0.253382 36.3822 0.252716 36.3764 0.25242 36.3738L0.326102 35.9943ZM0.107785 35.8683L10.8797 10.0582C10.8797 10.0551 10.8816 10.0539 10.8831 10.0528C10.8842 10.0521 10.8851 10.0515 10.8851 10.0504M0.107785 35.8683L11.0291 10.2557M10.8851 10.0504L10.9035 10.0582L11.1131 10.1466C11.1121 10.1492 11.111 10.1518 11.1099 10.1543C11.104 10.1681 11.097 10.181 11.0892 10.1928C11.0767 10.2117 11.0635 10.226 11.0525 10.2363C11.0428 10.2455 11.0342 10.252 11.0291 10.2557M10.8851 10.0504H11.1351C11.1351 10.0678 11.1333 10.0852 11.1297 10.1024M10.8851 10.0504C11.0846 9.57768 11.5644 9.24443 12.1305 9.24443L11.1297 10.1024M11.0291 10.2557L11.0256 10.2582M11.0291 10.2557C11.0285 10.2561 11.028 10.2565 11.0276 10.2568L11.0256 10.2582M11.0256 10.2582L11.0226 10.2603L11.0236 10.2596L11.0256 10.2582ZM11.1297 10.1024V10.1083L11.1264 10.1162L11.1297 10.1024ZM24.0173 36.3148L24.0169 36.3166L24.0173 36.3148ZM0.24341 36.3148C0.243163 36.3138 0.243481 36.315 0.243851 36.3166L0.24341 36.3148ZM26.9566 2.78613C26.9566 4.46788 28.0862 5.88868 29.6523 6.42343L50.6198 9.46307C50.398 9.32044 50.1369 9.24437 49.8698 9.24455H32.598H32.348V8.99455V6.42343C33.9141 5.88868 35.0436 4.46788 35.0436 2.78613C35.0436 0.649676 33.2295 -1.08887 31.0001 -1.08887C28.7708 -1.08887 26.9566 0.649676 26.9566 2.78613ZM2.79267 37.4111H2.50246L2.54542 37.6981C3.21968 42.2027 7.26838 45.6611 12.1305 45.6611C16.9925 45.6611 21.0411 42.2027 21.7182 37.6983L21.7614 37.4111H21.471H2.79267ZM20.9211 35.3278H21.2963L21.1518 34.9816L12.3612 13.9171L12.1305 13.3642L11.8998 13.9171L3.10922 34.9816L2.96471 35.3278H3.33993H20.9211ZM50.1005 13.9171L49.8698 13.3643L49.639 13.917L40.8458 34.9815L40.7013 35.3278H41.0765H58.6603H59.0355L58.891 34.9816L50.1005 13.9171ZM40.5319 37.4111H40.2417L40.2847 37.6981C40.9589 42.2027 45.0076 45.6611 49.8698 45.6611C54.7319 45.6611 58.7805 42.2027 59.4575 37.6983L59.5006 37.4111H59.2102H40.5319ZM6.73913 58.5778H55.2611C55.8772 58.5778 56.359 59.0545 56.359 59.6194C56.359 60.1844 55.8772 60.6611 55.2611 60.6611H6.73913C6.12304 60.6611 5.64125 60.1844 5.64125 59.6195C5.64125 59.0545 6.12306 58.5778 6.73913 58.5778ZM29.4023 2.78613C29.4023 3.64713 30.1282 4.32784 31.0001 4.32784C31.8721 4.32784 32.598 3.64713 32.598 2.78613C32.598 1.92514 31.8721 1.24443 31.0001 1.24443C30.1282 1.24443 29.4023 1.92514 29.4023 2.78613Z"
          stroke="#A3A1A1" stroke-width="0.5"/>
</svg>
