<svg width="101" height="81" viewBox="0 0 101 81" fill="none" xmlns="http://www.w3.org/2000/svg">
    <path d="M40.3076 47.0195C40.3934 46.7847 40.3935 46.7847 40.3936 46.7848L40.3942 46.785L40.3966 46.7859L40.4063 46.7894L40.4443 46.8033L40.5928 46.8576L41.1565 47.0637L43.1692 47.7991C44.8351 48.4078 47.0571 49.2194 49.2815 50.0311C51.5059 50.8428 53.7326 51.6546 55.4079 52.2637C56.2456 52.5682 56.9452 52.8221 57.4377 52.9998C57.684 53.0888 57.8782 53.1585 58.0119 53.2061C58.0788 53.2299 58.13 53.248 58.1648 53.26L58.2025 53.2728L40.3076 47.0195ZM40.3076 47.0195L40.3934 46.7847L39.988 46.6365L40.0612 47.0619L42.4563 60.9868L42.4564 60.9873C42.5645 61.6075 42.548 62.242 42.408 62.8541C42.268 63.4661 42.0072 64.0437 41.6407 64.5535L41.6406 64.5534L41.6361 64.5601C41.2876 65.0797 40.833 65.5203 40.3014 65.8534C39.7709 66.1859 39.1754 66.404 38.5532 66.4935M40.3076 47.0195L38.5532 66.4935M38.5532 66.4935C36.7922 66.6949 35.5364 66.1866 34.6547 65.3999C33.7678 64.6086 33.2424 63.5197 32.9833 62.5375L30.2585 46.7584L30.2165 46.5155L29.9731 46.554C27.9703 46.8707 25.9174 46.3885 24.2598 45.2118C22.6025 44.0352 21.4747 42.2596 21.1203 40.2705C21.1202 40.2703 21.1202 40.2701 21.1201 40.2699L21.0439 39.8289L21.0439 39.8289C20.8721 38.837 20.8984 37.8226 21.121 36.8436C21.3436 35.8645 21.7583 34.9399 22.3413 34.1226C22.9244 33.3052 23.6644 32.611 24.5192 32.0798C25.374 31.5485 26.3268 31.1905 27.3234 31.0264L38.5532 66.4935ZM33.7103 31.9582L33.7526 32.2029L35.6893 43.406L35.7322 43.6541L35.4838 43.6952L29.692 44.6546L29.6919 44.6546C28.9493 44.7775 28.1888 44.7535 27.4539 44.584C26.7189 44.4145 26.0239 44.1028 25.4084 43.6668C24.793 43.2307 24.2691 42.6788 23.8668 42.0425C23.4646 41.4062 23.1917 40.6979 23.0641 39.9582C23.0641 39.9581 23.0641 39.9581 23.0641 39.9581L22.9876 39.516C22.8597 38.7767 22.8795 38.0202 23.0459 37.2901C23.2124 36.56 23.5222 35.8705 23.9576 35.2613C24.3931 34.6521 24.9455 34.1351 25.5833 33.7399C26.2209 33.3448 26.9313 33.0792 27.6736 32.9582L27.6735 32.9582L33.7103 31.9582ZM33.7103 31.9582L33.4654 31.9988L27.6742 32.9581L33.7103 31.9582ZM27.3236 31.0263L34.0226 29.9292L34.0878 29.9185L34.1392 29.877L33.9822 29.6825C34.1392 29.877 34.1393 29.8769 34.1394 29.8768L34.14 29.8763L34.1424 29.8744L34.152 29.8667L34.1897 29.8362L34.337 29.7173L34.8959 29.266L36.8907 27.655C38.5417 26.3216 40.7432 24.5434 42.9452 22.7642C45.1471 20.985 47.3495 19.2048 49.0024 17.8673C49.8288 17.1986 50.5179 16.6406 51.0009 16.2487C51.2424 16.0527 51.4325 15.8982 51.5626 15.7921C51.6275 15.7391 51.6778 15.6979 51.7121 15.6697L51.751 15.6373C52.2238 15.3635 52.7412 15.1731 53.2805 15.0746C55.7313 14.6613 58.3371 16.3024 60.5951 19.4922C62.8433 22.668 64.6924 27.3115 65.6292 32.7158C66.4765 37.7369 66.4331 42.5436 65.4534 46.3405L65.4531 46.3415C64.4012 50.487 62.3977 52.9016 59.8831 53.3165L59.8812 53.3168C59.3252 53.413 58.7546 53.3981 58.2029 53.273L27.3236 31.0263ZM40.532 61.3099L40.5318 61.3089L37.8991 46.0078L37.8745 45.8649L37.7383 45.8153L36.8353 45.4864L36.7737 45.464L36.709 45.4747L32.3932 46.1879L32.1448 46.229L32.1876 46.4771L34.9061 62.2167C35.0335 62.9595 35.4512 63.623 36.067 64.0625C36.6828 64.502 37.4472 64.6822 38.1931 64.5632L38.1937 64.5631C38.9383 64.4422 39.6031 64.0321 40.0418 63.422C40.4805 62.8119 40.6566 62.0522 40.532 61.3099ZM37.7118 43.5977L37.7364 43.7401L37.8721 43.7898L52.1011 49.0045L52.8327 49.2726L52.3936 48.6289C50.2393 45.4704 48.4665 40.9409 47.5574 35.687C46.6483 30.4332 46.8024 25.5856 47.7805 21.9096L47.9782 21.1663L47.3812 21.6513L35.6904 31.1491L35.5768 31.2414L35.6017 31.3857L37.7118 43.5977ZM57.4103 50.9433L57.4174 50.9471L57.4247 50.9504L57.5288 50.7231C57.4247 50.9504 57.4249 50.9505 57.4251 50.9506L57.4256 50.9508L57.4269 50.9514L57.4304 50.953L57.4418 50.958C57.4513 50.962 57.4644 50.9674 57.481 50.974C57.5143 50.9871 57.5616 51.0046 57.6216 51.0239C57.7415 51.0626 57.9126 51.109 58.1232 51.1419C58.5444 51.2079 59.1278 51.2211 59.7753 51.0096C61.0851 50.5818 62.5691 49.2669 63.5343 45.8799C64.5566 42.3412 64.4799 37.7493 63.664 33.0424C62.9409 28.8526 61.6751 25.2908 60.2029 22.5965C58.736 19.9119 57.0459 18.0558 55.4551 17.3277L55.4551 17.3277L55.4514 17.326C54.8244 17.0512 54.127 16.9798 53.459 17.1224C52.7913 17.2649 52.1868 17.6138 51.7321 18.1197C50.5483 19.4094 49.6451 21.701 49.2078 24.6582C48.7692 27.625 48.7948 31.2926 49.4976 35.3647C50.2004 39.4371 51.4116 42.9135 52.8255 45.5776C54.2353 48.234 55.8613 50.1101 57.4103 50.9433Z"
          stroke="#A3A1A1" stroke-width="0.5"/>
    <path d="M57.3702 29.3013L57.3506 29.2872C56.645 28.7818 55.846 28.4208 55.0004 28.2251C54.155 28.0295 53.2801 28.0032 52.4268 28.1477C52.2956 28.1706 52.1705 28.2189 52.0587 28.2898C51.9467 28.3607 51.8501 28.453 51.7743 28.5612C51.6986 28.6694 51.6451 28.7915 51.6169 28.9206C51.5888 29.0496 51.5865 29.1832 51.6103 29.3138C51.634 29.4443 51.6834 29.5692 51.7558 29.6814C51.8281 29.7936 51.9219 29.8907 52.0319 29.9672C52.1419 30.0438 52.2659 30.0981 52.3967 30.1271C52.5275 30.1561 52.6625 30.1593 52.7939 30.1364L52.7961 30.1361C53.3882 30.0387 53.9944 30.0584 54.5802 30.1939C55.166 30.3294 55.7199 30.5781 56.2104 30.9259C56.7009 31.2736 57.1184 31.7136 57.4391 32.2209C57.7597 32.7281 57.9773 33.2927 58.0792 33.8824C58.1811 34.4721 58.1654 35.0753 58.0328 35.6577C57.9002 36.24 57.6533 36.79 57.3063 37.276C56.9593 37.7621 56.5191 38.1748 56.0107 38.4905C55.5027 38.806 54.9367 39.0185 54.345 39.1159M57.3702 29.3013L54.3033 38.8694M57.3702 29.3013L57.3921 29.3113L57.4166 29.3225M57.3702 29.3013L57.4962 29.084L57.5421 29.105M54.345 39.1159C54.3446 39.116 54.3443 39.1161 54.3439 39.1161L54.3033 38.8694M54.345 39.1159C54.3453 39.1159 54.3456 39.1158 54.3459 39.1158L54.3033 38.8694M54.345 39.1159C54.1327 39.1528 53.9388 39.2561 53.7911 39.4104C53.6433 39.5649 53.5495 39.7627 53.5233 39.9748C53.497 40.187 53.5398 40.4028 53.6458 40.5907C53.7518 40.7785 53.9155 40.9284 54.113 41.018L54.1179 41.0203L54.1179 41.0203C54.3034 41.1094 54.5117 41.1388 54.7135 41.1044L54.7151 41.1042C56.0012 40.8939 57.1927 40.3084 58.1388 39.4222C59.0849 38.5361 59.7432 37.389 60.0306 36.1263C60.3179 34.8636 60.2214 33.5417 59.7528 32.3281C59.287 31.1216 58.4744 30.076 57.4166 29.3225M54.3033 38.8694C54.0383 38.9152 53.7955 39.0442 53.6105 39.2376C53.4255 39.431 53.308 39.6786 53.2751 39.9442C53.2423 40.2097 53.2959 40.4793 53.4281 40.7135C53.5602 40.9477 53.764 41.1342 54.0096 41.2457C54.2416 41.3571 54.5024 41.3939 54.7554 41.3509C56.0902 41.1326 57.3272 40.5249 58.3097 39.6047C59.2922 38.6845 59.9759 37.4932 60.2744 36.1818C60.5728 34.8704 60.4725 33.4979 59.9861 32.238C59.4997 30.9782 58.6491 29.8878 57.5421 29.105M57.4166 29.3225L57.4381 29.3323L57.5421 29.105M57.4166 29.3225C57.4104 29.318 57.4041 29.3136 57.3978 29.3091L57.5421 29.105M77.158 16.6159L77.1579 16.6159L77.1541 16.6222L72.3603 24.7539C72.3603 24.7539 72.3603 24.7539 72.3602 24.754C72.2345 24.9669 72.0334 25.1259 71.7951 25.1997C71.5568 25.2735 71.2984 25.2569 71.0699 25.1524C71.0698 25.1524 71.0698 25.1524 71.0698 25.1524L70.9706 25.107C70.7439 24.97 70.5798 24.7508 70.5129 24.4967C70.445 24.2388 70.4828 23.9659 70.6174 23.7376L70.6176 23.7374L75.4079 15.5961L75.408 15.5961L75.4113 15.5901C75.4759 15.473 75.5636 15.3701 75.6693 15.2875C75.775 15.2048 75.8966 15.1441 76.0269 15.109C76.1572 15.0739 76.2936 15.0652 76.4281 15.0834C76.5625 15.1017 76.6921 15.1465 76.8091 15.2153C76.9262 15.2841 77.0283 15.3755 77.1093 15.4838C77.1904 15.5922 77.2488 15.7154 77.2812 15.846C77.3135 15.9765 77.3193 16.1119 77.2981 16.2441C77.2769 16.3763 77.2293 16.5027 77.158 16.6159ZM86.2598 30.408L86.2597 30.408L86.2607 30.4134C86.3088 30.6745 86.2512 30.9428 86.1007 31.16C85.9509 31.3762 85.7207 31.525 85.4596 31.5734L75.0822 33.1156C75.0817 33.1156 75.0813 33.1157 75.0808 33.1158C74.8778 33.1432 74.6705 33.11 74.4854 33.0201L74.4855 33.0199L74.4757 33.0156C74.2737 32.9281 74.1055 32.7779 73.9964 32.5879C73.8873 32.3981 73.8432 32.1789 73.8702 31.9636C73.8972 31.7482 73.9939 31.548 74.1457 31.3928C74.2975 31.2378 74.4965 31.1359 74.7129 31.103C74.7131 31.103 74.7132 31.103 74.7134 31.1029L85.0968 29.5599C85.0968 29.5599 85.0968 29.5599 85.0969 29.5599C85.363 29.5208 85.6349 29.5881 85.853 29.7472C86.0711 29.9064 86.2171 30.1442 86.2598 30.408ZM82.4507 45.5936L82.6395 45.7243C82.7619 45.8519 82.8496 46.0097 82.8923 46.1828C82.9537 46.4317 82.9172 46.6934 82.7908 46.9147C82.6644 47.1361 82.4573 47.3009 82.2111 47.3751C81.9648 47.4494 81.6982 47.4272 81.466 47.3127L81.466 47.3126L81.4594 47.3095L81.2761 47.2256L72.7523 41.3214L72.7523 41.3214C72.5305 41.1678 72.379 40.9337 72.3305 40.671C72.2821 40.4084 72.3404 40.1386 72.4924 39.9205C72.6443 39.7024 72.878 39.5534 73.1424 39.5068C73.4069 39.4603 73.6804 39.5202 73.9022 39.6738L82.4507 45.5936Z"
          stroke="#A3A1A1" stroke-width="0.5"/>
</svg>
