<svg width="64" height="64" viewBox="0 0 64 64" fill="none" xmlns="http://www.w3.org/2000/svg">
    <g clip-path="url(#clip0_776_2071)">
        <path d="M32.7664 45.9528C36.1183 46.6387 38.79 49.2157 39.5867 52.5244H22.4135C23.2103 49.2157 25.8819 46.6387 29.2338 45.9528L29.4337 45.9119V45.7079V19.7445V19.5682L29.2677 19.509C28.5427 19.2506 27.8843 18.8341 27.3401 18.2899C26.7959 17.7457 26.3795 17.0873 26.121 16.3623L26.0618 16.1963H25.8855H13.5856H13.2126L13.3544 16.5413L21.5467 36.4758C21.5202 41.3229 17.568 45.2588 12.7148 45.2588H9.08203C4.2288 45.2588 0.27652 41.3227 0.250133 36.4756L8.4057 16.541L8.5467 16.1963H8.17431H3.88281V13.0635H25.8854H26.0616L26.1208 12.8974C26.3793 12.1725 26.7958 11.5141 27.34 10.9699C27.8842 10.4256 28.5426 10.0092 29.2676 9.75072L29.4336 9.69152V9.51525V2.04395H32.5664V9.51525V9.69152L32.7324 9.75072C33.4574 10.0092 34.1158 10.4256 34.66 10.9699C35.2042 11.5141 35.6207 12.1725 35.8792 12.8974L35.9384 13.0635H36.1146H58.1172V16.1963H53.7888H53.4157L53.5575 16.5413L61.7499 36.4758C61.7234 41.3229 57.7711 45.2588 52.918 45.2588H49.2852C44.4319 45.2588 40.4796 41.3227 40.4533 36.4756L48.6089 16.541L48.75 16.1963H48.3776H36.1148H35.9385L35.8793 16.3623C35.6208 17.0873 35.2044 17.7457 34.6601 18.2899C34.1159 18.8341 33.4575 19.2506 32.7326 19.509L32.5665 19.5682V19.7445V45.7079V45.9119L32.7664 45.9528ZM17.2554 34.8604H17.6304L17.4861 34.5142L11.1292 19.2557L10.8984 18.7017L10.6677 19.2557L4.31073 34.5142L4.16652 34.8604H4.5415H17.2554ZM57.4585 34.8604H57.8335L57.6893 34.5142L51.3323 19.2557L51.1016 18.7017L50.8708 19.2557L44.5139 34.5142L44.3696 34.8604H44.7446H57.4585ZM41.8984 56.6572C44.7699 56.6572 47.0977 58.985 47.0977 61.8564V63.5439H14.9023V61.8564C14.9023 58.985 17.2301 56.6572 20.1016 56.6572H41.8984Z"
              stroke="#A3A1A1" stroke-width="0.5"/>
    </g>
    <defs>
        <clipPath id="clip0_776_2071">
            <rect width="62" height="62" fill="white" transform="translate(0 1.79395)"/>
        </clipPath>
    </defs>
</svg>
