<svg width="101" height="81" viewBox="0 0 101 81" fill="none" xmlns="http://www.w3.org/2000/svg">
    <path d="M40.3071 47.0195C40.3929 46.7847 40.393 46.7847 40.3931 46.7848L40.3937 46.785L40.3961 46.7859L40.4058 46.7894L40.4439 46.8033L40.5923 46.8576L41.1561 47.0637L43.1687 47.7991C44.8346 48.4078 47.0566 49.2193 49.281 50.0311C51.5054 50.8428 53.7321 51.6546 55.4074 52.2637C56.2451 52.5682 56.9447 52.8221 57.4372 52.9998C57.6836 53.0888 57.8778 53.1585 58.0114 53.2061C58.0784 53.2299 58.1295 53.248 58.1643 53.26L58.202 53.2728L40.3071 47.0195ZM40.3071 47.0195L40.3929 46.7847L39.9875 46.6365L40.0607 47.0619L42.4558 60.9868L42.4559 60.9873C42.564 61.6075 42.5475 62.242 42.4075 62.8541C42.2675 63.4661 42.0067 64.0437 41.6402 64.5535L41.6401 64.5534L41.6356 64.5601C41.2871 65.0797 40.8325 65.5203 40.3009 65.8534C39.7703 66.1859 39.1748 66.404 38.5526 66.4936C36.7916 66.6949 35.5359 66.1866 34.6543 65.3999C33.7673 64.6086 33.2419 63.5196 32.9828 62.5375L30.258 46.7584L30.216 46.5155L29.9726 46.554C27.9698 46.8707 25.9169 46.3885 24.2594 45.2118C22.602 44.0352 21.4742 42.2596 21.1198 40.2705C21.1197 40.2703 21.1197 40.2701 21.1197 40.2699L21.0434 39.8289L21.0434 39.8289C20.8716 38.837 20.8979 37.8226 21.1205 36.8436C21.3431 35.8645 21.7578 34.9399 22.3409 34.1226C22.9239 33.3052 23.6639 32.611 24.5188 32.0798C25.3736 31.5485 26.3265 31.1905 27.3231 31.0263L34.0221 29.9292L34.0873 29.9185M40.3071 47.0195L34.0873 29.9185M33.9817 29.6825C34.1387 29.877 34.1388 29.8769 34.1389 29.8768L34.1395 29.8763L34.142 29.8744L34.1515 29.8667L34.1893 29.8362L34.3365 29.7173L34.8954 29.266L36.8903 27.655C38.5413 26.3216 40.7427 24.5434 42.9447 22.7642C45.1466 20.985 47.349 19.2048 49.0019 17.8673C49.8283 17.1986 50.5175 16.6406 51.0005 16.2487C51.2419 16.0527 51.432 15.8982 51.5621 15.7921C51.627 15.7391 51.6773 15.6979 51.7116 15.6697L51.7505 15.6373C52.2233 15.3635 52.7407 15.1731 53.28 15.0746C55.7308 14.6613 58.3366 16.3024 60.5946 19.4922C62.8428 22.668 64.6919 27.3115 65.6287 32.7158C66.476 37.7369 66.4327 42.5436 65.4529 46.3405L65.4526 46.3415C64.4007 50.487 62.3972 52.9016 59.8826 53.3165L59.8807 53.3168C59.3247 53.413 58.7542 53.3981 58.2024 53.273L33.9817 29.6825ZM33.9817 29.6825L34.1387 29.877M33.9817 29.6825L34.1387 29.877M34.0873 29.9185L34.1387 29.877M34.0873 29.9185L34.1387 29.877M40.5314 61.3089L40.5315 61.3099C40.6562 62.0522 40.48 62.8119 40.0413 63.422C39.6027 64.0321 38.9378 64.4422 38.1933 64.5631L38.1926 64.5632C37.4467 64.6822 36.6823 64.502 36.0665 64.0625C35.4507 63.6231 35.0331 62.9597 34.9056 62.217L40.5314 61.3089ZM40.5314 61.3089L37.8986 46.0078L37.874 45.8649L37.7378 45.8153L36.8348 45.4864L36.7732 45.464L36.7085 45.4747L32.3927 46.1879L32.1443 46.229L32.1871 46.4771L34.9056 62.2167L40.5314 61.3089ZM33.7521 32.2029L33.7098 31.9582L33.4649 31.9988L27.6737 32.9581C26.9311 33.0791 26.2206 33.3447 25.5828 33.7399C24.945 34.1351 24.3926 34.6521 23.9571 35.2613C23.5217 35.8705 23.2119 36.56 23.0454 37.2901C22.879 38.0202 22.8592 38.7767 22.9871 39.516L23.0636 39.9581C23.0636 39.9581 23.0636 39.9581 23.0636 39.9581C23.0636 39.9581 23.0636 39.9582 23.0636 39.9582C23.1913 40.6979 23.4641 41.4062 23.8663 42.0425C24.2686 42.6788 24.7925 43.2307 25.4079 43.6668C26.0234 44.1028 26.7184 44.4145 27.4534 44.584C28.1883 44.7535 28.9488 44.7775 29.6914 44.6546L29.6915 44.6546L35.4833 43.6952L35.7317 43.6541L35.6888 43.406L33.7521 32.2029ZM37.7113 43.5977L37.7359 43.7401L37.8717 43.7898L52.1006 49.0045L52.8322 49.2726L52.3931 48.6289C50.2388 45.4704 48.466 40.9409 47.5569 35.687C46.6478 30.4332 46.8019 25.5856 47.78 21.9096L47.9777 21.1663L47.3807 21.6513L35.6899 31.1491L35.5763 31.2414L35.6012 31.3857L37.7113 43.5977ZM57.4098 50.9433L57.4169 50.9471L57.4242 50.9504L57.5283 50.7231C57.4242 50.9504 57.4244 50.9505 57.4246 50.9506L57.4251 50.9509L57.4264 50.9514L57.43 50.953L57.4413 50.958C57.4508 50.962 57.4639 50.9674 57.4805 50.974C57.5138 50.9871 57.5611 51.0046 57.6211 51.0239C57.741 51.0626 57.9121 51.109 58.1228 51.1419C58.5439 51.2079 59.1273 51.2211 59.7748 51.0096C61.0846 50.5817 62.5688 49.2667 63.534 45.8793C64.5561 42.3406 64.4793 37.7489 63.6635 33.0422C62.9404 28.8525 61.6746 25.2907 60.2024 22.5965C58.7355 19.9119 57.0454 18.0558 55.4546 17.3277L55.4547 17.3277L55.4509 17.326C54.8239 17.0512 54.1266 16.9798 53.4585 17.1224C52.7908 17.2649 52.1863 17.6138 51.7316 18.1197C50.5478 19.4094 49.6446 21.701 49.2073 24.6582C48.7687 27.625 48.7943 31.2926 49.4971 35.3647C50.2 39.4371 51.4111 42.9135 52.825 45.5776C54.2348 48.234 55.8608 50.1101 57.4098 50.9433Z"
          stroke="#A3A1A1" stroke-width="0.5"/>
    <path d="M57.3501 29.2867L57.3697 29.3008L57.3916 29.3108L57.4161 29.322C58.4739 30.0756 59.2865 31.1211 59.7523 32.3276C60.2209 33.5412 60.3175 34.8631 60.0301 36.1258C59.7428 37.3886 59.0844 38.5356 58.1383 39.4217C57.1922 40.3079 56.0007 40.8934 54.7146 41.1037L54.713 41.104C54.5112 41.1383 54.3029 41.1089 54.1174 41.0198L54.1174 41.0198L54.1125 41.0175C53.915 40.9279 53.7513 40.778 53.6453 40.5902C53.5393 40.4023 53.4965 40.1865 53.5228 39.9743C53.549 39.7622 53.6428 39.5644 53.7907 39.4099C53.9383 39.2557 54.1322 39.1523 54.3444 39.1155C54.9362 39.018 55.5022 38.8055 56.0103 38.49C56.5186 38.1743 56.9589 37.7616 57.3058 37.2756C57.6528 36.7895 57.8997 36.2395 58.0323 35.6572C58.1649 35.0748 58.1806 34.4716 58.0787 33.8819C57.9768 33.2922 57.7593 32.7276 57.4386 32.2204C57.1179 31.7131 56.7004 31.2731 56.2099 30.9254C55.7194 30.5776 55.1655 30.3289 54.5797 30.1934C53.9939 30.0579 53.3877 30.0382 52.7956 30.1356L52.7934 30.136C52.662 30.1588 52.527 30.1557 52.3962 30.1266L52.342 30.3707L52.3962 30.1266C52.2654 30.0976 52.1415 30.0433 52.0315 29.9668C51.9214 29.8902 51.8276 29.7931 51.7553 29.6809C51.683 29.5688 51.6335 29.4438 51.6098 29.3133C51.586 29.1827 51.5883 29.0491 51.6164 28.9201C51.6446 28.791 51.6981 28.6689 51.7738 28.5607C51.8496 28.4525 51.9462 28.3603 52.0582 28.2893C52.17 28.2184 52.295 28.1701 52.4262 28.1472C53.2795 28.0027 54.1545 28.029 54.9999 28.2246C55.8455 28.4203 56.6445 28.7814 57.3501 29.2867ZM77.1574 16.6154L77.1537 16.6217L72.3598 24.7534C72.3598 24.7534 72.3598 24.7534 72.3598 24.7535C72.234 24.9664 72.0329 25.1254 71.7947 25.1992C71.5563 25.273 71.2979 25.2564 71.0694 25.1519C71.0694 25.1519 71.0693 25.1519 71.0693 25.1519L70.9701 25.1065C70.7434 24.9695 70.5793 24.7503 70.5124 24.4962C70.4445 24.2383 70.4823 23.9654 70.6169 23.7371L70.6171 23.7369L75.4074 15.5956L75.4075 15.5956L75.4108 15.5896C75.4754 15.4726 75.5631 15.3696 75.6688 15.287C75.7745 15.2043 75.8961 15.1436 76.0264 15.1085L75.9615 14.8674L76.0264 15.1085C76.1567 15.0734 76.2932 15.0647 76.4276 15.0829C76.562 15.1012 76.6916 15.146 76.8086 15.2148C76.9257 15.2837 77.0278 15.375 77.1088 15.4834C77.1899 15.5917 77.2483 15.7149 77.2807 15.8455C77.3131 15.976 77.3188 16.1114 77.2976 16.2436L77.5444 16.2832L77.2976 16.2436C77.2764 16.3758 77.2288 16.5022 77.1575 16.6154L77.1574 16.6154ZM86.2593 30.4075L86.2592 30.4075L86.2602 30.4129C86.3083 30.674 86.2507 30.9423 86.1002 31.1595C85.9504 31.3757 85.7202 31.5245 85.4591 31.573L75.0817 33.1151C75.0812 33.1151 75.0807 33.1152 75.0803 33.1153C74.8773 33.1427 74.67 33.1095 74.485 33.0196L74.4851 33.0194L74.4752 33.0151C74.2732 32.9276 74.105 32.7774 73.9959 32.5875C73.8868 32.3976 73.8427 32.1784 73.8697 31.9631C73.8967 31.7478 73.9934 31.5475 74.1452 31.3923C74.297 31.2373 74.496 31.1354 74.7125 31.1025C74.7126 31.1025 74.7127 31.1025 74.7129 31.1024L85.0963 29.5594C85.0964 29.5594 85.0964 29.5594 85.0965 29.5594C85.3626 29.5204 85.6344 29.5876 85.8525 29.7468C86.0706 29.9059 86.2166 30.1437 86.2593 30.4075ZM82.4502 45.5931L82.639 45.7238C82.7614 45.8514 82.8492 46.0092 82.8918 46.1823C82.9532 46.4312 82.9167 46.6929 82.7903 46.9143C82.6639 47.1356 82.4568 47.3004 82.2106 47.3746C81.9643 47.4489 81.6978 47.4267 81.4655 47.3122L81.4655 47.3121L81.459 47.3091L81.2756 47.2251L72.7518 41.3209L72.7518 41.3209C72.53 41.1673 72.3785 40.9332 72.3301 40.6705C72.2816 40.4079 72.34 40.1381 72.4919 39.92C72.6439 39.702 72.8775 39.5529 73.1419 39.5063C73.4065 39.4598 73.6799 39.5197 73.9017 39.6733C73.9017 39.6733 73.9017 39.6733 73.9017 39.6733L82.4502 45.5931Z"
          stroke="#A3A1A1" stroke-width="0.5"/>
</svg>
