<svg width="61" height="64" viewBox="0 0 61 64" fill="none" xmlns="http://www.w3.org/2000/svg">
    <mask id="path-1-inside-1_664_2541" fill="white">
        <path d="M21.523 30.4346C22.9056 30.4346 24.2888 29.9046 25.3413 28.8449C26.3613 27.8181 26.9229 26.4529 26.9229 25.0009C26.9229 23.5488 26.3613 22.1836 25.3413 21.1568C23.2359 19.0372 19.8102 19.0372 17.7047 21.1568C15.5993 23.2764 15.5993 26.7252 17.7047 28.8449C18.7576 29.9049 20.1401 30.4346 21.523 30.4346ZM19.1098 22.5713C19.7751 21.9015 20.6492 21.5666 21.5231 21.5666C22.3971 21.5666 23.271 21.9015 23.9364 22.5713C24.581 23.2202 24.9361 24.083 24.9361 25.0009C24.9361 25.9187 24.581 26.7814 23.9364 27.4304C22.6057 28.7701 20.4407 28.7701 19.11 27.4304C17.7791 26.0907 17.7791 23.911 19.1098 22.5713ZM35.6589 35.1551C34.639 36.1818 34.0773 37.547 34.0773 38.9991C34.0773 40.4512 34.6389 41.8164 35.6589 42.8432C36.7117 43.9031 38.0942 44.433 39.4772 44.4328C40.8598 44.4327 42.2429 43.9029 43.2955 42.8432C44.3154 41.8164 44.877 40.4512 44.877 38.9991C44.877 37.547 44.3153 36.1818 43.2955 35.1552C42.2756 34.1283 40.9195 33.5628 39.4772 33.5628C38.0347 33.5628 36.6786 34.1283 35.6589 35.1551ZM42.89 38.9991C42.89 39.9169 42.5349 40.7796 41.8904 41.4286C40.5598 42.7685 38.3946 42.7682 37.0639 41.4286C36.4193 40.7797 36.0643 39.9169 36.0643 38.9991C36.0643 38.0814 36.4193 37.2186 37.0639 36.5697C37.0639 36.5697 37.0639 36.5697 37.0639 36.5695C37.7084 35.9206 38.5655 35.5632 39.4771 35.5632C40.3886 35.5632 41.2457 35.9205 41.8904 36.5697C42.5349 37.2186 42.89 38.0815 42.89 38.9991ZM18.4388 42.7279L41.1561 19.8575C41.5441 19.4669 42.1731 19.4669 42.5611 19.8575C42.9492 20.2481 42.9492 20.8814 42.5611 21.272L19.8439 44.1425C19.65 44.3378 19.3957 44.4355 19.1414 44.4355C18.887 44.4355 18.6328 44.3378 18.4388 44.1425C18.0509 43.7518 18.0509 43.1187 18.4388 42.7279ZM0.346688 38.2288C-0.545382 40.6606 0.32719 43.3643 2.46875 44.8038L6.86167 47.7566C7.60694 48.2576 8.06732 48.8954 8.31024 49.7638L9.74218 54.8823C10.4403 57.3777 12.7228 59.0467 15.2978 58.9461L20.5757 58.7354C21.4716 58.6998 22.2159 58.9432 22.9194 59.5021L27.0664 62.7956C28.0774 63.5987 29.2885 64.0001 30.5 64C31.7112 63.9999 32.9228 63.5984 33.9335 62.7957L38.0805 59.5021C38.7842 58.9432 39.529 58.6985 40.4243 58.7354L45.7022 58.9461C48.2756 59.0476 50.5597 57.3776 51.2578 54.8824L52.6897 49.764C52.9327 48.8956 53.393 48.2577 54.1383 47.7567L58.5312 44.8039C60.6728 43.3645 61.5455 40.6607 60.6533 38.2289L58.8233 33.2406C58.5128 32.3942 58.5128 31.6059 58.8233 30.7596L60.6533 25.7713C61.5453 23.3393 60.6728 20.6356 58.5312 19.1963L54.1382 16.2434C53.3929 15.7425 52.9326 15.1047 52.6896 14.2364L51.2576 9.1178C50.5596 6.62247 48.2722 4.94996 45.7021 5.05423L40.4241 5.26491C39.5292 5.30004 38.7839 5.05711 38.0804 4.49823L33.9336 1.20422C31.912 -0.401405 29.088 -0.401405 27.0664 1.20422L22.9194 4.49798C22.2158 5.05686 21.4716 5.30041 20.5757 5.26466L15.2978 5.05398C12.727 4.95233 10.4403 6.62222 9.74218 9.11755L8.31012 14.2361C8.06707 15.1044 7.60682 15.7422 6.86154 16.2432L2.46863 19.196C0.32719 20.6355 -0.545382 23.3392 0.346688 25.7712L2.17666 30.7596C2.48713 31.6059 2.48713 32.3942 2.17666 33.2405L0.346688 38.2288ZM4.04065 33.9335C4.51134 32.6505 4.51134 31.3494 4.04065 30.0664L2.21068 25.0781C1.62934 23.4931 2.17641 21.798 3.5722 20.8598L7.96524 17.907C9.09501 17.1474 9.85469 16.0949 10.2229 14.7785L11.655 9.65992C12.11 8.03367 13.5412 6.98668 15.2193 7.05294L20.4972 7.26362C21.8544 7.31813 23.0837 6.91566 24.1504 6.06859L28.2974 2.77495C29.615 1.72859 31.3855 1.72859 32.7031 2.77495L36.8502 6.06859C37.9167 6.91566 39.1462 7.31826 40.5034 7.26362L45.7813 7.05294C47.459 6.98655 48.8907 8.0338 49.3456 9.66005L50.7775 14.7786C51.1458 16.095 51.9054 17.1475 53.0352 17.9071L57.4282 20.8599C58.8239 21.798 59.3711 23.4933 58.7896 25.0782L56.9597 30.0665C56.489 31.3496 56.489 32.6506 56.9597 33.9337L58.7896 38.9219C59.371 40.5069 58.8239 42.2021 57.4281 43.1402L53.0351 46.093C51.9053 46.8525 51.1457 47.9051 50.7774 49.2215L49.3455 54.3399C48.8904 55.9663 47.4574 57.0116 45.7812 56.9471L40.5033 56.7364C39.1448 56.6813 37.9167 57.0842 36.85 57.9313L32.703 61.2251C31.3855 62.2715 29.615 62.2716 28.2973 61.225L24.1503 57.9315C23.1471 57.1347 22.0002 56.7316 20.7379 56.7316C20.658 56.7316 20.5778 56.7332 20.4971 56.7364L15.219 56.9471C13.5423 57.012 12.1098 55.9664 11.6549 54.3399L10.2229 49.2215C9.85469 47.9051 9.09501 46.8525 7.96524 46.093L3.5722 43.1402C2.17653 42.2021 1.62934 40.5068 2.21081 38.9219L4.04065 33.9335Z"/>
    </mask>
    <path d="M21.523 30.4346C22.9056 30.4346 24.2888 29.9046 25.3413 28.8449C26.3613 27.8181 26.9229 26.4529 26.9229 25.0009C26.9229 23.5488 26.3613 22.1836 25.3413 21.1568C23.2359 19.0372 19.8102 19.0372 17.7047 21.1568C15.5993 23.2764 15.5993 26.7252 17.7047 28.8449C18.7576 29.9049 20.1401 30.4346 21.523 30.4346ZM19.1098 22.5713C19.7751 21.9015 20.6492 21.5666 21.5231 21.5666C22.3971 21.5666 23.271 21.9015 23.9364 22.5713C24.581 23.2202 24.9361 24.083 24.9361 25.0009C24.9361 25.9187 24.581 26.7814 23.9364 27.4304C22.6057 28.7701 20.4407 28.7701 19.11 27.4304C17.7791 26.0907 17.7791 23.911 19.1098 22.5713ZM35.6589 35.1551C34.639 36.1818 34.0773 37.547 34.0773 38.9991C34.0773 40.4512 34.6389 41.8164 35.6589 42.8432C36.7117 43.9031 38.0942 44.433 39.4772 44.4328C40.8598 44.4327 42.2429 43.9029 43.2955 42.8432C44.3154 41.8164 44.877 40.4512 44.877 38.9991C44.877 37.547 44.3153 36.1818 43.2955 35.1552C42.2756 34.1283 40.9195 33.5628 39.4772 33.5628C38.0347 33.5628 36.6786 34.1283 35.6589 35.1551ZM42.89 38.9991C42.89 39.9169 42.5349 40.7796 41.8904 41.4286C40.5598 42.7685 38.3946 42.7682 37.0639 41.4286C36.4193 40.7797 36.0643 39.9169 36.0643 38.9991C36.0643 38.0814 36.4193 37.2186 37.0639 36.5697C37.0639 36.5697 37.0639 36.5697 37.0639 36.5695C37.7084 35.9206 38.5655 35.5632 39.4771 35.5632C40.3886 35.5632 41.2457 35.9205 41.8904 36.5697C42.5349 37.2186 42.89 38.0815 42.89 38.9991ZM18.4388 42.7279L41.1561 19.8575C41.5441 19.4669 42.1731 19.4669 42.5611 19.8575C42.9492 20.2481 42.9492 20.8814 42.5611 21.272L19.8439 44.1425C19.65 44.3378 19.3957 44.4355 19.1414 44.4355C18.887 44.4355 18.6328 44.3378 18.4388 44.1425C18.0509 43.7518 18.0509 43.1187 18.4388 42.7279ZM0.346688 38.2288C-0.545382 40.6606 0.32719 43.3643 2.46875 44.8038L6.86167 47.7566C7.60694 48.2576 8.06732 48.8954 8.31024 49.7638L9.74218 54.8823C10.4403 57.3777 12.7228 59.0467 15.2978 58.9461L20.5757 58.7354C21.4716 58.6998 22.2159 58.9432 22.9194 59.5021L27.0664 62.7956C28.0774 63.5987 29.2885 64.0001 30.5 64C31.7112 63.9999 32.9228 63.5984 33.9335 62.7957L38.0805 59.5021C38.7842 58.9432 39.529 58.6985 40.4243 58.7354L45.7022 58.9461C48.2756 59.0476 50.5597 57.3776 51.2578 54.8824L52.6897 49.764C52.9327 48.8956 53.393 48.2577 54.1383 47.7567L58.5312 44.8039C60.6728 43.3645 61.5455 40.6607 60.6533 38.2289L58.8233 33.2406C58.5128 32.3942 58.5128 31.6059 58.8233 30.7596L60.6533 25.7713C61.5453 23.3393 60.6728 20.6356 58.5312 19.1963L54.1382 16.2434C53.3929 15.7425 52.9326 15.1047 52.6896 14.2364L51.2576 9.1178C50.5596 6.62247 48.2722 4.94996 45.7021 5.05423L40.4241 5.26491C39.5292 5.30004 38.7839 5.05711 38.0804 4.49823L33.9336 1.20422C31.912 -0.401405 29.088 -0.401405 27.0664 1.20422L22.9194 4.49798C22.2158 5.05686 21.4716 5.30041 20.5757 5.26466L15.2978 5.05398C12.727 4.95233 10.4403 6.62222 9.74218 9.11755L8.31012 14.2361C8.06707 15.1044 7.60682 15.7422 6.86154 16.2432L2.46863 19.196C0.32719 20.6355 -0.545382 23.3392 0.346688 25.7712L2.17666 30.7596C2.48713 31.6059 2.48713 32.3942 2.17666 33.2405L0.346688 38.2288ZM4.04065 33.9335C4.51134 32.6505 4.51134 31.3494 4.04065 30.0664L2.21068 25.0781C1.62934 23.4931 2.17641 21.798 3.5722 20.8598L7.96524 17.907C9.09501 17.1474 9.85469 16.0949 10.2229 14.7785L11.655 9.65992C12.11 8.03367 13.5412 6.98668 15.2193 7.05294L20.4972 7.26362C21.8544 7.31813 23.0837 6.91566 24.1504 6.06859L28.2974 2.77495C29.615 1.72859 31.3855 1.72859 32.7031 2.77495L36.8502 6.06859C37.9167 6.91566 39.1462 7.31826 40.5034 7.26362L45.7813 7.05294C47.459 6.98655 48.8907 8.0338 49.3456 9.66005L50.7775 14.7786C51.1458 16.095 51.9054 17.1475 53.0352 17.9071L57.4282 20.8599C58.8239 21.798 59.3711 23.4933 58.7896 25.0782L56.9597 30.0665C56.489 31.3496 56.489 32.6506 56.9597 33.9337L58.7896 38.9219C59.371 40.5069 58.8239 42.2021 57.4281 43.1402L53.0351 46.093C51.9053 46.8525 51.1457 47.9051 50.7774 49.2215L49.3455 54.3399C48.8904 55.9663 47.4574 57.0116 45.7812 56.9471L40.5033 56.7364C39.1448 56.6813 37.9167 57.0842 36.85 57.9313L32.703 61.2251C31.3855 62.2715 29.615 62.2716 28.2973 61.225L24.1503 57.9315C23.1471 57.1347 22.0002 56.7316 20.7379 56.7316C20.658 56.7316 20.5778 56.7332 20.4971 56.7364L15.219 56.9471C13.5423 57.012 12.1098 55.9664 11.6549 54.3399L10.2229 49.2215C9.85469 47.9051 9.09501 46.8525 7.96524 46.093L3.5722 43.1402C2.17653 42.2021 1.62934 40.5068 2.21081 38.9219L4.04065 33.9335Z"
          stroke="#A3A1A1" stroke-width="1.4" mask="url(#path-1-inside-1_664_2541)"/>
</svg>
