<svg width="53" height="54" viewBox="0 0 53 54" fill="none" xmlns="http://www.w3.org/2000/svg">
    <path d="M3.25728 1.59082H1V8.17318H3.25728C3.69611 8.17318 4.04928 8.52919 4.04928 8.98367C4.04928 9.41088 3.69611 9.79416 3.25728 9.79416H1V16.9234H3.25728C3.69611 16.9234 4.04928 17.2794 4.04928 17.7339C4.04928 18.1853 3.69611 18.5444 3.25728 18.5444H1V25.6964H3.25728C3.69611 25.6964 4.04928 26.0554 4.04928 26.5068C4.04928 26.9371 3.69611 27.2961 3.25728 27.2961H1V34.4481H3.25728C3.69611 34.4481 4.04928 34.8071 4.04928 35.2586C4.04928 35.6888 3.69611 36.0691 3.25728 36.0691H1V43.1983H3.25728C3.69611 43.1983 4.04928 43.5816 4.04928 44.0088C4.04928 44.4633 3.69611 44.8193 3.25728 44.8193H1V51.4017H3.25728H51.2041C51.643 51.4017 51.9961 51.7592 51.9961 52.1894C51.9961 52.6409 51.643 52.9999 51.2041 52.9999"
          stroke="#A3A1A1" stroke-width="0.566702"/>
    <path d="M51.5332 22.11L51.533 22.1103L51.5436 22.1196C51.7554 22.304 51.7715 22.6337 51.5838 22.8323L51.5837 22.8322L51.5779 22.8388L44.8 30.474L44.7999 30.4739L44.7936 30.4816C44.7002 30.5945 44.5718 30.6515 44.4258 30.6515H35.9197C35.8092 30.6515 35.706 30.6163 35.6027 30.5333C35.6023 30.533 35.602 30.5327 35.6016 30.5325L26.9324 23.3989L26.6983 23.2063L26.5219 23.4529L23.7266 27.3614L23.7264 27.3613L23.7207 27.3699C23.618 27.5252 23.4627 27.6065 23.3108 27.6065H18.0509H17.8374L17.7785 27.8117C17.4501 28.9566 16.4125 29.8031 15.1954 29.8031C14.8738 29.8031 14.564 29.7354 14.2945 29.6267L14.0875 29.5433L13.9579 29.7249L9.3742 36.1482L9.37365 36.149C9.27735 36.2849 9.12372 36.3628 8.95862 36.3628C8.86685 36.3628 8.76588 36.3357 8.67061 36.2589L8.66321 36.2529L8.65542 36.2475C8.44099 36.0971 8.3769 35.7753 8.5438 35.5371C8.54394 35.5369 8.54409 35.5367 8.54423 35.5365L13.1118 29.1299L13.2356 28.9563L13.103 28.7893C12.7175 28.3035 12.4881 27.7282 12.4881 27.0718C12.4881 25.5597 13.7009 24.3404 15.1954 24.3404C16.4262 24.3404 17.4647 25.2008 17.7935 26.347L17.8524 26.5522H18.0659H22.9051H23.051L23.1357 26.4334L25.7507 22.7673L25.9041 22.5523L25.7003 22.3842L21.4773 18.8998L21.3988 18.835H21.297H8.95862C8.67793 18.835 8.44546 18.597 8.44546 18.3306C8.44546 18.027 8.68484 17.7959 8.95862 17.7959H21.5825C21.6974 17.7959 21.8179 17.834 21.922 17.9051L26.2712 21.5031L26.5058 21.6972L26.6826 21.4491L29.1322 18.0103L29.1326 18.0097C29.2273 17.8761 29.3946 17.7959 29.5476 17.7959H35.3486H35.5646L35.6219 17.5877C35.9351 16.4482 36.9692 15.6144 38.189 15.6144C38.643 15.6144 39.045 15.711 39.4031 15.9116L39.5923 16.0175L39.744 15.8626L42.1035 13.4539L42.3294 13.2232L42.0714 13.0292L38.2241 10.1357L38.1484 10.0788H38.0538H25.7003H25.5258L25.4473 10.2347C24.9964 11.1299 24.0988 11.73 23.0553 11.73C21.5777 11.73 20.363 10.4975 20.363 8.99867C20.363 8.53321 20.4853 8.07985 20.704 7.68038L20.8005 7.50406L20.6659 7.35471L15.3308 1.43134L15.2464 1.33762H15.1203H8.95862C8.69148 1.33762 8.44546 1.08309 8.44546 0.802911C8.44546 0.506275 8.67793 0.283351 8.95862 0.283351H15.481C15.6285 0.283351 15.7615 0.341953 15.8563 0.446904C15.8564 0.447037 15.8566 0.44717 15.8567 0.447303L21.3563 6.59703L21.5114 6.77044L21.7117 6.65209C22.111 6.4161 22.5728 6.26732 23.0553 6.26732C24.4809 6.26732 25.6258 7.36137 25.7487 8.76584L25.7713 9.02449H26.031H38.3092C38.4092 9.02449 38.517 9.06664 38.6263 9.13905L42.873 12.3308L43.0714 12.4799L43.2454 12.3028L50.8287 4.58286C51.0374 4.39762 51.3709 4.40371 51.5588 4.57806C51.7685 4.80453 51.7617 5.1289 51.5705 5.33311C51.5699 5.33371 51.5694 5.3343 51.5688 5.3349L44.1485 12.8904L43.9214 13.1218L44.181 13.3159L46.9162 15.3611L46.9917 15.4175H47.0859H51.2037C51.4809 15.4175 51.7168 15.6521 51.7168 15.937C51.7168 16.215 51.4879 16.4415 51.2037 16.4415H46.8154C46.6906 16.4415 46.5768 16.4051 46.5204 16.3624L46.5193 16.3617L43.3633 13.9984L43.1654 13.8501L42.9917 14.0262L40.5271 16.5259L40.3741 16.6809L40.4847 16.8686C40.7472 17.3142 40.8963 17.8104 40.8963 18.3306C40.8963 19.8455 39.6958 21.0771 38.189 21.0771C36.9591 21.0771 35.9222 20.2182 35.6073 19.0449L35.5509 18.835H35.3336H29.9684H29.8227L29.7379 18.9536L27.4536 22.1501L27.2995 22.3657L27.5043 22.5338L36.0254 29.5328L36.1038 29.5972H36.2053H44.0802H44.2075L44.2921 29.502L50.8264 22.1429C51.0196 21.9407 51.3328 21.9172 51.5332 22.11Z"
          stroke="#A3A1A1" stroke-width="0.566702"/>
    <path d="M20.6388 36.236V47.4162C20.6388 47.6745 20.4292 47.8903 20.1707 47.8903H14.7905C14.5433 47.8903 14.3224 47.6708 14.3224 47.4162V36.236C14.3224 35.9698 14.5397 35.7619 14.7905 35.7619H20.1707C20.4329 35.7619 20.6388 35.9661 20.6388 36.236Z"
          stroke="#A3A1A1" stroke-width="0.566702"/>
    <path d="M31.1583 31.692V47.417C31.1583 47.6754 30.9487 47.8911 30.6902 47.8911H25.31C25.0629 47.8911 24.8419 47.6717 24.8419 47.417V31.692C24.8419 31.4259 25.0592 31.2179 25.31 31.2179H30.6902C30.9524 31.2179 31.1583 31.4222 31.1583 31.692Z"
          stroke="#A3A1A1" stroke-width="0.566702"/>
    <path d="M41.6784 36.237V47.4171C41.6784 47.6755 41.4689 47.8912 41.2103 47.8912H35.8452C35.5867 47.8912 35.3771 47.6755 35.3771 47.4171V36.237C35.3771 35.9671 35.583 35.7628 35.8452 35.7628H41.2103C41.4725 35.7628 41.6784 35.9671 41.6784 36.237Z"
          stroke="#A3A1A1" stroke-width="0.566702"/>
</svg>
