<svg width="59" height="57" viewBox="0 0 59 57" fill="none" xmlns="http://www.w3.org/2000/svg">
    <path d="M9.4814 36.4682L9.48145 36.4681C9.85419 36.11 10.4654 36.1099 10.8386 36.4682C11.2021 36.8174 11.2022 37.3769 10.8385 37.7266L2.98534 45.2693C2.61261 45.6273 2.0013 45.6274 1.62828 45.2694C1.26454 44.9198 1.26459 44.3604 1.62819 44.011C1.6282 44.011 1.62822 44.011 1.62823 44.011L9.4814 36.4682ZM21.8302 47.0254L21.8302 47.0255C22.1941 47.3748 22.1942 47.9341 21.8302 48.2837L22.1106 48.5756L21.8302 48.2837L13.9774 55.8265C13.6042 56.1848 12.9931 56.1847 12.6202 55.8265L12.6201 55.8265C12.2563 55.4771 12.2562 54.9179 12.6202 54.5683L12.3398 54.2763L12.6202 54.5683L20.473 47.0255C20.8462 46.6672 21.4573 46.6672 21.8302 47.0254ZM3.16563 54.3499L3.16558 54.3498C2.80197 54.0005 2.80186 53.4411 3.16553 53.0915C3.16556 53.0915 3.1656 53.0914 3.16563 53.0914L14.9771 41.7468C15.3502 41.3884 15.9612 41.3885 16.3342 41.7468L16.3343 41.7469C16.6981 42.0962 16.6982 42.6555 16.3342 43.0051L4.52268 54.3498L4.52264 54.3498C4.14965 54.7082 3.53838 54.7081 3.16563 54.3499ZM58.2205 1.51087C58.6611 6.3331 58.4156 10.8151 57.5537 14.8986L44.2769 2.14627C48.5309 1.32034 53.199 1.08632 58.2205 1.51087ZM32.0769 40.0706L18.0433 26.5916C20.8127 14.9271 28.7398 6.61363 40.2932 3.12718L56.5305 18.7227C52.8984 29.7985 44.2431 37.4132 32.0769 40.0706ZM42.5693 10.2202C38.9428 10.2202 35.9748 13.0478 35.9748 16.5698C35.9748 20.0917 38.9428 22.9194 42.5693 22.9194C46.1955 22.9194 49.1635 20.0917 49.1635 16.5698C49.1635 13.0478 46.1955 10.2202 42.5693 10.2202ZM32.9052 43.3902C37.744 42.3268 42.3024 40.4856 46.3275 37.7966C46.2971 44.9216 41.4571 50.1375 35.334 51.7131L35.2528 51.7339L32.9052 43.3902ZM5.94352 23.5134C7.57411 17.6677 12.9779 13.0085 20.3998 12.9588C17.6198 16.8166 15.7147 21.1824 14.6132 25.8166L5.92981 23.5625L5.94352 23.5134ZM16.9209 30.3208L28.2263 41.1792L25.1701 42.5266L15.5184 33.2562L16.9209 30.3208Z"
          stroke="#A3A1A1" stroke-width="0.809574"/>
</svg>
