<svg width="141" height="41" viewBox="0 0 141 41" fill="none" xmlns="http://www.w3.org/2000/svg">
    <path d="M78.691 17.8137H69.9622L68.9042 20.1714C68.6 20.7858 68.4203 21.4533 68.3752 22.1362C68.3752 22.7911 68.7719 23.315 69.301 23.577C69.5655 23.7079 70.359 23.9699 71.6815 23.9699V24.6248H63.6141V23.9699C64.4076 23.9699 65.2011 23.577 65.7301 22.922C66.2591 22.3981 67.0527 21.0883 67.8462 19.2545L76.5749 0.130983H76.9717L85.7004 19.7785C86.196 21.0686 86.9118 22.2649 87.8165 23.315C88.2132 23.7079 88.7423 23.9699 89.5358 23.9699V24.6248H77.7652V23.9699H78.2942C79.22 23.9699 79.8813 23.9699 80.278 23.577C80.5425 23.446 80.6748 23.184 80.6748 22.7911L80.5425 22.1362L80.0135 20.8263L78.691 17.8137ZM78.0297 16.5039L74.4589 8.25194L70.7558 16.5039H77.8975H78.0297ZM106.597 11.6575C108.977 12.1814 110.564 12.8363 111.622 13.6222C112.273 14.1371 112.792 14.797 113.137 15.5481C113.482 16.2993 113.642 17.1204 113.606 17.9447C113.606 19.7785 112.945 21.2193 111.358 22.5291C109.024 24.0883 106.23 24.8263 103.422 24.6248H90.7261V23.9699C91.9164 23.9699 92.7099 23.9699 93.1066 23.7079C93.5034 23.446 93.7679 23.184 93.9002 22.7911C94.0324 22.5291 94.1647 21.7432 94.1647 20.3024V4.32244C94.1647 3.01261 94.1647 2.22671 93.9002 1.83376C93.7679 1.5718 93.5034 1.17885 93.1066 1.04787C92.5776 0.785899 91.7841 0.785899 90.7261 0.785899V0H102.629C105.538 0 107.522 0.261966 108.713 0.785899C109.819 1.23956 110.77 2.00008 111.45 2.97601C112.13 3.95195 112.512 5.10176 112.548 6.28719C112.548 7.46604 112.019 8.5139 111.225 9.43079C109.926 10.5914 108.321 11.3634 106.597 11.6575ZM99.9838 12.5744V21.3503C99.9838 22.0052 99.9838 22.5291 100.381 22.7911C100.777 23.184 101.306 23.315 101.835 23.315C102.893 23.315 103.687 23.053 104.48 22.6601C105.406 22.2671 105.935 21.6122 106.332 20.8263C106.861 20.0404 106.993 19.1235 106.993 18.0757C107.04 16.9897 106.812 15.9094 106.332 14.9321C105.876 14.0855 105.124 13.4332 104.216 13.0983C102.849 12.6727 101.415 12.4952 99.9838 12.5744ZM99.9838 11.1336C101.703 11.1336 103.026 11.0026 103.819 10.6096C104.613 10.2167 105.142 9.56177 105.671 8.90685C106.2 8.25194 106.332 7.33506 106.332 6.28719C106.37 5.32761 106.142 4.37608 105.671 3.53654C105.274 2.88163 104.613 2.22671 103.819 1.96475C103.026 1.44081 101.703 1.44081 99.8516 1.44081V11.1336H99.9838ZM131.592 11.6575C133.973 12.1814 135.56 12.8363 136.618 13.6222C137.269 14.1371 137.788 14.797 138.133 15.5481C138.478 16.2993 138.638 17.1204 138.602 17.9447C138.602 19.7785 137.941 21.2193 136.354 22.5291C134.02 24.0883 131.226 24.8263 128.418 24.6248H115.722V23.9699C116.912 23.9699 117.706 23.9699 118.103 23.7079C118.499 23.446 118.764 23.184 118.896 22.7911C119.161 22.5291 119.161 21.7432 119.161 20.3024V4.32244C119.161 3.01261 119.161 2.22671 118.896 1.83376C118.896 1.5718 118.499 1.17885 118.103 1.04787C117.706 0.785899 116.78 0.785899 115.722 0.785899V0H127.625C130.534 0 132.518 0.261966 133.709 0.785899C134.899 1.30983 135.825 2.09573 136.486 3.01261C137.147 4.06048 137.544 5.10834 137.544 6.28719C137.544 7.46604 137.147 8.5139 136.221 9.43079C135.296 10.3477 133.841 11.1336 131.592 11.6575ZM124.98 12.5744V21.3503C124.98 22.0052 125.112 22.5291 125.377 22.7911C125.773 23.184 126.302 23.315 126.964 23.315C127.889 23.315 128.815 23.053 129.609 22.6601C130.402 22.2671 130.931 21.6122 131.46 20.8263C131.904 19.9293 132.135 18.9436 132.135 17.9447C132.135 16.9458 131.904 15.9601 131.46 15.0631C130.999 14.1421 130.192 13.4368 129.212 13.0983C127.845 12.6727 126.411 12.4952 124.98 12.5744ZM124.98 11.1336C126.699 11.1336 128.022 11.0026 128.815 10.6096C129.609 10.2167 130.27 9.56177 130.667 8.90685C131.196 8.25194 131.328 7.33506 131.328 6.28719C131.328 5.10834 131.196 4.19146 130.667 3.53654C130.27 2.88163 129.609 2.22671 128.815 1.96475C128.154 1.44081 126.831 1.44081 124.848 1.44081V11.1336H124.98ZM60.969 12.3124V12.7054C57.7449 11.5728 54.3373 11.04 50.9177 11.1336C38.0891 11.1336 24.2024 22.2671 18.3833 23.577C13.6221 22.7911 9.52227 21.4812 6.34818 19.7785C8.33199 20.4334 11.1093 20.9573 13.3576 20.9573C25.3927 20.9573 37.1633 13.0983 43.776 9.56177C49.8597 6.28719 53.2983 5.63228 57.3981 6.54916C59.6464 8.25194 60.969 10.2167 60.969 12.3124ZM4.23212 18.5996C1.58705 16.7658 0 14.6701 0 12.3124C0 5.50129 13.6221 0 30.4184 0C40.9987 0 50.1242 2.09573 55.5466 5.37031C54.0918 4.84638 51.9757 4.58441 48.9339 4.58441C38.6181 4.58441 26.054 12.0504 20.1026 14.8011C14.2834 17.4208 8.19973 19.7785 4.23212 18.5996ZM60.8367 12.9673C60.0432 19.5165 46.6856 24.6248 30.4184 24.6248H29.0958C46.5533 15.325 52.637 12.3124 60.8367 12.9673ZM7.53846 37.7231H3.96761L3.30634 39.164L3.04184 39.9499C3.04184 40.0808 3.04184 40.2118 3.30634 40.3428L3.57085 40.4738H4.09987V40.8667H1.19028V40.6048L1.98381 40.3428L2.77733 39.033L6.08367 31.305H6.21593L9.52227 39.033L10.1835 40.3428C10.4479 40.5422 10.7784 40.6358 11.1093 40.6048V40.8667H7.40621V40.6048H7.93522L8.19973 40.3428L8.33199 39.9499C8.33199 39.8189 8.33199 39.4259 8.06748 39.033L7.53846 37.7231ZM7.40621 37.1992L5.81916 33.4007L4.09987 37.1992H7.40621ZM20.7638 40.7358H18.3833L15.2092 36.4133H14.1511V39.164C14.1511 39.6879 14.1511 40.0808 14.4157 40.2118C14.5479 40.4738 14.8124 40.6048 15.2092 40.6048H15.4737V40.8667H11.5061V40.6048H11.9028C12.2996 40.6048 12.5641 40.4738 12.6964 40.2118L12.8286 39.164V33.1387L12.6964 32.0909L11.9028 31.8289H11.5061V31.5669H14.9447L17.193 31.6979L18.3833 32.4838C18.6478 32.8768 18.78 33.4007 18.78 33.9246C18.78 34.4486 18.6478 34.9725 18.251 35.3654C17.8543 35.8894 17.3252 36.1513 16.5317 36.2823L18.3833 38.902L19.7058 40.2118L20.7638 40.6048V40.8667V40.7358ZM14.1511 36.0204H14.5479C15.4737 36.0204 16.135 35.8894 16.5317 35.4964C17.0607 35.1035 17.3252 34.5795 17.3252 34.0556C17.3252 33.4007 17.0607 33.0077 16.664 32.6148C16.3995 32.2219 15.8704 32.0909 15.3414 32.0909H14.1511V36.0204ZM26.4507 40.7358L22.8799 33.0078V39.164L23.0121 40.2118L23.8057 40.6048H24.2024V40.8667H20.8961V40.6048H21.2929C21.6896 40.6048 21.9541 40.4738 22.0864 40.2118L22.2186 39.8189V32.2219L21.8219 31.9599L20.8961 31.8289V31.5669H23.5412L26.9798 38.771L30.2861 31.5669H32.9312V31.8289H32.6667C32.2699 31.8289 32.0054 31.8289 31.7409 32.0909V40.2118C32.0054 40.4738 32.2699 40.6048 32.6667 40.6048H32.9312V40.8667H28.9636V40.6048H29.3603C29.7571 40.6048 30.0216 40.4738 30.1539 40.2118V39.8189L30.2861 39.164V33.0078L26.7153 40.8667H26.3185L26.4507 40.7358ZM39.8084 36.0204L41.1309 36.6753C41.6599 37.1992 41.9244 37.7231 41.9244 38.2471C41.9244 38.771 41.7922 39.164 41.3954 39.5569C41.1309 40.0808 40.7341 40.3428 40.2051 40.4738C39.6761 40.7358 38.8826 40.8667 37.9568 40.8667H33.4602V40.6048H33.857C34.2537 40.6048 34.5182 40.4738 34.6505 40.2118L34.7827 39.164V33.1387L34.6505 32.0909L33.857 31.8289H33.4602V31.5669H37.4278L39.2794 31.6979C40.0729 31.8289 40.6019 32.2219 40.8664 32.6148C41.1861 32.9714 41.3734 33.4253 41.3975 33.9016C41.4215 34.3779 41.2808 34.8481 40.9987 35.2345C40.6464 35.6207 40.186 35.8943 39.6761 36.0204H39.8084ZM36.1053 35.7584H37.4278L39.0149 35.6274L39.8084 34.9725L40.0729 33.9246C40.0729 33.4007 39.8084 33.0077 39.4116 32.6148C38.8826 32.2219 38.2213 31.9599 37.4278 31.9599L36.1053 32.0909V35.7584ZM36.1053 40.0808L37.6923 40.3428C38.6181 40.3428 39.1471 40.0808 39.6761 39.8189C40.0729 39.4259 40.3374 38.902 40.3374 38.509C40.3374 37.9851 40.2051 37.7231 39.9406 37.3302C39.8084 37.0682 39.5439 36.8063 39.0149 36.5443L37.4278 36.2823H36.6343C36.4586 36.2617 36.281 36.2617 36.1053 36.2823V40.2118V40.0808ZM49.4629 31.8289V31.5669H52.7692V31.8289H52.3725C51.9757 31.8289 51.7112 31.8289 51.579 32.2219L51.3145 33.2697V36.8063C51.3145 37.8541 51.3145 38.509 51.0499 39.033C50.9177 39.5569 50.5209 39.9499 49.9919 40.3428C49.3115 40.7344 48.5289 40.9168 47.7436 40.8667C46.6856 40.8667 46.0243 40.7358 45.4953 40.3428C44.9663 40.0808 44.5695 39.5569 44.305 39.033C44.0969 38.2649 44.0077 37.4699 44.0405 36.6753V33.0078L43.9082 31.9599C43.776 31.6979 43.5115 31.6979 43.1147 31.6979H42.718V31.5669H46.6856V31.8289H46.4211C46.0243 31.8289 45.7598 31.8289 45.6275 32.2219C45.4953 32.2219 45.363 32.6148 45.363 33.1387V37.1992C45.3701 37.6387 45.4143 38.0769 45.4953 38.509C45.4953 38.902 45.7598 39.2949 45.892 39.5569C46.0243 39.8189 46.2888 40.0808 46.6856 40.2118C47.0563 40.3898 47.4639 40.4795 47.8759 40.4738C48.4049 40.4738 49.0661 40.3428 49.4629 40.0808C49.9919 39.8189 50.2564 39.4259 50.5209 39.033L50.7854 36.9372V33.1387C50.7854 32.6148 50.7854 32.2218 50.5209 32.0909L49.7274 31.8289H49.4629ZM59.3819 31.305V34.5795H59.1174L58.8529 33.6627C58.8529 33.5317 58.8529 33.2697 58.5884 33.0078C58.4562 32.7458 58.1916 32.4838 57.6626 32.2219L56.4724 31.8289C56.0756 31.8289 55.6788 31.9599 55.2821 32.3528C55.0329 32.5947 54.8903 32.9242 54.8853 33.2697C54.8853 33.5317 54.8853 33.7936 55.1498 34.0556C55.4143 34.4486 56.0756 34.8415 57.1336 35.3654L58.9852 36.5443L59.6464 37.3302C59.9109 37.7231 59.9109 38.1161 59.9109 38.509C59.9109 39.164 59.6464 39.8189 59.1174 40.2118C58.5884 40.7358 57.7949 40.9977 57.0014 40.9977C56.4612 41.0002 55.9245 40.9116 55.4143 40.7358C55.1176 40.6115 54.8067 40.5236 54.4885 40.4738H54.224L54.0918 40.9977H53.8273V37.8541H54.0918L54.3563 38.771C54.3563 38.902 54.3563 39.164 54.6208 39.2949C54.7531 39.6879 55.1498 39.9499 55.5466 40.2118L56.8691 40.4738C57.3981 40.4738 57.9271 40.3428 58.1916 40.0808C58.5884 39.6879 58.7207 39.4259 58.7207 39.033L58.5884 38.2471L57.9271 37.5922C57.1246 37.0925 56.2845 36.6546 55.4143 36.2823C55.1846 36.1195 54.9639 35.9446 54.7531 35.7584L53.9595 34.8415L53.695 33.7937C53.695 33.1387 53.9595 32.4838 54.4885 32.0909C54.7458 31.8304 55.0552 31.626 55.3968 31.4907C55.7383 31.3554 56.1047 31.2921 56.4724 31.305L58.0594 31.6979C58.2318 31.7559 58.4087 31.7997 58.5884 31.8289H58.8529L59.1174 31.305H59.3819ZM65.0688 40.6048V40.8667H61.1012V40.6048H61.3657C61.7625 40.6048 62.027 40.4738 62.2915 40.2118V32.2219L62.027 31.9599C61.8217 31.8604 61.5939 31.8152 61.3657 31.8289H61.1012V31.5669H65.0688V31.8289H64.6721C64.4076 31.8289 64.1431 31.8289 63.8786 32.0909L63.7463 33.1387V40.0808L64.1431 40.3428L64.6721 40.6048H65.0688ZM65.2011 31.5669H67.8462L73.5331 38.509V33.2697C73.5331 32.6148 73.5331 32.2219 73.2686 31.9599L72.4751 31.8289H72.2105V31.5669H75.2524V31.8289C74.8556 31.8289 74.5911 31.8289 74.3266 32.0909V40.9977H73.9298L67.8462 33.5317V39.164L67.9784 40.2118C68.1107 40.4738 68.5074 40.6048 68.7719 40.6048H69.1687V40.8667H65.8624V40.6048H66.2591C66.6559 40.6048 66.9204 40.4738 67.0526 40.2118V39.8189L67.1849 39.164V32.8768L66.6559 32.2219C66.4484 32.1054 66.226 32.0173 65.9946 31.9599H65.3334V31.5669H65.2011ZM78.5587 32.0909V35.7584H80.6748L81.7328 35.4964L81.9973 34.9725V34.3176H82.3941V37.5922H82.1296L81.8651 36.6753L81.4683 36.2823H78.5587V39.9499L78.8232 40.2118H82.1296L82.7908 39.8189L83.5844 38.509H83.8489L83.1876 40.7358H76.0459V40.4738H76.3104C76.5749 40.4738 76.8394 40.4738 76.9717 40.2118C77.1039 40.2118 77.2362 40.2118 77.2362 39.9499L77.3684 39.033V33.0078L77.2362 31.9599C76.9717 31.6979 76.7072 31.6979 76.3104 31.6979H76.0459V31.5669H83.1876L83.3199 33.5317H83.0554L82.7908 32.6148L82.2618 32.0909H78.691H78.5587ZM90.7261 31.305V34.5795H90.4616L90.3293 33.6627L90.0648 33.0078L89.139 32.2219C88.7423 31.9599 88.3455 31.8289 87.8165 31.8289C87.4197 31.8289 87.023 31.9599 86.6262 32.3528C86.377 32.5947 86.2344 32.9242 86.2294 33.2697C86.2294 33.5317 86.2294 33.7936 86.4939 34.0556C86.7585 34.4486 87.4197 34.8415 88.61 35.3654L90.3293 36.5443L91.1228 37.3302L91.3873 38.509C91.3873 39.164 90.9906 39.8189 90.4616 40.2118C89.9325 40.7358 89.139 40.9977 88.3455 40.9977C87.8053 41.0002 87.2686 40.9116 86.7584 40.7358C86.4617 40.6115 86.1509 40.5236 85.8327 40.4738H85.5682V40.9977H85.1714V37.8541H85.4359L85.7004 38.771L85.9649 39.2949C86.0972 39.6879 86.4939 39.9499 86.8907 40.2118L88.2132 40.4738C88.7423 40.4738 89.2713 40.3428 89.5358 40.0808C89.9325 39.6879 90.0648 39.4259 90.0648 39.033L89.9325 38.2471L89.2713 37.5922C88.5113 37.0983 87.7156 36.6605 86.8907 36.2823C86.6158 36.1236 86.3508 35.9486 86.0972 35.7584L85.4359 34.8415C85.1714 34.4486 85.1714 34.1866 85.1714 33.7937C85.1714 33.1387 85.4359 32.4838 85.8327 32.0909C86.09 31.8304 86.3993 31.626 86.7409 31.4907C87.0825 31.3554 87.4488 31.2921 87.8165 31.305L89.4035 31.6979C89.5761 31.7554 89.753 31.7992 89.9325 31.8289H90.3293V31.305H90.7261ZM98.529 31.305V34.5795H98.2645L98.1323 33.6627L97.8678 33.0078L96.942 32.2219C96.5452 31.9599 96.1485 31.8289 95.6195 31.8289C95.2227 31.8289 94.8259 31.9599 94.5614 32.3528C94.4138 32.4609 94.2906 32.5983 94.1995 32.7561C94.1084 32.914 94.0515 33.0889 94.0324 33.2697L94.4292 34.0556C94.6937 34.4486 95.3549 34.8415 96.413 35.3654L98.1323 36.5443L98.9258 37.3302L99.1903 38.509C99.1903 39.164 98.9258 39.8189 98.3968 40.2118C97.8678 40.7358 97.0742 40.9977 96.2807 40.9977C95.6962 41.0157 95.1134 40.9269 94.5614 40.7358C94.307 40.621 94.041 40.5332 93.7679 40.4738H93.5034L93.3711 40.9977H93.1066V37.8541H93.3711L93.5034 38.771L93.7679 39.2949L94.6937 40.2118L96.0162 40.4738C96.6775 40.4738 97.0742 40.3428 97.3387 40.0808C97.7355 39.6879 98 39.4259 98 39.033C98 38.771 98 38.509 97.7355 38.2471L97.2065 37.5922C96.404 37.0925 95.5639 36.6546 94.6937 36.2823C94.464 36.1195 94.2433 35.9446 94.0324 35.7584L93.2389 34.8415L92.9744 33.7937C92.9744 33.1387 93.2389 32.4838 93.7679 32.0909C94.0252 31.8304 94.3345 31.626 94.6761 31.4907C95.0177 31.3554 95.384 31.2921 95.7517 31.305L97.3387 31.6979C97.5111 31.7559 97.6881 31.7997 97.8678 31.8289H98.1323L98.2645 31.305H98.529ZM106.464 36.0204L107.919 36.6753C108.316 37.1992 108.58 37.7231 108.58 38.2471C108.58 38.771 108.448 39.164 108.184 39.5569C107.787 40.0808 107.39 40.3428 106.861 40.4738C106.464 40.7358 105.538 40.8667 104.613 40.8667H100.116V40.6048H100.513C100.91 40.6048 101.174 40.4738 101.306 40.2118L101.571 39.164V33.1387C101.571 32.6148 101.571 32.2218 101.306 32.0909L100.513 31.8289H100.116V31.5669H104.348L106.2 31.6979C106.861 31.8289 107.39 32.2219 107.787 32.6148C108.087 32.9865 108.251 33.4485 108.251 33.9246C108.251 34.4008 108.087 34.8628 107.787 35.2345C107.47 35.5997 107.059 35.8716 106.597 36.0204H106.464ZM102.893 35.7584H104.216L105.538 35.6274L106.464 34.9725L106.729 33.9246C106.729 33.4007 106.464 33.0077 106.068 32.6148C105.538 32.2219 105.009 31.9599 104.084 31.9599L102.761 32.0909V35.7584H102.893ZM102.893 40.0808L104.48 40.3428C105.274 40.3428 105.803 40.0808 106.332 39.8189C106.729 39.4259 106.993 38.902 106.993 38.509C106.993 37.9851 106.993 37.7231 106.729 37.3302L105.671 36.5443L104.084 36.2823H103.29C103.158 36.2707 103.025 36.2707 102.893 36.2823V40.2118V40.0808ZM115.854 37.7231H112.151L111.622 39.164L111.358 39.9499L111.49 40.3428L111.887 40.4738H112.416V40.8667H109.506V40.6048C109.903 40.6048 110.035 40.3428 110.167 40.3428L110.961 39.033L114.267 31.305H114.532L117.838 39.033L118.499 40.3428C118.764 40.5422 119.094 40.6358 119.425 40.6048V40.8667H115.722V40.6048H116.119L116.516 40.3428L116.648 39.9499C116.648 39.8189 116.648 39.4259 116.383 39.033L115.854 37.7231ZM115.59 37.1992L114.003 33.4007L112.416 37.1992H115.59ZM119.425 31.5669H121.938L127.625 38.509V33.2697C127.625 32.6148 127.625 32.2219 127.36 31.9599L126.567 31.8289H126.302V31.5669H129.476V31.8289H129.08C128.683 31.8289 128.418 31.8289 128.286 32.0909L128.154 32.4838V40.9977H127.889L121.673 33.5317V39.164L121.806 40.2118C122.07 40.4738 122.335 40.6048 122.731 40.6048H122.996V40.8667H119.69V40.6048H120.086C120.483 40.6048 120.748 40.4738 120.88 40.2118L121.012 39.8189V32.8768L120.483 32.2219C120.276 32.1054 120.053 32.0173 119.822 31.9599H119.293V31.5669H119.425ZM133.973 35.6274L137.412 39.033C137.941 39.6879 138.47 39.9499 138.734 40.2118L140.057 40.6048V40.8667H135.56V40.6048L136.221 40.4738L136.354 40.0808V39.8189L135.825 39.2949L132.65 36.1513V40.0808L133.047 40.3428L133.709 40.6048H133.973V40.8667H130.005V40.6048H130.27C130.667 40.6048 130.931 40.4738 131.196 40.2118V32.2219L130.931 31.9599C130.726 31.8604 130.498 31.8152 130.27 31.8289H130.005V31.5669H133.973V31.8289H133.709C133.492 31.7734 133.264 31.7734 133.047 31.8289L132.783 32.2219L132.65 33.1387V36.0204L133.576 35.1035C134.899 33.9246 135.825 33.1387 136.089 32.6148L136.221 32.2219V31.9599L135.56 31.8289H135.428V31.5669H138.866V31.8289H138.337C138.073 31.8289 137.941 31.9599 137.676 32.2219C137.412 32.2219 137.147 32.4838 136.75 32.8768L135.428 34.1866L133.973 35.6274Z"
          fill="white" fill-opacity="0.66"/>
</svg>
