<svg width="150" height="51" viewBox="0 0 150 51" fill="none" xmlns="http://www.w3.org/2000/svg">
    <path d="M97.0445 13.5668H85.6786L74.4798 2.37252L63.281 13.5668H52.7842V11.8626H62.579L74.4798 0L86.3806 11.8626H97.0445V13.5668Z"
          fill="#AEAEAE"/>
    <path d="M0.203351 36.3639C1.60741 36.3305 3.04487 36.2637 4.71634 36.2637C7.7584 36.2637 9.96473 36.8317 11.4356 37.8676C13.0737 38.9703 14.0765 40.708 14.0765 43.2476C14.0765 45.8874 13.0737 47.7587 11.4691 48.9951C9.83102 50.2649 7.25696 50.8998 4.01432 50.8998C2.51 50.8998 1.44027 50.9332 0.169922 50.8998V36.3639H0.203351ZM2.57686 49.3626C3.11173 49.4295 3.84718 49.4295 4.54919 49.4295C8.92843 49.4295 11.6362 47.4914 11.6362 43.281C11.6696 39.8057 9.42987 37.7005 4.91691 37.7005C3.91404 37.7005 3.14516 37.7674 2.61029 37.8676V49.3626H2.57686Z"
          fill="#AEAEAE"/>
    <path d="M19.4917 36.3643V50.7999H17.1191V36.3643H19.4917Z" fill="#AEAEAE"/>
    <path d="M38.0761 36.3643V50.7999H35.7036V36.3643H38.0761Z" fill="#AEAEAE"/>
    <path d="M45.4652 36.3643H47.8387V46.2219C47.8387 49.8642 45.5989 51.0003 42.49 51.0003C41.6877 51.0003 40.7517 50.8667 40.2168 50.733L40.5177 49.2627C40.9522 49.3964 41.5874 49.4632 42.2894 49.4632C44.2952 49.4632 45.4652 48.7949 45.4652 46.1217V36.3643Z"
          fill="#AEAEAE"/>
    <path d="M67.3965 50.7999V36.3643H69.9037L75.2189 43.4818C76.4224 45.1192 77.4921 46.7565 78.3279 48.2603H78.3947C78.1941 46.2219 78.1273 44.4509 78.1273 42.1452V36.3643H80.3336V50.7999H77.9936L72.6114 43.5821C71.4748 42.0115 70.3383 40.3741 69.4691 38.7368H69.4022C69.5694 40.6081 69.6028 42.3457 69.6028 44.9521V50.7664H67.3965V50.7999Z"
          fill="#AEAEAE"/>
    <path d="M108.947 36.3643V50.7999H106.574V36.3643H108.947Z" fill="#AEAEAE"/>
    <path d="M97.0445 26.7318H85.6786L74.4798 15.571L63.281 26.7318H52.7842V25.061H62.579L74.4798 13.165L86.3806 25.061H97.0445V26.7318Z"
          fill="#AEAEAE"/>
    <path d="M97.0445 20.1488H85.6786L74.4798 8.95455L63.281 20.1488H52.7842V18.478H62.579L74.4798 6.58203L86.3806 18.478H97.0445V20.1488Z"
          fill="#AEAEAE"/>
    <path d="M146.021 42.6118H140.205C139.202 42.6118 138.366 41.6428 138.366 40.4732C138.366 39.2702 139.202 38.3346 140.205 38.3346H149.13V36.3965H140.205C138.032 36.3965 136.227 38.2343 136.227 40.4732C136.227 42.7121 137.998 44.5499 140.205 44.5499H146.021C147.024 44.5499 147.86 45.519 147.86 46.6885C147.86 47.8915 147.024 48.8271 146.021 48.8271H137.096V50.7653H146.021C148.194 50.7653 149.999 48.9274 149.999 46.6885C149.966 44.4497 148.194 42.6118 146.021 42.6118Z"
          fill="#AEAEAE"/>
    <path d="M25.8759 48.8952V36.3643H23.5024V48.8952V50.7999H33.1635V49.2627V48.8952H25.8759Z" fill="#AEAEAE"/>
    <path d="M115.367 48.8952V36.3643H112.993V48.8952V50.7999H122.621V49.2627V48.8952H115.367Z" fill="#AEAEAE"/>
    <path d="M127.569 48.8952V36.3643H125.195V48.8952V50.7999H134.856V49.2627V48.8952H127.569Z" fill="#AEAEAE"/>
    <path d="M100.19 36.3643V42.4459H92.1674V36.3643H89.7939V50.7664H92.1674V44.5177H100.19V50.7664H102.564V36.3643H100.19Z"
          fill="#AEAEAE"/>
    <path d="M62.2477 50.7999H64.7215L58.9048 36.3643H56.1302L52.687 44.8853L50.3135 50.7664H52.7204L54.2916 46.79H60.6431L62.2477 50.7999ZM56.5313 40.8754C56.8656 39.9732 57.1665 38.9707 57.4339 38.0685H57.5008C57.7682 38.9707 58.0356 39.9397 58.4034 40.9088L60.008 44.9187H54.8933L56.5313 40.8754Z"
          fill="#AEAEAE"/>
</svg>
