<svg width="111" height="75" viewBox="0 0 111 75" fill="none" xmlns="http://www.w3.org/2000/svg">
    <path d="M0.0883789 68.7883C0.0883789 68.7883 18.1089 73.5177 35.0232 72.2424C48.9971 71.1796 58.313 69.054 68.2112 66.9285C78.1094 64.8029 95.2857 61.8803 110.133 71.1796C110.133 71.1796 94.1212 67.4599 77.236 70.6482C60.3509 73.8365 45.7947 75.4307 33.8587 74.8993C21.9226 74.3679 7.65758 72.2424 0.0883789 68.7883Z"
          fill="#AEAEAE"/>
    <path d="M56.5664 58.1074H52.1414L54.0628 49.552C54.121 49.3395 53.9463 49.1269 53.7134 49.0738C53.4805 49.0206 53.2476 49.18 53.1894 49.3926L51.1515 58.4262C51.1224 58.5325 51.1515 58.6653 51.2389 58.7716C51.3262 58.8513 51.4427 58.931 51.5882 58.931H56.5373C56.7702 58.931 56.974 58.745 56.974 58.5325C56.974 58.3199 56.7993 58.1074 56.5664 58.1074Z"
          fill="#AEAEAE"/>
    <path d="M91.356 58.1064H86.9309L88.8523 49.551C88.9106 49.3385 88.7359 49.1259 88.503 49.0728C88.2701 49.0197 88.0372 49.1791 87.979 49.3916L85.9411 58.4252C85.912 58.5315 85.9411 58.6644 86.0284 58.7706C86.1158 58.8503 86.2322 58.9301 86.3778 58.9301H91.3269C91.5598 58.9301 91.7636 58.7441 91.7636 58.5315C91.7636 58.319 91.5889 58.1064 91.356 58.1064Z"
          fill="#AEAEAE"/>
    <path d="M65.7368 49.0742H60.7877C60.5839 49.0742 60.4093 49.2071 60.351 49.393L58.3132 58.4267C58.2841 58.5329 58.3132 58.6658 58.4005 58.7721C58.4878 58.8518 58.6043 58.9315 58.7498 58.9315H63.6989C63.9318 58.9315 64.1356 58.7455 64.1356 58.5329C64.1356 58.3204 63.9318 58.1344 63.6989 58.1344H59.2739L60.1764 54.149H64.6014C64.8343 54.149 65.009 53.963 65.009 53.7504C65.009 53.5379 64.8343 53.3519 64.6014 53.3519H60.351L61.1371 49.8979H65.7368C65.9697 49.8979 66.1735 49.7119 66.1735 49.4993C66.1735 49.2868 65.9697 49.0742 65.7368 49.0742Z"
          fill="#AEAEAE"/>
    <path d="M82.331 49.3922C82.3018 49.2328 82.1563 49.1 81.9816 49.0734C81.8069 49.0468 81.6323 49.1265 81.5449 49.2859L76.0136 58.3195C75.8971 58.5055 75.9845 58.7447 76.1883 58.8509C76.3921 58.9572 76.6541 58.8775 76.7705 58.6915L78.7501 55.4501H82.8259L83.5246 58.5852C83.5537 58.7712 83.7575 58.9041 83.9612 58.9041C83.9904 58.9041 84.0195 58.9041 84.0486 58.9041C84.2815 58.8509 84.427 58.6384 84.3979 58.4258L82.331 49.3922ZM79.2159 54.653L81.6905 50.5878L82.593 54.653H79.2159Z"
          fill="#AEAEAE"/>
    <path d="M75.3732 49.3658C73.4518 48.6484 71.3557 48.7281 69.609 49.5252C67.9496 50.2957 66.756 51.7039 66.2902 53.4575C65.7079 55.583 66.6686 58.1868 69.2596 58.8776C69.4343 58.9308 70.1039 58.9308 70.8899 58.9308C71.9671 58.9308 73.3062 58.9042 74.0341 58.8776C74.2378 58.8776 74.4125 58.7448 74.4416 58.5854C74.4416 58.5588 74.4416 58.5588 75.315 54.042C75.3441 53.9357 75.315 53.8029 75.2276 53.7232C75.1403 53.6434 75.0239 53.5903 74.9074 53.5903H71.7051C71.4722 53.5903 71.2684 53.7763 71.2684 53.9889C71.2684 54.2014 71.4722 54.3874 71.7051 54.3874H74.3834C74.2087 55.3173 73.8012 57.3366 73.6556 58.1071C71.7633 58.1603 69.7545 58.1603 69.4925 58.1071C67.3965 57.5492 66.6395 55.397 67.1344 53.6434C67.542 52.129 68.5609 50.9068 69.9874 50.2426C71.5013 49.5252 73.3354 49.472 75.0239 50.1097C75.2568 50.1894 75.4897 50.0831 75.577 49.8972C75.6934 49.6846 75.577 49.4455 75.3732 49.3658Z"
          fill="#AEAEAE"/>
    <path d="M12.7522 58.9575H17.9633C18.0798 58.9575 18.1671 58.9044 18.1962 58.8247L48.7933 0.345403C48.8806 0.185987 48.7351 0 48.5604 0H43.0581C42.9417 0 42.8544 0.0531388 42.8252 0.132847L12.4902 58.6121C12.4029 58.7716 12.5484 58.9575 12.7522 58.9575Z"
          fill="#AEAEAE"/>
    <path d="M24.1062 58.9575H35.7221C35.8385 58.9575 35.9258 58.9044 35.9841 58.8247L65.4166 0.345403C65.504 0.185987 65.3584 0 65.1546 0H54.4121C54.2957 0 54.2084 0.0531388 54.1793 0.132847L23.8442 58.6121C23.7569 58.7716 23.9024 58.9575 24.1062 58.9575Z"
          fill="#AEAEAE"/>
</svg>
