<svg width="111" height="76" viewBox="0 0 111 76" fill="none" xmlns="http://www.w3.org/2000/svg">
    <path d="M93.8017 71.4681H88.3824V67.9492H87.3755V76.0009H88.3824V72.482H93.8017V76.0009H94.8085V67.9492H93.8017V71.4681Z"
          fill="#A9A9AA"/>
    <path d="M109.378 67.919V73.8832L102.389 67.8594V76.0005H103.426V69.9767L110.385 76.0005V67.919H109.378Z"
          fill="#A9A9AA"/>
    <path d="M50.7139 71.9751C50.7139 74.2116 52.3722 76.0009 54.4452 76.0009H58.2061V74.987H54.4452C52.9645 74.987 51.7503 73.645 51.7503 71.9751C51.7503 70.3051 52.9645 68.9631 54.4452 68.9631H58.2061V67.9492H54.4452C52.3722 67.9492 50.7139 69.7385 50.7139 71.9751Z"
          fill="#A9A9AA"/>
    <path d="M6.08539 67.9189H0.340332V76.0005H1.3472V72.4518H6.08539C7.32917 72.4518 8.33603 71.4378 8.33603 70.1853C8.33603 68.9329 7.32917 67.9189 6.08539 67.9189ZM6.08539 71.4378H1.3472V68.9329H6.08539C6.76651 68.9329 7.32917 69.4995 7.32917 70.1853C7.32917 70.8712 6.76651 71.4378 6.08539 71.4378Z"
          fill="#A9A9AA"/>
    <path d="M83.1996 71.4681H79.7052C79.0241 71.4681 78.4615 70.9015 78.4615 70.2156C78.4615 69.5297 79.0241 68.9631 79.7052 68.9631H84.9469V67.9492H79.7052C78.4614 67.9492 77.4546 68.9631 77.4546 70.2156C77.4546 71.4681 78.4614 72.482 79.7052 72.482H83.1996C83.8808 72.482 84.4434 73.0486 84.4434 73.7345C84.4434 74.4204 83.8808 74.987 83.1996 74.987H77.958V76.0009H83.1996C84.4434 76.0009 85.4503 74.987 85.4503 73.7345C85.4503 72.482 84.4434 71.4681 83.1996 71.4681Z"
          fill="#A9A9AA"/>
    <path d="M99.4576 67.9189H98.4512V76.0005H99.4576V67.9189Z" fill="#A9A9AA"/>
    <path d="M60.7822 68.9329H63.7732V76.0005H64.7801V68.9329H67.7711V67.9189H60.7822V68.9329Z" fill="#A9A9AA"/>
    <path d="M24.3274 67.9492C22.1064 67.9492 20.3296 69.7683 20.3296 71.9751C20.3296 74.1818 22.136 76.0009 24.3274 76.0009C26.5485 76.0009 28.3253 74.1818 28.3253 71.9751C28.3253 69.7683 26.5485 67.9492 24.3274 67.9492ZM24.3274 74.987C22.6691 74.987 21.3365 73.645 21.3365 71.9751C21.3365 70.3051 22.6691 68.9631 24.3274 68.9631C25.9858 68.9631 27.3184 70.3051 27.3184 71.9751C27.3184 73.645 25.9858 74.987 24.3274 74.987Z"
          fill="#A9A9AA"/>
    <path d="M18.227 70.1853C18.227 68.9329 17.2201 67.9189 15.9763 67.9189H10.2017V76.0005H11.2085V72.4816H14.318L16.924 76.0005H18.1974L15.5914 72.4518H15.9467C17.1905 72.4518 18.227 71.4378 18.227 70.1853ZM11.2381 68.9329H15.9763C16.6574 68.9329 17.2201 69.4995 17.2201 70.1853C17.2201 70.8712 16.6574 71.4378 15.9763 71.4378H11.2381V68.9329V68.9329Z"
          fill="#A9A9AA"/>
    <path d="M40.9409 71.9751V72.482V76.0009H48.4332V74.987H41.9478V72.482H48.4332V71.4681H41.9478V68.9631H48.4332V67.9492H40.9409V71.9751Z"
          fill="#A9A9AA"/>
    <path d="M37.15 72.0049C37.15 73.6152 35.847 74.9273 34.2479 74.9273C32.6487 74.9273 31.3457 73.6152 31.3457 72.0049H30.25C30.25 74.2116 32.0268 76.0009 34.2182 76.0009C36.4096 76.0009 38.1865 74.2116 38.1865 72.0049V67.9492H37.0908V72.0049H37.15Z"
          fill="#A9A9AA"/>
    <path d="M58.9757 50.2051C61.0774 52.71 59.6565 56.05 58.4429 57.6902" stroke="#A9A9AA" stroke-miterlimit="10"/>
    <path d="M57.0508 50.7715C59.3893 52.0538 58.3533 55.0359 57.5244 56.4077" stroke="#A9A9AA" stroke-miterlimit="10"/>
    <path d="M55.5996 51.1289C56.6949 51.3973 57.3757 52.5007 57.2869 53.4549C57.1981 54.2899 56.6061 55.1249 56.3397 55.4231"
          stroke="#A9A9AA" stroke-miterlimit="10"/>
    <path d="M80.8306 22.74C80.9195 23.1575 80.9491 23.575 80.9491 23.9925C80.9491 26.408 79.7645 28.5551 77.9581 29.8672C77.9285 30.0163 77.8693 30.1953 77.81 30.3444C77.7804 30.4338 77.7508 30.5233 77.7212 30.6127C77.7212 30.6724 77.6916 30.732 77.662 30.7619C76.5959 31.3881 75.3521 31.7459 74.0195 31.7459C71.3246 31.7459 68.9852 30.2847 67.7118 28.1078C67.5637 27.899 67.4453 27.6605 67.3564 27.4219C67.238 27.1833 67.1491 26.9448 67.0603 26.6764C67.001 26.4974 66.9418 26.3185 66.9122 26.1396C66.853 26.0203 66.8234 25.901 66.8234 25.7817C66.7345 25.3046 66.6753 24.7976 66.6753 24.2907C66.6753 21.6664 68.0671 19.3106 70.1105 18.0283C70.1401 17.9984 70.1697 17.9984 70.1697 17.9686C70.1993 17.9388 70.2586 17.909 70.2882 17.909C70.9397 17.5213 71.6504 17.2231 72.3907 17.074C72.9238 16.9249 73.4864 16.8652 74.0491 16.8652C74.8191 16.8652 75.5594 16.9845 76.2405 17.1933C76.359 17.2231 76.4774 17.2827 76.5959 17.3424C77.0697 17.4915 77.4843 17.7002 77.8989 17.9686C78.1358 18.1177 78.3727 18.2668 78.6096 18.4458C79.0538 18.8036 79.4684 19.2211 79.8238 19.6684C80.268 20.235 80.6233 20.8613 80.8899 21.5173C80.9195 21.6068 80.9491 21.6664 80.9787 21.7559C80.8899 21.9646 80.8306 22.1734 80.8306 22.412C80.801 22.5312 80.801 22.6207 80.8306 22.74Z"
          stroke="#A9A9AA" stroke-miterlimit="10" stroke-linecap="round"/>
    <path d="M84.1771 17.7296C84.0882 17.9682 83.9994 18.1769 83.881 18.3857C83.3183 19.4891 82.4891 20.4433 81.4526 21.1292C81.423 21.159 81.3934 21.159 81.3934 21.1889C81.1861 21.338 81.038 21.5467 80.9196 21.7853C80.8307 21.994 80.7715 22.2028 80.7715 22.4413C80.7715 22.5606 80.8011 22.6501 80.8011 22.7694C80.89 23.1869 80.9196 23.6044 80.9196 24.0219C80.9196 26.4374 79.735 28.5845 77.9286 29.8966C77.899 30.0457 77.8398 30.2246 77.7805 30.3737C77.7509 30.4632 77.7213 30.5527 77.6917 30.6421C77.6917 30.7018 77.6621 30.7614 77.6325 30.7912C77.5436 31.1193 77.4548 31.4473 77.3363 31.7753C77.3363 31.8946 77.2475 32.0437 77.2179 32.163C77.1586 32.2823 77.129 32.4314 77.0698 32.5507C76.6552 33.6242 76.2406 34.6978 75.7076 35.7415C75.2041 36.7555 74.6415 37.7396 74.0196 38.664C73.3977 39.5885 72.7462 40.5129 72.0059 41.3479C71.6801 41.7356 71.3544 42.1232 70.999 42.4811C70.6436 42.839 70.2883 43.1968 69.9329 43.5547C69.6664 43.8529 69.3999 44.0914 69.1333 44.33C68.8372 43.9722 68.5707 43.6441 68.3338 43.2863C68.2153 43.1372 68.1265 43.0179 68.0376 42.8688C67.238 41.6759 66.6162 40.3936 66.172 39.0219C65.6389 37.4115 65.3428 35.6819 65.3428 33.8926C65.3428 33.1471 65.402 32.4314 65.4908 31.7157C65.6389 30.672 65.8758 29.658 66.2016 28.6739C66.3793 28.1372 66.5865 27.6004 66.8235 27.0934C66.8531 27.0338 66.8827 26.9741 66.8827 26.9443C66.9419 26.8549 66.9715 26.7952 67.0011 26.6759C68.0376 24.5885 69.5183 22.7396 71.2951 21.2783C71.5913 21.0398 71.8578 20.831 72.1539 20.6223C73.8123 19.4294 75.678 18.5646 77.7213 18.0576C77.7509 18.0278 77.7805 18.0278 77.8101 18.0278C78.0174 17.9682 78.2247 17.9384 78.432 17.8787C79.4389 17.67 80.4754 17.5805 81.5415 17.5805C82.4595 17.5209 83.3183 17.6103 84.1771 17.7296Z"
          stroke="#A9A9AA" stroke-miterlimit="10" stroke-linecap="round"/>
    <path d="M69.9627 43.5244C69.6962 43.8226 69.4296 44.0612 69.1631 44.2997C68.9262 44.5085 68.7189 44.7172 68.482 44.8962C67.8601 45.4329 67.2086 45.9399 66.5275 46.3872C65.9056 46.8644 65.2541 47.2819 64.573 47.6695C64.04 47.9976 63.5069 48.2958 62.9739 48.5642C62.7666 48.6834 62.5593 48.7729 62.352 48.8922C61.967 49.0711 61.6116 49.25 61.2267 49.3992C61.0786 49.4588 60.9601 49.5184 60.8121 49.5781C60.6344 49.6675 60.4863 49.7272 60.3086 49.7868C60.1902 49.8465 60.0717 49.8763 59.9533 49.9359C59.7164 50.0254 59.4794 50.1149 59.2425 50.2043C59.1537 50.2341 59.0649 50.264 58.9464 50.2938H58.9168C57.9988 50.6218 57.0807 50.8604 56.1331 51.0691C55.9258 51.1288 55.7481 51.1884 55.5408 51.2182C55.5112 51.2182 55.5112 51.2182 55.5112 51.2182C54.2378 51.4866 52.994 51.6656 51.6614 51.7252C51.6318 51.7252 51.6318 51.7252 51.6318 51.7252C51.4837 51.7848 51.3653 51.8445 51.2172 51.9339C51.0692 52.0234 50.9211 52.1129 50.8026 52.2023C50.8026 52.2322 50.773 52.2322 50.773 52.2322C50.5657 52.3514 50.3584 52.5005 50.1807 52.6496C50.0623 52.7391 50.0031 52.7988 49.9142 52.8882L49.8846 52.918C49.2331 53.5443 48.6704 54.26 48.3151 55.095V55.1248V55.1546C48.1966 55.2739 48.0782 55.3634 47.9893 55.4826C47.8709 55.6019 47.782 55.6914 47.6636 55.8107C47.634 55.8405 47.634 55.8405 47.634 55.8405C47.4859 56.0194 47.3674 56.1984 47.249 56.3475C47.2194 56.3773 47.2194 56.3773 47.2194 56.3773C47.0713 56.586 46.9528 56.7948 46.864 57.0035C46.864 57.0333 46.864 57.0333 46.8344 57.0632C46.6863 57.3017 46.5975 57.5403 46.479 57.8087C46.4494 57.8683 46.4494 57.9578 46.4198 58.0174C46.3902 58.0771 46.3606 58.1665 46.331 58.2262C46.3013 58.3157 46.2717 58.3753 46.2717 58.4349C46.2421 58.4648 46.2421 58.4946 46.2421 58.5244C46.1829 58.6437 46.1829 58.7331 46.1533 58.8524C46.1533 58.9121 46.1237 58.9419 46.1237 58.9717C46.094 59.0015 46.0941 59.0015 46.0941 59.0015V59.0314C46.0941 59.1208 46.0644 59.1805 46.0644 59.2401C46.0348 59.2997 46.0052 59.3594 45.9756 59.419C45.9164 59.4787 45.8868 59.5383 45.8275 59.5681C45.7683 59.6278 45.7091 59.6576 45.6498 59.6874V59.7172C45.561 59.7471 45.5018 59.7769 45.4426 59.7769C44.8503 59.926 44.258 60.0751 43.6657 60.1944C43.3696 60.254 43.0438 60.3137 42.7477 60.3435C42.5996 60.3733 42.4516 60.4031 42.3035 60.4329C42.1258 60.4628 41.9777 60.4926 41.8001 60.4926C41.6224 60.5522 41.4151 60.5522 41.2374 60.5821C41.1189 60.6119 40.9709 60.6119 40.8524 60.6119C40.7044 60.6417 40.5859 60.6417 40.4378 60.6715C40.2601 60.7013 40.0825 60.7013 39.9048 60.7013C39.8752 60.7312 39.8159 60.7312 39.7863 60.7312C39.6975 60.7312 39.6087 60.7312 39.5198 60.7312C39.3125 60.761 39.1348 60.761 38.9275 60.761C38.8979 60.761 38.8387 60.7908 38.7795 60.761C38.661 60.7908 38.5426 60.7908 38.4241 60.7908C38.276 60.8206 38.0984 60.8206 37.9503 60.8206C37.8318 60.8206 37.7134 60.8206 37.6245 60.7908C37.0915 60.7908 36.5584 60.761 36.0254 60.7312V60.7013C36.1438 60.254 36.2623 59.8365 36.4104 59.419C36.5881 58.8823 36.7657 58.3753 36.973 57.8683C37.1211 57.4508 37.2988 57.0632 37.4765 56.6755L37.5061 56.6457C38.2464 54.9459 39.1941 53.3952 40.2898 51.9339V51.9041H40.3194C40.6155 51.5164 40.882 51.1586 41.2078 50.8007C42.955 48.7133 45.0872 46.8942 47.4267 45.4926C47.5155 45.4329 47.6043 45.3733 47.7228 45.3137H47.7524C47.8709 45.2242 47.9893 45.1347 48.1374 45.0751H48.167C48.6408 44.7769 49.1443 44.5085 49.6477 44.2997C49.7365 44.2401 49.8254 44.2103 49.8846 44.1805C49.9142 44.1506 49.9438 44.1506 49.9438 44.1506C49.9438 44.1208 49.9438 44.1208 49.9438 44.1208C52.2241 43.0771 54.7116 42.3614 57.288 42.093C57.288 42.093 57.288 42.093 57.3176 42.093C58.2653 41.9737 59.2129 41.9141 60.1902 41.9141C60.3382 41.9141 60.4567 41.9141 60.6048 41.9141C60.6344 41.9141 60.6344 41.9141 60.6344 41.9141C61.2267 41.9141 61.7893 41.9439 62.3816 42.0035C63.27 42.0632 64.1288 42.2123 64.9876 42.3614C65.4022 42.4508 65.7872 42.5403 66.2018 42.6298C66.794 42.7789 67.3567 42.928 67.8897 43.1069V43.1367C67.9786 43.1367 68.0674 43.1964 68.1266 43.2262C68.867 43.0771 69.4296 43.2858 69.9627 43.5244Z"
          stroke="#A9A9AA" stroke-miterlimit="10" stroke-linecap="square" stroke-linejoin="round"/>
    <path d="M50.8913 52.0534C50.8913 52.0832 50.8913 52.0832 50.8913 52.0534C50.6544 52.2025 50.4767 52.3218 50.299 52.4709C50.1806 52.5603 50.1213 52.62 50.0325 52.7094L50.0029 52.7393C49.3514 53.3655 48.7887 54.0812 48.4334 54.9162V54.946C48.3149 55.0653 48.1964 55.1548 48.1076 55.2741C47.9891 55.3635 47.8707 55.4828 47.7819 55.6021C47.7522 55.6319 47.7522 55.6319 47.7522 55.6319C47.6042 55.8108 47.4561 55.9898 47.3376 56.1687C47.1896 56.3774 47.0711 56.5862 46.9823 56.7949C46.9823 56.8248 46.9823 56.8248 46.9527 56.8546C46.8046 57.0931 46.7158 57.3317 46.5973 57.6001C46.5381 57.7492 46.4788 57.8685 46.4492 58.0176C46.4196 58.1071 46.39 58.1667 46.39 58.2263C46.3604 58.2562 46.3604 58.286 46.3604 58.3158C46.3012 58.4351 46.3012 58.5246 46.2716 58.6438C46.2716 58.7035 46.2419 58.7333 46.2419 58.7631C46.2123 58.7929 46.2123 58.7929 46.2123 58.7929V58.8228C46.2123 58.9122 46.1827 58.9719 46.1827 59.0315C46.1531 59.0912 46.1235 59.1508 46.0939 59.2104C46.0346 59.2701 46.005 59.3297 45.9458 59.3595C45.8866 59.4192 45.8273 59.449 45.7681 59.4788C45.6793 59.5087 45.6201 59.5385 45.5608 59.5385C44.6724 59.777 43.784 59.9858 42.866 60.1349C42.7179 60.1647 42.5698 60.1945 42.4218 60.1945C42.2441 60.2244 42.096 60.2542 41.9183 60.284C41.6222 60.3138 41.2965 60.3735 41.0003 60.4033C40.6746 60.4331 40.3784 60.4629 40.0527 60.4927C39.7269 60.5226 39.4308 60.5226 39.105 60.5524C38.7793 60.5822 38.4535 60.5822 38.1574 60.5822C38.0389 60.5822 37.9205 60.5822 37.8316 60.5524C37.2986 60.5524 36.7656 60.5226 36.2325 60.4927C34.4261 60.3735 32.7085 60.1051 31.0205 59.6578C30.5171 59.5385 30.0729 59.3894 29.599 59.2403C29.451 59.2104 29.2733 59.1508 29.1252 59.0912C28.7995 58.9421 28.5033 58.7333 28.2664 58.4649C27.8814 58.0176 27.6445 57.451 27.6445 56.8248C27.6445 56.1985 27.8814 55.6319 28.2368 55.2144C28.3256 55.125 28.3849 55.0355 28.4737 54.9758C28.6514 54.7969 28.8291 54.6776 29.0364 54.5882C29.0956 54.5584 29.1252 54.5285 29.1844 54.5285C29.7471 54.29 30.2802 54.0812 30.8428 53.8725C31.4055 53.6637 31.9681 53.455 32.5308 53.276C34.5741 52.5902 36.7063 52.1428 38.8977 51.8446H38.9274C39.4308 51.7552 39.9342 51.6955 40.4377 51.6657H40.4673C41.5334 51.5464 42.5995 51.5166 43.6655 51.5166C43.9913 51.5166 44.2874 51.5166 44.5836 51.5464C45.1758 51.5762 45.7681 51.6061 46.3604 51.6359C46.4492 51.6359 46.5085 51.6657 46.5677 51.6657C46.8638 51.6955 47.1304 51.7253 47.4265 51.7552V51.785C47.4561 51.8148 47.4561 51.8148 47.4561 51.785H47.4857V51.7552C47.5153 51.7552 47.5153 51.7552 47.5153 51.7552C47.7226 51.785 47.9299 51.8148 48.1372 51.8446H48.1964C48.4334 51.9043 48.6703 51.9341 48.9072 51.9639H48.9368C49.1737 51.9937 49.381 52.0236 49.6179 52.0832H49.6475C50.1213 51.9043 50.5063 51.9937 50.8913 52.0534Z"
          stroke="#A9A9AA" stroke-miterlimit="10" stroke-linecap="round" stroke-linejoin="round"/>
    <path d="M71.4138 21.9642C71.4138 24.4692 70.0812 26.676 68.0675 27.8688C67.9786 27.9284 67.8898 27.9583 67.8009 28.0179C67.7713 28.0477 67.7417 28.0477 67.7121 28.0477C67.5048 28.167 67.3271 28.2565 67.1198 28.3161H67.0902V28.3459C66.7941 28.4652 66.5275 28.5547 66.2314 28.6143C65.6984 28.7634 65.1357 28.8231 64.573 28.8231C64.4842 28.8231 64.3954 28.8231 64.3065 28.7933C63.3589 28.7634 62.4705 28.5249 61.6413 28.1372C60.7529 27.7197 59.9533 27.0935 59.3314 26.3181C58.3542 25.1253 57.7915 23.6044 57.7915 21.9642C57.7915 21.2783 57.91 20.6223 58.0876 19.996V19.9662C58.1173 19.7873 58.2061 19.6084 58.2653 19.4294C58.5318 18.7734 58.8872 18.177 59.3018 17.6402L59.3314 17.6104C60.2198 18.177 60.9898 18.9225 61.5821 19.8171C61.5821 19.8171 61.5821 19.8469 61.6117 19.8469C61.7894 20.1451 61.967 20.4135 62.0855 20.7416C62.1743 20.8608 62.2039 20.9801 62.2632 21.0994C63.0627 22.829 64.1288 24.3797 65.4615 25.7217C65.4318 25.7515 65.4615 25.7515 65.4911 25.7515C65.6095 25.9006 65.7872 25.9602 65.9649 25.9602C66.0537 25.9602 66.1426 25.9304 66.2314 25.9006C66.3203 25.8708 66.3795 25.841 66.4387 25.7813C66.4979 25.7217 66.5572 25.6322 66.6164 25.5726C66.6756 25.4831 66.6756 25.4235 66.6756 25.334C66.7052 25.334 66.7052 25.3042 66.7052 25.2744C66.8237 25.8111 66.9125 26.3181 67.0014 26.8549C67.031 26.7952 67.0606 26.7058 67.0902 26.6461V26.6163C67.031 26.4374 66.9718 26.2585 66.9421 26.0795C66.8829 25.9602 66.8533 25.841 66.8533 25.7217C66.7645 25.2445 66.7052 24.7376 66.7052 24.2306C66.7052 23.5746 66.7941 22.9483 66.9421 22.3519C66.9421 22.3221 66.9718 22.3221 66.9718 22.3221C67.0014 22.173 67.0606 22.0239 67.1198 21.8748C67.4752 20.831 68.0378 19.9066 68.7486 19.161C68.9855 18.9225 69.1928 18.7137 69.4297 18.5348C69.6666 18.3261 69.9331 18.1471 70.17 17.998V17.9682C70.1996 17.9682 70.1996 17.9682 70.1996 17.9682C70.8808 18.8927 71.2954 19.996 71.4434 21.1591C71.3842 21.4573 71.4138 21.7257 71.4138 21.9642Z"
          stroke="#A9A9AA" stroke-miterlimit="10" stroke-linecap="round"/>
    <path d="M84.1775 17.7296C84.0886 17.9682 83.9998 18.1769 83.8813 18.3857C83.3187 19.489 82.4895 20.4433 81.453 21.1292C81.4234 21.159 81.3938 21.159 81.3938 21.1888C81.1865 21.3379 81.0384 21.5467 80.9199 21.7853C80.8311 21.994 80.7719 22.2028 80.7719 22.4413C80.7719 22.5606 80.8015 22.6501 80.8015 22.7694C80.8903 23.1868 80.9199 23.6043 80.9199 24.0218C80.9199 26.4373 79.7354 28.5845 77.929 29.8966C77.8993 30.0457 77.8401 30.2246 77.7809 30.3737C77.7513 30.4632 77.7217 30.5527 77.6921 30.6421C77.4551 30.6719 77.1886 30.6719 76.9517 30.6719H76.6556C73.4869 30.5825 70.5552 29.5984 68.0676 27.9582C67.8603 27.8091 67.6826 27.6898 67.4753 27.5407C67.4161 27.5109 67.3865 27.4811 67.3569 27.4513C67.2088 27.3618 67.0904 27.2425 66.9719 27.1531C66.9423 27.1232 66.9127 27.0934 66.8831 27.0636C66.3796 26.6759 65.9058 26.2584 65.4912 25.7813C65.6097 25.9304 65.7873 25.99 65.965 25.99C66.35 25.99 66.6461 25.6918 66.6758 25.3041C66.7942 25.8409 66.8831 26.3777 66.9719 26.8847C67.0311 26.7952 67.0607 26.7356 67.0903 26.6461C67.0311 26.4672 66.9719 26.2882 66.9423 26.1093C66.8831 25.99 66.8534 25.8707 66.8534 25.7515C66.7646 25.2743 66.7054 24.7674 66.7054 24.2604C66.7054 21.6362 68.0972 19.2803 70.1406 17.998V17.9682C70.1702 17.9383 70.1998 17.9383 70.1998 17.9383C70.2294 17.9085 70.2886 17.8787 70.3182 17.8787C70.9697 17.491 71.6805 17.1928 72.4208 17.0437C72.9539 16.8946 73.5165 16.835 74.0792 16.835C74.8491 16.835 75.5895 16.9542 76.2706 17.163C76.3891 17.1928 76.5075 17.2525 76.626 17.3121C77.0998 17.4612 77.5144 17.67 77.929 17.9383C78.1363 17.8787 78.3436 17.8489 78.5509 17.7892C79.5577 17.5805 80.5942 17.491 81.6603 17.491C82.4599 17.5208 83.3187 17.6103 84.1775 17.7296Z"
          stroke="#A9A9AA" stroke-miterlimit="10" stroke-linecap="round"/>
    <path d="M49.7066 11.6459C48.3148 12.0336 46.8637 12.2423 45.3534 12.2423C41.2667 12.2423 37.2096 10.5724 34.3667 8.06738"
          stroke="#A9A9AA" stroke-miterlimit="10"/>
    <path d="M49.707 11.6465C51.8096 13.0779 53.7641 14.6882 55.5409 16.4775L55.5705 16.5073C56.9624 16.5371 58.2654 16.9845 59.3611 17.6703C60.2495 18.2369 61.0195 18.9825 61.6117 19.8771C61.6414 19.8771 61.6414 19.8771 61.6414 19.8771"
          stroke="#A9A9AA" stroke-miterlimit="10"/>
    <path d="M62.1147 20.7422C62.174 20.8913 62.2332 21.0106 62.2924 21.1299C62.322 21.1895 62.3516 21.2193 62.3812 21.279C63.1806 22.9489 64.2169 24.44 65.4901 25.7521C65.4605 25.7819 65.4901 25.7819 65.5197 25.7819C65.6381 25.9311 65.8158 25.9907 65.9934 25.9907C66.1119 25.9907 66.2007 25.9609 66.2895 25.9012C66.3783 25.8714 66.4376 25.8416 66.4968 25.7819C66.5856 25.7223 66.6152 25.6328 66.6744 25.5732C66.704 25.4837 66.7336 25.4241 66.7336 25.3346"
          stroke="#A9A9AA" stroke-miterlimit="10" stroke-linecap="round"/>
    <path d="M41.4741 50.4434C42.5698 50.8012 43.6952 51.0696 44.8501 51.2485C45.4127 51.3678 45.9458 51.4275 46.5085 51.4871C46.5973 51.5169 46.6565 51.5169 46.7157 51.5169C47.0119 51.5467 47.2784 51.5766 47.5745 51.6064C47.6042 51.6362 47.6042 51.6362 47.6042 51.6064C47.6042 51.6362 47.6338 51.6362 47.6338 51.6362C47.6338 51.6362 47.6338 51.6362 47.6338 51.6064H47.6634C47.8707 51.6362 48.1076 51.666 48.3149 51.666C48.3445 51.666 48.3445 51.666 48.3741 51.666C48.5814 51.6958 48.7887 51.6958 48.996 51.6958H49.0256C49.2329 51.7257 49.4402 51.7257 49.6475 51.7257C49.7363 51.7555 49.8548 51.7555 49.9436 51.7555C50.3878 51.7555 50.8321 51.7257 51.2466 51.6958C51.4243 51.6958 51.602 51.6958 51.7797 51.666"
          stroke="#A9A9AA" stroke-miterlimit="10" stroke-linecap="square" stroke-linejoin="round"/>
    <path d="M61.2261 49.3702C61.6111 49.2211 61.9664 49.0422 62.3514 48.8632C62.5587 48.744 62.766 48.6545 62.9733 48.5352C63.5359 48.2668 64.069 47.9686 64.5724 47.6406C65.2535 47.2231 65.905 46.8056 66.5269 46.3583C67.208 45.8811 67.8595 45.404 68.4814 44.8672C68.7183 44.6585 68.9553 44.4795 69.1625 44.2708C69.4291 44.0322 69.6956 43.7937 69.9621 43.4954C72.9827 40.573 75.3814 36.9945 76.9213 32.9686C76.9213 32.9388 76.951 32.909 76.951 32.8791C77.1286 32.4617 77.2471 32.1038 77.3952 31.6863C77.3952 31.6565 77.3952 31.6565 77.3952 31.6565C77.5136 31.3285 77.6025 31.0302 77.6913 30.7022C77.7209 30.6426 77.7505 30.6127 77.7505 30.5531C77.7801 30.4636 77.8098 30.3742 77.8394 30.2847C77.8986 30.1356 77.9282 29.9567 77.9874 29.8076C78.5797 27.4517 78.9055 25.0064 78.9055 22.4716V22.3225C78.9055 21.6962 78.8758 21.0998 78.8166 20.5034C78.787 19.8772 78.6982 19.2509 78.6389 18.6545C78.6093 18.5949 78.6093 18.5054 78.6093 18.4458C78.5797 18.237 78.5501 18.0283 78.5205 17.8195C78.3132 17.8792 78.1059 17.909 77.8986 17.9686C77.484 17.7002 77.0398 17.4915 76.5956 17.3424C76.4771 17.2827 76.3587 17.2231 76.2402 17.1933C75.5591 16.9845 74.8188 16.8652 74.0488 16.8652C73.4862 16.8652 72.9235 16.9249 72.3904 17.074C71.6501 17.2529 70.9394 17.5213 70.2879 17.909C70.2583 17.9388 70.199 17.9686 70.1694 17.9686C70.1398 17.9984 70.1398 17.9984 70.1102 17.9984C70.1102 17.9984 70.1102 17.9984 70.0806 17.9984V18.0283C69.814 18.2072 69.5771 18.3861 69.3402 18.565C69.1033 18.7738 68.896 18.9825 68.6591 19.1913C67.9188 19.9666 67.3561 20.8911 67.0304 21.905C66.9711 22.0541 66.9119 22.2032 66.8823 22.3523L66.8527 22.3821C66.675 22.9786 66.5862 23.6346 66.5862 24.2907C66.5862 24.7976 66.6454 25.3046 66.7342 25.7817C66.7638 25.9308 66.7935 26.0501 66.8231 26.1396C66.8823 26.3185 66.9119 26.4974 66.9711 26.6764C66.9415 26.736 66.9119 26.8255 66.8823 26.8851C66.8823 26.9149 66.8527 26.9149 66.8527 26.9149C66.7638 26.408 66.675 25.8712 66.5565 25.3642C66.5565 25.3344 66.5565 25.3344 66.5565 25.3344"
          stroke="#A9A9AA" stroke-miterlimit="10" stroke-linecap="round"/>
    <path d="M42.5403 60.0756C42.3626 60.1054 42.2145 60.1352 42.0368 60.1352C41.8591 60.1949 41.6518 60.1948 41.4742 60.2247C41.3557 60.2545 41.2076 60.2545 41.0892 60.2545C40.9411 60.2843 40.8227 60.2843 40.6746 60.3141C40.4673 60.344 40.26 60.344 40.0527 60.3738C39.9639 60.4036 39.875 60.4036 39.7862 60.4036C39.2827 60.4334 38.7793 60.4632 38.2463 60.4632C38.1278 60.4632 38.0094 60.4632 37.9205 60.4334C37.3875 60.4334 36.8544 60.4036 36.3214 60.3738C34.5149 60.2545 32.7973 59.9861 31.1094 59.5388C30.6059 59.4195 30.1617 59.2704 29.6879 59.1213C29.5398 59.0915 29.3622 59.0318 29.2141 58.9722C28.8587 58.8231 28.5922 58.6143 28.3553 58.3459C27.9703 57.8986 27.7334 57.332 27.7334 56.7058C27.7334 56.0795 27.9703 55.5129 28.3257 55.0954C28.4145 55.006 28.4737 54.9165 28.5626 54.8569C28.7403 54.7078 28.9179 54.5885 29.1252 54.4692C29.1845 54.4394 29.2141 54.4096 29.2733 54.4096C29.836 54.171 30.369 53.9324 30.9317 53.7237C31.4943 53.5149 32.057 53.336 32.6197 53.1571C34.663 52.4712 36.7952 52.0239 38.9866 51.7257C39.0162 51.7257 39.0162 51.7257 38.9866 51.6958H39.0162C39.0162 51.6958 39.0162 51.6958 39.0162 51.666C39.9342 51.4871 40.7338 51.0398 41.3557 50.4135C41.3853 50.4434 41.3853 50.4434 41.4149 50.4434C43.1621 48.3559 45.2943 46.5368 47.6338 45.1352C47.3377 44.9563 47.0711 44.8072 46.8046 44.5984C46.4196 44.3599 46.0643 44.1213 45.7089 43.8529C36.9729 37.8589 30.4875 28.7038 27.8222 18.0875V18.0577C30.8428 16.9841 34.13 16.3877 37.5355 16.3877C40.793 16.3877 43.9617 16.9543 46.8935 17.9384C47.1008 18.0279 47.3081 18.0875 47.5154 18.1471C48.2261 18.4155 48.9368 18.7137 49.6179 19.0418C53.3493 20.7416 56.6364 23.2465 59.3016 26.3181C59.9827 27.0935 60.6046 27.8986 61.1969 28.7336C63.4771 31.9543 65.1355 35.7117 65.9351 39.7376C66.1128 40.5726 66.2608 41.4374 66.3497 42.3022C66.4681 43.3758 66.5274 44.4493 66.5274 45.5229C66.5274 45.7913 66.5273 46.0597 66.4977 46.3281C65.8758 46.8052 65.2243 47.2227 64.5432 47.6104C64.0102 47.9384 63.4771 48.2366 62.9441 48.505C62.7368 48.6243 62.5295 48.7137 62.3222 48.833C61.9372 49.0119 61.5819 49.1909 61.1969 49.34"
          stroke="#A9A9AA" stroke-miterlimit="10" stroke-linecap="square" stroke-linejoin="round"/>
    <path d="M49.7067 11.6464C51.8093 13.0778 53.7638 14.718 55.5703 16.5073C56.9621 16.5371 58.2651 16.9844 59.3608 17.6703C60.2492 18.2369 61.0192 18.9824 61.6115 19.877C60.6638 19.9963 59.7162 20.0261 58.7685 20.0261H58.5909C58.4132 20.0261 58.2651 20.0261 58.117 19.9963C55.2741 19.9665 52.4904 19.5788 49.8548 18.8631C49.0849 18.6544 48.3149 18.4158 47.5746 18.1474C47.3376 18.0878 47.1303 17.9983 46.9527 17.9387C40.9115 15.7021 35.6402 11.7955 31.7608 6.75577C31.7016 6.63648 31.6128 6.54702 31.5239 6.42773"
          stroke="#A9A9AA" stroke-miterlimit="10"/>
    <path d="M72.36 17.0732C71.6791 17.4013 70.9983 17.6697 70.2878 17.9381C70.2286 17.9381 70.199 17.9679 70.1694 17.9679C70.199 17.9381 70.2582 17.9082 70.2878 17.9082C70.9095 17.5206 71.6199 17.2223 72.36 17.0732Z"
          stroke="#A9A9AA" stroke-miterlimit="10" stroke-linecap="round" stroke-linejoin="round"/>
    <path d="M32.6787 53.1276C31.5238 53.4854 30.4281 53.9029 29.3324 54.3801C29.2732 54.4099 29.2436 54.4099 29.1843 54.4397C28.3551 54.8274 27.7925 55.6922 27.7925 56.6763C27.7925 57.6902 28.4144 58.555 29.2732 58.9427C29.4212 59.0023 29.5989 59.062 29.747 59.0918C30.2208 59.2409 30.6946 59.39 31.1684 59.5093M49.7066 11.6465C51.8092 13.0779 53.7637 14.7181 55.5701 16.5073C56.962 16.5371 58.265 16.9845 59.3607 17.6703C60.2491 18.2369 61.0191 18.9825 61.6113 19.8771C61.6409 19.8771 61.6409 19.8771 61.6409 19.8771M61.2264 49.3701C61.6113 49.221 61.9667 49.0421 62.3517 48.8632C62.559 48.7439 62.7663 48.6544 62.9736 48.5351C63.5362 48.2668 64.0693 47.9685 64.5727 47.6405C65.2538 47.223 65.9053 46.8055 66.5272 46.3582C67.2083 45.8811 67.8598 45.4039 68.4817 44.8672C68.7186 44.6584 68.9555 44.4795 69.1628 44.2707C69.4294 44.0322 69.6959 43.7936 69.9624 43.4954C72.983 40.5729 75.3817 36.9944 76.9216 32.9685C76.9216 32.9387 76.9512 32.9089 76.9512 32.8791C77.1289 32.4616 77.2474 32.1037 77.3954 31.6862C77.3954 31.6564 77.3954 31.6564 77.3954 31.6564C77.5139 31.3284 77.6027 31.0302 77.6916 30.7021C77.7212 30.6425 77.7508 30.6127 77.7508 30.553C77.7804 30.4636 77.81 30.3741 77.8396 30.2847C77.8989 30.1355 77.9285 29.9566 77.9877 29.8075C79.7941 28.4954 80.9787 26.3483 80.9787 23.9328C80.9787 23.5153 80.9491 23.0978 80.8602 22.6803C80.8306 22.561 80.8306 22.4715 80.8306 22.3522C80.8306 22.1137 80.8899 21.8751 80.9787 21.6962C81.0972 21.4576 81.2452 21.2489 81.4525 21.0998C81.4821 21.0699 81.5117 21.0699 81.5117 21.0401C82.5482 20.3542 83.3774 19.4 83.9401 18.2966C84.0585 18.0878 84.1474 17.8791 84.2362 17.6405C83.3774 17.4914 82.5482 17.4318 81.6598 17.4318C80.5937 17.4318 79.5572 17.5511 78.5504 17.73C78.3431 17.7896 78.1358 17.8194 77.9285 17.8791C77.5139 17.6107 77.0697 17.402 76.6255 17.2528C76.507 17.1932 76.3886 17.1336 76.2701 17.1037C75.589 16.895 74.8487 16.7757 74.0787 16.7757C73.516 16.7757 72.9534 16.8353 72.4203 16.9845C71.68 17.1634 70.9693 17.4318 70.3178 17.8194C70.2882 17.8493 70.2289 17.8791 70.1993 17.8791C70.1697 17.9089 70.1697 17.9089 70.1401 17.9089C70.1401 17.9089 70.1401 17.9089 70.1105 17.9089V17.9387C69.8439 18.1177 69.607 18.2966 69.3701 18.4755C69.1332 18.6843 68.9259 18.893 68.689 19.1018C67.9487 19.8771 67.386 20.8016 67.0603 21.8155C67.001 21.9646 66.9418 22.1137 66.9122 22.2628L66.8826 22.2926C66.7049 22.889 66.6161 23.5451 66.6161 24.2012C66.6161 24.7081 66.6753 25.2151 66.7641 25.6922C66.7937 25.8413 66.8233 25.9606 66.853 26.0501C66.9122 26.229 66.9418 26.4079 67.001 26.5868C66.9714 26.6465 66.9418 26.7359 66.9122 26.7956C66.9122 26.8254 66.8826 26.8254 66.8826 26.8254C66.7937 26.3184 66.7049 25.7817 66.5864 25.2747C66.5864 25.2449 66.5864 25.2449 66.5864 25.2449"
          stroke="#A9A9AA" stroke-miterlimit="10" stroke-linecap="round"/>
    <path d="M66.6752 25.334C66.7937 25.8409 66.8825 26.3777 66.9713 26.8847C66.9713 26.9741 67.001 27.0338 67.001 27.1232C67.0602 27.5407 67.1194 27.9284 67.149 28.3459V28.3757C67.2379 29.33 67.2971 30.2843 67.2971 31.2386C67.2971 32.7594 67.1786 34.2803 66.9417 35.7415C66.764 36.8449 66.5271 37.9185 66.231 38.992C66.1422 39.2604 66.0829 39.5288 65.9941 39.7972C65.7572 40.5726 65.4907 41.3479 65.1945 42.0934C64.8984 42.8688 64.543 43.6441 64.1877 44.3598C63.8323 45.0457 63.4769 45.7018 63.0919 46.3578C62.6774 47.0139 62.2628 47.67 61.8186 48.2664C61.5816 48.5944 61.3447 48.9225 61.0782 49.2505C60.9894 49.3698 60.9005 49.4592 60.8413 49.5487"
          stroke="#A9A9AA" stroke-miterlimit="10" stroke-linecap="round"/>
    <path d="M66.6448 25.3048C66.6448 25.3346 66.6448 25.3346 66.6448 25.3346C66.6152 25.4241 66.6152 25.5136 66.5856 25.5732C66.5263 25.6627 66.4967 25.7223 66.4079 25.7819C66.3487 25.8416 66.2895 25.9012 66.2006 25.9012C66.1118 25.9609 66.023 25.9907 65.9046 25.9907C65.6973 25.9907 65.5493 25.9012 65.4308 25.7819C65.4012 25.8118 65.4012 25.7819 65.4012 25.7521C64.0985 24.44 63.0622 22.9489 62.2924 21.279C62.2627 21.2193 62.2331 21.1895 62.2035 21.1299C62.1443 21.0106 62.0851 20.8913 62.0259 20.7422"
          stroke="#A9A9AA" stroke-miterlimit="10" stroke-linecap="round"/>
    <path d="M61.6414 19.8771C61.6117 19.8771 61.6117 19.8771 61.6117 19.8771C61.0195 18.9825 60.2495 18.2369 59.3611 17.6703C58.2654 16.9546 56.9624 16.5371 55.5705 16.5073L55.5409 16.4775C53.7345 14.6882 51.78 13.0779 49.707 11.6465"
          stroke="#A9A9AA" stroke-miterlimit="10"/>
    <path d="M32.6779 53.127C31.5231 53.4848 30.4276 53.9023 29.3321 54.3794C29.2729 54.4093 29.2433 54.4093 29.1841 54.4391C28.355 54.8268 27.7925 55.6916 27.7925 56.6757C27.7925 57.6896 28.4143 58.5544 29.2729 58.9421C29.4209 59.0017 29.5986 59.0613 29.7466 59.0912C30.2204 59.2403 30.6941 59.3894 31.1678 59.5087"
          stroke="#A9A9AA" stroke-miterlimit="10"/>
    <path d="M61.2261 49.3701C61.6111 49.221 61.9664 49.0421 62.3514 48.8632C62.5587 48.7439 62.766 48.6544 62.9733 48.5351C63.536 48.2668 64.069 47.9685 64.5725 47.6405C65.2536 47.223 65.9051 46.8055 66.527 46.3582C67.2081 45.8811 67.8596 45.4039 68.4815 44.8672C68.4518 44.3006 68.4222 43.7638 68.363 43.227C68.3334 43.1077 68.3334 42.9884 68.3038 42.899C68.0373 40.4238 67.5634 38.0381 66.9119 35.7121C66.527 34.3105 66.0828 32.9685 65.5497 31.6564C65.1943 30.6723 64.7797 29.7479 64.3355 28.8234C63.8321 27.7499 63.2695 26.7359 62.6772 25.722C61.5222 23.724 60.2192 21.8155 58.7386 20.0262C58.5905 19.8175 58.4424 19.6385 58.2647 19.4596C57.4059 18.4159 56.4879 17.4318 55.5403 16.5073C53.7338 14.7181 51.7793 13.1077 49.6768 11.6465"
          stroke="#A9A9AA" stroke-miterlimit="10"/>
    <path d="M32.6779 53.127C31.5231 53.4848 30.4276 53.9023 29.3321 54.3794C29.2729 54.4093 29.2433 54.4093 29.1841 54.4391C28.355 54.8268 27.7925 55.6916 27.7925 56.6757C27.7925 57.6896 28.4143 58.5544 29.2729 58.9421C29.4209 59.0017 29.5986 59.0613 29.7466 59.0912C30.2204 59.2403 30.6941 59.3894 31.1678 59.5087"
          stroke="#A9A9AA" stroke-miterlimit="10"/>
    <path d="M31.5238 6.45726C31.0203 5.83101 27.4075 1 27.4075 1C27.5555 1.17893 27.2002 2.43141 27.1706 2.6998C27.0817 3.32604 26.9929 3.98211 26.904 4.60835C26.7264 5.89066 26.6079 7.17296 26.5783 8.45527C26.5191 10.9901 26.904 13.5248 27.4075 16C27.5555 16.6859 27.7036 17.3718 27.8813 18.0875C30.5465 28.7038 37.0319 37.829 45.768 43.8529"
          stroke="#A9A9AA" stroke-miterlimit="10"/>
    <path d="M36.2913 11.617C34.5441 9.2611 33.5076 7.02452 33.9518 2.07422C38.2162 6.81577 45.9158 9.32074 49.7063 11.6468C51.3351 12.6309 53.7634 14.6885 55.5698 16.5076C56.9617 16.5374 58.2647 16.9848 59.3604 17.6706C60.2488 18.2372 61.0188 18.9828 61.6406 19.8774"
          stroke="#A9A9AA" stroke-miterlimit="10"/>
    <path d="M62.1147 20.7422C62.174 20.8913 62.2332 21.0106 62.2924 21.1299C62.322 21.1895 62.3516 21.2193 62.3812 21.279C63.1806 22.9489 64.2169 24.44 65.4901 25.7521C65.4605 25.7819 65.4901 25.7819 65.5197 25.7819C65.6381 25.9311 65.8158 25.9907 65.9934 25.9907C66.1119 25.9907 66.2007 25.9609 66.2895 25.9012C66.3783 25.8714 66.4376 25.8416 66.4968 25.7819C66.5856 25.7223 66.6152 25.6328 66.6744 25.5732C66.704 25.4837 66.7633 25.3048 66.7633 25.2153"
          stroke="#A9A9AA" stroke-miterlimit="10" stroke-linecap="round"/>
    <path d="M47.6929 45.1348C47.7817 45.1944 47.8409 45.2242 47.9002 45.254C48.0186 45.3435 48.1075 45.4032 48.1963 45.433C48.6405 45.7312 49.1143 45.9698 49.5585 46.2381C50.4766 46.7451 51.3946 47.2222 52.3422 47.6397H52.3718C52.6384 47.7888 52.9345 47.9081 53.2306 48.0274H53.2602C55.0075 48.8028 56.8435 49.4588 58.7092 49.9658C58.9165 50.0254 59.1238 50.0851 59.3014 50.1447"
          stroke="#A9A9AA" stroke-miterlimit="10"/>
    <path d="M61.2261 49.3698C61.6111 49.2207 61.9664 49.0418 62.3514 48.8629C62.5587 48.7436 62.766 48.6541 62.9733 48.5348C63.5359 48.2664 64.069 47.9682 64.5724 47.6402C65.2535 47.2227 65.905 46.8052 66.5269 46.3579C67.208 45.8808 67.8595 45.4036 68.4814 44.8668C68.7183 44.6581 68.9553 44.4792 69.1625 44.2704C69.4291 44.0318 69.6956 43.7933 69.9621 43.4951C72.9827 40.5726 75.3814 36.9941 76.9213 32.9682C76.9213 32.9384 77.2471 32.1034 77.3655 31.6859C77.3655 31.6561 77.3655 31.6561 77.3655 31.6561C77.484 31.3281 77.5728 31.0299 77.6617 30.7018C77.6913 30.6422 77.7209 30.6124 77.7209 30.5527C77.7505 30.4633 77.7801 30.3738 77.8097 30.2843C77.869 30.1352 77.8986 29.9563 77.9578 29.8072C79.7643 28.4951 80.9488 26.348 80.9488 23.9324C80.9488 23.515 80.9192 23.0975 80.8304 22.68C80.8007 22.5607 80.8007 22.4712 80.8007 22.3519C80.8007 22.1134 80.86 21.8748 80.9488 21.6959C81.0673 21.4573 81.2153 21.2486 81.4226 21.0994C81.4522 21.0696 81.4818 21.0696 81.4818 21.0398C82.5183 20.3539 83.3475 19.3996 83.9102 18.2963C84.0286 18.0875 84.1175 17.8788 84.2063 17.6402C83.3475 17.4911 82.5183 17.4315 81.6299 17.4315C80.5638 17.4315 79.5273 17.5507 78.5205 17.7297C78.3132 17.7893 78.1059 17.8191 77.8986 17.8788C77.484 17.6104 77.0398 17.4016 76.5956 17.2525C76.4771 17.1929 76.3587 17.1332 76.2402 17.1034C75.5591 16.8947 74.8188 16.7754 74.0488 16.7754C73.4862 16.7754 72.9235 16.835 72.3904 16.9841C71.6501 17.1631 70.9394 17.4315 70.2879 17.8191C70.2583 17.8489 70.199 17.8788 70.1694 17.8788C70.1398 17.9086 70.1398 17.9086 70.1102 17.9086C70.1102 17.9086 70.1102 17.9086 70.0806 17.9086V17.9384C69.814 18.1173 69.5771 18.2963 69.3402 18.4752C69.1033 18.6839 68.896 18.8927 68.6591 19.1014C67.9188 19.8768 67.3561 20.8012 67.0304 21.8152C66.9711 21.9643 66.9119 22.1134 66.8823 22.2625L66.8527 22.2923C66.675 22.8887 66.5862 23.5448 66.5862 24.2008C66.5862 24.7078 66.6454 25.2148 66.7342 25.6919C66.7638 25.841 66.7935 25.9603 66.8231 26.0497C66.8823 26.2287 66.9119 26.4076 66.9711 26.5865C66.9415 26.6462 66.9119 26.7356 66.8823 26.7953C66.8823 26.8251 66.8527 26.8251 66.8527 26.8251"
          stroke="#A9A9AA" stroke-miterlimit="10" stroke-linecap="round"/>
    <path d="M83.8806 18.3857C83.318 19.4891 82.4888 20.4434 81.4523 21.1293C81.4227 21.1591 81.3931 21.1591 81.3931 21.1889C81.1858 21.338 81.0377 21.5468 80.9192 21.7853C80.8304 21.9941 80.7712 22.2028 80.7712 22.4414C80.7712 22.5607 80.8008 22.6502 80.8008 22.7694C80.8896 23.1869 80.9192 23.6044 80.9192 24.0219C80.9192 26.4374 79.7347 28.5845 77.9283 29.8967C77.8986 30.0458 77.8394 30.2247 77.7802 30.3738C77.721 30.2843 77.6617 30.1949 77.6025 30.1054C76.8326 28.9424 76.418 27.5408 76.418 26.0199C76.418 24.7675 76.7437 23.5746 77.2768 22.5309C77.6617 21.7853 78.1652 21.0995 78.7574 20.5329C79.024 20.2645 79.2905 20.0259 79.5866 19.8172C79.6459 19.7575 79.7051 19.7277 79.7643 19.6979C80.9489 18.8629 82.3703 18.3857 83.8806 18.3857Z"
          stroke="#A9A9AA" stroke-miterlimit="10"/>
    <path d="M84.1771 17.7295C84.0882 17.9681 83.9994 18.1768 83.8809 18.3856C83.3183 19.489 82.4891 20.4432 81.4526 21.1291C81.423 21.1589 81.3934 21.1589 81.3934 21.1888C81.2157 21.308 81.038 21.4273 80.8307 21.5466C80.7123 21.6063 80.6234 21.6659 80.5346 21.7255C80.0015 21.9939 79.4389 22.2027 78.817 22.3518C78.3135 22.4711 77.7805 22.5307 77.2475 22.5307H77.1586C75.2337 22.5307 73.4865 21.815 72.1539 20.5923C71.3247 19.8766 70.6732 18.982 70.2586 17.9681C70.229 17.9681 70.229 17.9681 70.229 17.9383C70.8805 17.5506 71.5912 17.2524 72.3316 17.1033C72.8646 16.9542 73.4273 16.8945 73.9899 16.8945C74.7599 16.8945 75.5002 17.0138 76.1814 17.2226C76.2998 17.2524 76.4183 17.312 76.5367 17.3717C77.0105 17.5208 77.4251 17.7295 77.8397 17.9979C78.047 17.9383 78.2543 17.9084 78.4616 17.8488C79.4685 17.6401 80.505 17.5506 81.5711 17.5506C82.4595 17.5208 83.3183 17.6102 84.1771 17.7295Z"
          stroke="#A9A9AA" stroke-miterlimit="10" stroke-linecap="round" stroke-linejoin="round"/>
    <path d="M62.8847 24.0511C62.8847 24.6177 62.8255 25.1545 62.707 25.6913C62.4997 26.5859 62.174 27.3911 61.7002 28.1366C61.5817 28.3453 61.4337 28.5541 61.256 28.7628C59.8937 30.5521 57.7319 31.6853 55.3332 31.6853C51.1577 31.6853 47.7817 28.2857 47.7817 24.0809C47.7817 22.1426 48.4925 20.3831 49.677 19.071C49.7066 18.9815 49.7659 18.9517 49.8251 18.8921L49.8547 18.8622C51.2169 17.401 53.1714 16.4766 55.3332 16.4766C55.3925 16.4766 55.4813 16.4766 55.5405 16.5064C55.5701 16.5064 55.5701 16.5064 55.5701 16.5064C56.962 16.5362 58.265 16.9835 59.3607 17.6694C60.2491 18.236 61.0191 18.9815 61.6113 19.8762C61.6113 19.8762 61.6113 19.906 61.641 19.906C61.8186 20.2042 61.9963 20.4726 62.1148 20.8006C62.2036 20.9199 62.2332 21.0392 62.2925 21.1585C62.3221 21.2181 62.3517 21.2778 62.3517 21.3076C62.6774 22.1127 62.8847 23.067 62.8847 24.0511Z"
          stroke="#A9A9AA" stroke-miterlimit="10"/>
    <path d="M63.1217 47.0438C63.1217 47.5507 63.0624 48.0577 62.9736 48.5348C62.7663 48.6541 62.559 48.7436 62.3517 48.8628C61.9667 49.0418 61.6114 49.2207 61.2264 49.3698C61.0783 49.4294 60.9599 49.4891 60.8118 49.5487C60.6341 49.6382 60.486 49.6978 60.3084 49.7575C60.1899 49.8171 60.0715 49.8469 59.953 49.9066C59.7161 49.996 59.4792 50.0855 59.2423 50.175C59.1534 50.2048 59.0646 50.2346 58.9461 50.2644H58.9165C57.9985 50.5925 57.0805 50.831 56.1328 51.0398C55.9255 51.0994 55.7478 51.1591 55.5406 51.1889C55.5109 51.1889 55.5109 51.1889 55.5109 51.1889C54.2376 51.4573 52.9938 51.6362 51.6612 51.6958C51.6315 51.6958 51.6315 51.6958 51.6315 51.6958C51.4835 51.7555 51.365 51.8151 51.217 51.9046C51.0689 51.994 50.9208 52.0835 50.8024 52.173C50.8024 52.2028 50.7727 52.2028 50.7727 52.2028C50.5655 52.3221 50.3582 52.4712 50.1805 52.6203C49.9732 52.4414 49.7955 52.2326 49.6178 52.0239V51.994H49.5882C49.529 51.9046 49.4994 51.8748 49.4401 51.7853C49.0848 51.3082 48.759 50.8012 48.5221 50.2644C48.3444 49.8469 48.1667 49.3996 48.0779 48.9225C47.9298 48.3559 47.8706 47.7595 47.8706 47.163C47.8706 46.5964 47.9298 46.0597 48.0483 45.5229C48.1075 45.2843 48.1667 45.0457 48.226 44.837H48.2556C48.3148 44.5984 48.4036 44.3897 48.4925 44.1809H48.5221C48.5517 44.0915 48.6109 44.002 48.6406 43.9125C48.759 43.6441 48.8775 43.4056 49.0255 43.1968V43.167C49.0552 43.1372 49.0552 43.1372 49.0848 43.1074C49.3217 42.7197 49.5586 42.3917 49.8547 42.0636C49.9732 41.9443 50.062 41.8549 50.1509 41.7356C50.6839 41.2286 51.2466 40.7813 51.8981 40.4235H51.9277C52.9938 39.8569 54.1783 39.5288 55.4517 39.499H55.4813C57.5247 39.499 59.3903 40.334 60.723 41.6461C60.7526 41.6461 60.7526 41.6461 60.7526 41.6461C62.026 42.8688 62.8255 44.509 63.0032 46.3579C63.092 46.5666 63.1217 46.8052 63.1217 47.0438Z"
          stroke="#A9A9AA" stroke-miterlimit="10"/>
    <path d="M64.6026 46.8952C64.6026 47.1636 64.573 47.4022 64.5434 47.6706C64.0103 47.9986 63.4773 48.2968 62.9443 48.5652C62.737 48.6845 62.5297 48.774 62.3224 48.8933C61.9374 49.0722 61.582 49.2511 61.197 49.4002C61.049 49.4599 60.9305 49.5195 60.7825 49.5791C60.6048 49.6686 60.4567 49.7282 60.279 49.7879C60.1606 49.8475 60.0421 49.8774 59.9237 49.937C59.6867 50.0265 59.4498 50.1159 59.2129 50.2054C59.1241 50.2352 59.0352 50.265 58.9168 50.2948H58.8872C57.9692 50.6229 57.0511 50.8614 56.1035 51.0702C55.8962 51.1298 55.7185 51.1895 55.5112 51.2193C55.4816 51.2193 55.4816 51.2193 55.4816 51.2193C54.2082 51.4877 52.9644 51.6666 51.6318 51.7263C51.6022 51.7263 51.6022 51.7263 51.6022 51.7263C51.4541 51.7859 51.3357 51.8455 51.1876 51.935C51.1284 51.8754 51.0692 51.8157 51.0395 51.7561C50.4177 50.9807 49.9438 50.1159 49.6773 49.1318C49.5885 48.8933 49.5292 48.6845 49.4996 48.4459C49.3812 47.9688 49.3516 47.4917 49.3516 47.0145C49.3516 46.776 49.3812 46.5374 49.3812 46.3286C49.4404 45.5533 49.6181 44.8078 49.9142 44.1219C49.9438 44.0622 49.9734 44.0026 50.0031 43.943C50.0031 43.9131 50.0031 43.9131 50.0031 43.9131C50.4769 42.8694 51.158 41.9449 52.0168 41.1994H52.0464C52.0464 41.1696 52.0464 41.1696 52.076 41.1696C53.0237 40.3644 54.1194 39.8277 55.3631 39.5593H55.3928C55.8962 39.44 56.37 39.4102 56.9031 39.4102C59.0649 39.4102 61.0194 40.3346 62.3816 41.7958C63.0923 42.5414 63.6254 43.436 63.9807 44.4201C64.4546 45.1358 64.6026 46.0006 64.6026 46.8952Z"
          stroke="#A9A9AA" stroke-miterlimit="10"/>
    <path d="M80.9195 23.9919C80.9195 26.4075 79.7349 28.5546 77.9285 29.8667C77.8397 29.9562 77.7212 30.0158 77.6324 30.0754C77.3066 30.2842 76.9809 30.4631 76.6551 30.6122C75.7667 30.9999 74.7894 31.2385 73.7826 31.2385C71.295 31.2385 69.1036 29.986 67.8302 28.0774C67.7118 27.8985 67.5933 27.7196 67.5045 27.5108C67.3564 27.2126 67.2083 26.9442 67.0899 26.646C67.0307 26.4969 66.9714 26.318 66.9122 26.1689C66.853 26.0496 66.8234 25.9303 66.8234 25.811C66.7345 25.3339 66.6753 24.8269 66.6753 24.32C66.6753 21.6957 68.0671 19.3399 70.1105 18.0576V18.0277C70.1401 17.9979 70.1697 17.9979 70.1697 17.9979C70.1993 17.9681 70.2586 17.9383 70.2882 17.9383C70.9397 17.5506 71.6504 17.2524 72.3907 17.1033C72.9238 16.9542 73.4864 16.8945 74.0491 16.8945C74.8191 16.8945 75.5594 17.0138 76.2405 17.2226C76.359 17.2524 76.4774 17.312 76.5959 17.3717C77.0401 17.5506 77.4547 17.7892 77.81 18.0277C78.1062 18.2365 78.3727 18.4452 78.6392 18.6838C79.0242 19.0416 79.35 19.4293 79.6461 19.8468C80.0607 20.4134 80.3864 21.0695 80.5937 21.7554C80.7122 22.1132 80.801 22.4412 80.8603 22.7991C80.8899 23.157 80.9195 23.5745 80.9195 23.9919Z"
          stroke="#A9A9AA" stroke-miterlimit="10" stroke-linecap="round"/>
    <path d="M46.3003 58.704C46.3003 59.0022 46.1227 59.2408 45.8563 59.36C45.7674 59.3899 45.7082 59.4197 45.649 59.4197H45.5898C45.205 59.4197 44.8794 59.0917 44.8794 58.704C44.8794 58.3163 45.205 57.9883 45.5898 57.9883C45.9747 57.9883 46.3003 58.3163 46.3003 58.704Z"
          stroke="#A9A9AA" stroke-miterlimit="10"/>
    <path d="M52.1345 41.0497C52.3307 41.0497 52.4897 40.8895 52.4897 40.6918C52.4897 40.4942 52.3307 40.334 52.1345 40.334C51.9383 40.334 51.7793 40.4942 51.7793 40.6918C51.7793 40.8895 51.9383 41.0497 52.1345 41.0497Z"
          stroke="#A9A9AA" stroke-miterlimit="10"/>
    <path d="M32.6779 56.6456C32.6779 58.0174 31.5823 59.0909 30.25 59.0909C30.0723 59.0909 29.8947 59.0909 29.7466 59.0313C29.5986 59.0015 29.4209 58.9418 29.2729 58.8822C28.3846 58.4945 27.7925 57.6297 27.7925 56.6158C27.7925 55.6317 28.355 54.7669 29.1841 54.3792C29.2433 54.3494 29.2729 54.3196 29.3321 54.3196C29.6282 54.2003 29.9243 54.1406 30.25 54.1406C31.612 54.1704 32.6779 55.2738 32.6779 56.6456Z"
          stroke="#A9A9AA" stroke-miterlimit="10"/>
    <path d="M36.7041 57.9884C36.7041 59.1514 35.7865 60.0759 34.632 60.0759C34.484 60.0759 34.336 60.0759 34.188 60.046C34.0696 60.0162 33.9216 59.9566 33.8031 59.9268C33.0631 59.5987 32.5303 58.8532 32.5303 57.9884C32.5303 57.1534 33.0039 56.4079 33.7143 56.0798C33.7439 56.05 33.8031 56.05 33.8327 56.0202C34.0696 55.9307 34.336 55.8711 34.632 55.8711C35.7865 55.8711 36.7041 56.8254 36.7041 57.9884Z"
          stroke="#A9A9AA" stroke-miterlimit="10"/>
    <path d="M39.9624 58.704C39.9624 59.5986 39.252 60.3441 38.3343 60.3441C38.2159 60.3441 38.0975 60.3441 38.0087 60.3143C37.9199 60.2845 37.8015 60.2547 37.7127 60.2249C37.1207 59.9863 36.7358 59.3899 36.7358 58.7338C36.7358 58.0777 37.1207 57.5111 37.6535 57.2427C37.6831 57.2129 37.7127 57.2129 37.7423 57.2129C37.9199 57.1235 38.1271 57.0936 38.3639 57.0936C39.2224 57.0638 39.9624 57.8093 39.9624 58.704Z"
          stroke="#A9A9AA" stroke-miterlimit="10"/>
    <path d="M42.5984 58.7033C42.5984 59.4488 42.0064 60.0452 41.2663 60.0452C41.1775 60.0452 41.0887 60.0452 40.9999 60.0154C40.9111 59.9856 40.8223 59.9558 40.7631 59.9259C40.2895 59.7172 39.9639 59.2401 39.9639 58.7033C39.9639 58.1665 40.2599 57.7192 40.7335 57.4806C40.7631 57.4508 40.7927 57.4508 40.7927 57.4508C40.9407 57.3912 41.1183 57.3613 41.2959 57.3613C42.0064 57.3613 42.5984 57.9577 42.5984 58.7033Z"
          stroke="#A9A9AA" stroke-miterlimit="10"/>
    <path d="M44.9081 58.6142C44.9081 59.2703 44.4048 59.7772 43.7536 59.7772C43.6648 59.7772 43.6056 59.7772 43.5168 59.7474C43.4576 59.7474 43.3688 59.7176 43.3096 59.6878C42.8951 59.5088 42.5991 59.0913 42.5991 58.6142C42.5991 58.1371 42.8655 57.7494 43.2504 57.5705C43.28 57.5705 43.28 57.5406 43.3096 57.5406C43.4576 57.481 43.576 57.4512 43.7536 57.4512C44.3752 57.4512 44.9081 57.9879 44.9081 58.6142Z"
          stroke="#A9A9AA" stroke-miterlimit="10"/>
    <path d="M46.6567 43.3462C49.2244 43.3462 51.306 41.2501 51.306 38.6643C51.306 36.0786 49.2244 33.9824 46.6567 33.9824C44.0889 33.9824 42.0073 36.0786 42.0073 38.6643C42.0073 41.2501 44.0889 43.3462 46.6567 43.3462Z"
          stroke="#A9A9AA" stroke-miterlimit="10"/>
    <path d="M58.9757 50.2048C58.0577 50.5328 57.1396 50.7714 56.192 50.9802C55.9847 51.0398 55.807 51.0994 55.5997 51.1293C55.5701 51.1293 55.5701 51.1293 55.5701 51.1293C54.2967 51.3976 53.0529 51.5766 51.7203 51.6362C51.6907 51.6362 51.6907 51.6362 51.6907 51.6362C51.5426 51.6959 51.4242 51.7555 51.2761 51.845C51.1281 51.9344 50.98 52.0239 50.8615 52.1134C50.8615 52.1432 50.8319 52.1432 50.8319 52.1432C50.6246 52.2625 50.4173 52.4116 50.2396 52.5607C50.1212 52.6501 50.062 52.7098 49.9731 52.7992L49.9435 52.8291C49.292 53.4553 48.7293 54.171 48.374 55.006V55.0358V55.0656C48.2555 55.1849 48.1371 55.2744 48.0482 55.3937C47.9298 55.513 47.8409 55.6024 47.7225 55.7217C47.6929 55.7515 47.6929 55.7515 47.6929 55.7515C47.5448 55.9305 47.4263 56.1094 47.3079 56.2585C47.2783 56.2883 47.2783 56.2883 47.2783 56.2883C47.1302 56.497 47.0118 56.7058 46.9229 56.9145C46.9229 56.9444 46.9229 56.9444 46.8933 56.9742C46.7452 57.2128 46.6564 57.4513 46.5379 57.7197C46.5083 57.7794 46.5083 57.8688 46.4787 57.9285C46.4491 57.9881 46.4195 58.0776 46.3899 58.1372C46.3603 58.2267 46.3306 58.2863 46.3306 58.346C46.301 58.3758 46.301 58.4056 46.301 58.4354C46.2418 58.5547 46.2418 58.6442 46.2122 58.7635C46.2122 58.8231 46.1826 58.8529 46.1826 58.8827C46.153 58.9126 46.153 58.9126 46.153 58.9126V58.9424C46.153 59.0318 46.1233 59.0915 46.1233 59.1511C46.0937 59.2108 46.0641 59.2704 46.0345 59.3301C45.9753 59.3897 45.9457 59.4493 45.8864 59.4792C45.8272 59.5388 45.768 59.5686 45.7087 59.5984V59.6283C45.6199 59.6581 45.5607 59.6879 45.5015 59.6879C44.9092 59.837 44.3169 59.9861 43.7246 60.1054C43.4285 60.165 43.1027 60.2247 42.8066 60.2545C42.6585 60.2843 42.5105 60.3141 42.3624 60.344C42.3328 60.1352 42.2736 59.9265 42.2439 59.7177C42.1551 59.2108 42.1255 58.7336 42.1255 58.2267V58.167C42.1551 55.7217 43.0435 53.4553 44.5538 51.7257V51.6959C44.613 51.6362 44.6427 51.6064 44.7019 51.5468C45.5015 50.6521 46.4491 49.9364 47.5152 49.3996C47.6929 49.2804 47.8705 49.1909 48.0482 49.1312C48.522 48.9225 48.9959 48.7734 49.4993 48.6541C50.0324 48.505 50.595 48.3857 51.1873 48.3559C51.4538 48.3261 51.7203 48.3261 51.9869 48.3261C52.3718 48.2963 52.7272 48.2963 53.0529 48.3261H53.0826C55.3924 48.4454 57.1989 49.1909 58.5315 50.2644C58.7684 50.0259 58.8572 50.1153 58.9757 50.2048Z"
          stroke="#A9A9AA" stroke-miterlimit="10"/>
    <path d="M61.2258 49.3692C61.0777 49.4289 60.9592 49.4885 60.8112 49.5482C60.6335 49.6376 60.4854 49.6973 60.3077 49.7569C60.1893 49.8166 60.0708 49.8464 59.9524 49.906C59.7155 49.9955 59.4786 50.085 59.2417 50.1744C59.1528 50.2042 59.064 50.2341 58.9455 50.2639H58.9159C57.9979 50.5919 57.0799 50.8305 56.1322 51.0392C55.9249 51.0989 55.7472 51.1585 55.5399 51.1883C55.5103 51.1883 55.5103 51.1883 55.5103 51.1883C54.2369 51.4567 52.9932 51.6356 51.6605 51.6953C51.6309 51.6953 51.6309 51.6953 51.6309 51.6953C51.4829 51.7549 51.3644 51.8146 51.2163 51.904C51.0683 51.9935 50.9202 52.083 50.8017 52.1724C50.8017 52.2023 50.7721 52.2022 50.7721 52.2022C50.5648 52.3215 50.3575 52.4706 50.1799 52.6197C50.0614 52.7092 50.0022 52.7688 49.9133 52.8583L49.8837 52.8881C49.2322 53.5144 48.6696 54.2301 48.3142 55.0651V55.0949V55.1247C48.1957 55.244 48.0773 55.3335 47.9884 55.4527C47.87 55.572 47.7811 55.6615 47.6627 55.7808C47.6331 55.8106 47.6331 55.8106 47.6331 55.8106C47.485 55.9895 47.3666 56.1685 47.2481 56.3176C47.2185 56.3474 47.2185 56.3474 47.2185 56.3474C47.0704 56.5561 46.952 56.7649 46.8631 56.9736C46.8631 57.0034 46.8631 57.0034 46.8335 57.0333C46.6854 57.2718 46.5966 57.5104 46.4781 57.7788C46.3893 57.2718 46.3301 56.7649 46.3301 56.2281C46.3301 54.6178 46.7447 53.1267 47.485 51.8146C47.5146 51.8146 47.5146 51.7848 47.5146 51.7848C47.5146 51.7848 47.5146 51.7549 47.5442 51.7549C47.7219 51.4269 47.9292 51.0989 48.1661 50.8007C48.2846 50.6217 48.4327 50.4726 48.5511 50.3235C48.9065 49.906 49.2914 49.5184 49.706 49.1903C50.1799 48.8026 50.6833 48.4746 51.2163 48.2062C51.5421 48.0273 51.8678 47.8782 52.2232 47.7887H52.2528C53.2005 47.4309 54.1777 47.252 55.2438 47.252C55.9841 47.252 56.6653 47.3414 57.3464 47.5203C58.5013 47.7887 59.5674 48.2957 60.4854 49.0114C60.6631 49.1307 60.8408 49.2798 60.9889 49.3991C61.1369 49.2798 61.1665 49.3096 61.2258 49.3692Z"
          stroke="#A9A9AA" stroke-miterlimit="10" stroke-linecap="round" stroke-linejoin="round"/>
    <path d="M58.3824 50.1455C58.5896 50.1455 58.7672 50.1753 58.9745 50.2051C58.0568 50.5332 57.1391 50.7718 56.1919 50.9805C56.7543 50.4735 57.4648 50.1753 58.264 50.1455C58.2936 50.1455 58.3528 50.1455 58.3824 50.1455Z"
          stroke="#A9A9AA" stroke-miterlimit="10"/>
    <path d="M60.7231 47.4617C60.7231 47.9388 60.6639 48.3861 60.575 48.8335C60.5158 49.1317 60.427 49.4299 60.3381 49.7281V49.7579C60.2197 49.8176 60.1012 49.8474 59.9828 49.907C59.7459 49.9965 59.509 50.0859 59.272 50.1754C59.1832 50.2052 59.0944 50.2351 58.9759 50.2649H58.9463C58.0283 50.5929 57.1102 50.8315 56.1626 51.0402C55.9553 51.0999 55.7776 51.1595 55.5703 51.1893C55.5407 51.1893 55.5407 51.1893 55.5407 51.1893C54.2673 51.4577 53.0236 51.6366 51.6909 51.6963C51.6613 51.6963 51.6613 51.6963 51.6613 51.6963C51.5133 51.7559 51.3948 51.8156 51.2467 51.905C51.0987 51.9945 50.9506 52.084 50.8321 52.1734C50.8321 52.2032 50.8025 52.2032 50.8025 52.2032C50.5952 52.3225 50.3879 52.4716 50.2102 52.6207C50.0918 52.7102 50.0326 52.7698 49.9437 52.8593H49.9141C49.5587 52.5611 49.233 52.2629 48.9369 51.905H48.9072C48.8776 51.8752 48.848 51.8454 48.8184 51.7857H48.7888V51.7559C48.5223 51.4279 48.315 51.0999 48.1077 50.742C47.8412 50.2649 47.6339 49.7281 47.5154 49.1913C47.397 48.6545 47.3081 48.1178 47.3081 47.581C47.3081 46.7758 47.4562 46.0601 47.7227 45.3444V45.3146C47.7523 45.1953 47.7819 45.1356 47.8115 45.0462V45.0164H47.8412C47.9596 44.7182 48.0781 44.4498 48.2261 44.2112H48.2557V44.1814C48.315 44.0621 48.3742 43.9726 48.4334 43.8832H48.463V43.7937H48.4927C48.6407 43.5253 48.8184 43.3166 49.0257 43.078V43.0482C49.0553 43.0184 49.0553 43.0184 49.0849 42.9885C49.8845 42.0641 50.921 41.408 52.1055 41.0502H52.1351C52.1351 41.0502 52.1351 41.0502 52.1648 41.0203C52.757 40.8414 53.3789 40.752 54.0304 40.752C55.2742 40.752 56.4291 41.1098 57.436 41.7062V41.736C57.436 41.736 57.436 41.736 57.4656 41.736C59.3017 42.8394 60.5454 44.8076 60.6343 47.1337V47.1635C60.7231 47.2828 60.7231 47.3722 60.7231 47.4617Z"
          stroke="#A9A9AA" stroke-miterlimit="10" stroke-linecap="round" stroke-linejoin="round"/>
    <path d="M62.3519 48.8628C61.9669 49.0417 61.6115 49.2206 61.2266 49.3697C61.0785 49.4294 60.96 49.489 60.812 49.5487C60.6343 49.6381 60.4862 49.6978 60.3085 49.7574C60.1901 49.8171 60.0716 49.8469 59.9532 49.9065C59.7163 49.996 59.4793 50.0855 59.2424 50.1749C59.1536 50.2047 59.0648 50.2346 58.9463 50.2644H58.9167C57.9987 50.5924 57.0806 50.831 56.133 51.0397C55.9257 51.0994 55.748 51.159 55.5407 51.1888C55.5111 51.1888 55.5111 51.1888 55.5111 51.1888C54.2377 51.4572 52.9939 51.6361 51.6613 51.6958C51.6317 51.6958 51.6317 51.6958 51.6317 51.6958C51.4836 51.7554 51.3652 51.8151 51.2171 51.9045C51.0691 51.994 50.921 52.0835 50.8025 52.1729C50.8025 52.2028 50.7729 52.2027 50.7729 52.2027C50.5656 52.322 50.3583 52.4711 50.1806 52.6202C50.0622 52.7097 50.003 52.7693 49.9141 52.8588L49.8845 52.8886C49.233 53.5149 48.6703 54.2306 48.315 55.0656V55.0954V55.1252C48.1965 55.2445 48.0781 55.334 47.9892 55.4532C47.8708 55.5725 47.7819 55.662 47.6635 55.7813C47.6339 55.8111 47.6339 55.8111 47.6339 55.8111C47.4858 55.99 47.3673 56.169 47.2489 56.3181C47.2193 56.3479 47.2193 56.3479 47.2193 56.3479C47.0712 56.5566 46.9527 56.7654 46.8639 56.9741C46.8639 57.0039 46.8639 57.0039 46.8343 57.0338C46.6862 57.2723 46.5974 57.5109 46.4789 57.7793C46.4493 57.8389 46.4493 57.9284 46.4197 57.988C46.3901 58.0477 46.3605 58.1371 46.3309 58.1968C46.3012 58.2862 46.2716 58.3459 46.2716 58.4055C46.242 58.4354 46.242 58.4652 46.242 58.495C46.1828 58.6143 46.1828 58.7037 46.1532 58.823C46.1532 58.8827 46.1236 58.9125 46.1236 58.9423C46.0939 58.9721 46.094 58.9721 46.094 58.9721V59.002C46.094 59.0914 46.0643 59.1511 46.0643 59.2107C46.0347 59.2703 46.0051 59.33 45.9755 59.3896C45.9163 59.4493 45.8867 59.5089 45.8274 59.5387C45.7682 59.5984 45.709 59.6282 45.6497 59.658V59.6878C45.5609 59.7177 45.5017 59.7475 45.4425 59.7475C44.8502 59.8966 44.2579 60.0457 43.6656 60.165C43.3695 60.2246 43.0437 60.2843 42.7476 60.3141C42.5995 60.3439 42.4515 60.3737 42.3034 60.4035C42.1257 60.4334 41.9776 60.4632 41.8 60.4632C41.6223 60.5228 41.415 60.5228 41.2373 60.5526C41.1188 60.5825 40.9708 60.5825 40.8523 60.5825C40.7043 60.6123 40.5858 60.6123 40.4377 60.6421C40.2601 60.6719 40.0824 60.6719 39.9047 60.6719C39.8751 60.7018 39.8158 60.7018 39.7862 60.7018C39.6974 60.7018 39.6086 60.7018 39.5197 60.7018C39.3124 60.7316 39.1347 60.7316 38.9274 60.7316C38.8978 60.7316 38.8386 60.7614 38.7794 60.7316C38.6609 60.7614 38.5425 60.7614 38.424 60.7614C38.2759 60.7912 38.0983 60.7912 37.9502 60.7912C37.8317 60.7912 37.7133 60.7912 37.6244 60.7614V60.7316C37.6244 60.7018 37.5948 60.7018 37.5948 60.6719C37.4468 59.8668 37.3579 59.002 37.3579 58.1371C37.3579 57.9284 37.3579 57.7495 37.3579 57.5705C37.3875 57.2723 37.3875 56.9443 37.4171 56.6461L37.4468 56.6163C37.6244 55.0059 38.039 53.4851 38.7201 52.0536V52.0238H38.7498C38.7498 52.0238 38.7498 52.0238 38.7498 51.994C39.6678 51.8151 40.4673 51.3678 41.0892 50.7415C41.0892 50.7713 41.1188 50.7713 41.1188 50.7713C42.8661 48.6839 44.9982 46.8648 47.3377 45.4632C47.0416 45.2843 46.7751 45.1352 46.5085 44.9264C47.012 44.7177 47.5154 44.5686 48.0188 44.4493H48.0485C48.1373 44.4194 48.1965 44.4194 48.2558 44.3896H48.2854C48.5815 44.3002 48.8776 44.2405 49.2034 44.2107C49.4107 44.1809 49.5884 44.1511 49.7957 44.1212C49.8253 44.0914 49.8549 44.0914 49.8549 44.0914C50.3287 44.0318 50.8025 44.002 51.2764 44.002C54.7708 44.002 57.9394 45.2843 60.3974 47.4314C60.7824 47.7594 61.1377 48.1173 61.4931 48.5049C61.9965 48.4453 62.1742 48.654 62.3519 48.8628Z"
          stroke="#A9A9AA" stroke-miterlimit="10" stroke-linecap="square" stroke-linejoin="round"/>
    <path d="M55.5977 51.129C54.3249 51.3974 53.0816 51.5763 51.7495 51.6359C52.5784 51.2483 53.496 51.0395 54.4729 51.0395C54.8281 51.0097 55.2129 51.0395 55.5977 51.129Z"
          stroke="#A9A9AA" stroke-miterlimit="10"/>
    <path d="M59.9827 49.8766C59.7457 49.9661 59.5088 50.0556 59.2719 50.145C59.1831 50.1748 59.0942 50.2047 58.9758 50.2345H58.9462C58.0282 50.5625 57.1101 50.8011 56.1625 51.0098C55.9552 51.0695 55.7775 51.1291 55.5702 51.1589C55.5406 51.1589 55.5406 51.1589 55.5406 51.1589C54.2672 51.4273 53.0234 51.6063 51.6908 51.6659C51.6612 51.6659 51.6612 51.6659 51.6612 51.6659C51.5131 51.7255 51.3947 51.7852 51.2466 51.8746C51.0985 51.9641 50.9505 52.0536 50.832 52.143C50.832 52.1729 50.8024 52.1729 50.8024 52.1729C50.5951 52.2921 50.3878 52.4412 50.2101 52.5904C50.0917 52.6798 50.0325 52.7395 49.9436 52.8289L49.914 52.8587C49.2625 53.485 48.6998 54.2007 48.3445 55.0357V55.0655V55.0953C48.226 55.2146 48.1076 55.3041 48.0187 55.4234C47.9003 55.5426 47.8114 55.6321 47.693 55.7514C47.6634 55.7812 47.6634 55.7812 47.6634 55.7812C47.5153 55.9601 47.3968 56.1391 47.2784 56.2882C47.2488 56.318 47.2488 56.318 47.2488 56.318C47.1007 56.5267 46.9822 56.7355 46.8934 56.9442C46.8934 56.974 46.8934 56.974 46.8638 57.0039C46.7157 57.2424 46.6269 57.481 46.5084 57.7494C46.4788 57.809 46.4788 57.8985 46.4492 57.9581C46.4196 58.0178 46.39 58.1072 46.3604 58.1669C46.3307 58.2564 46.3011 58.316 46.3011 58.3756C46.2715 58.4055 46.2715 58.4353 46.2715 58.4651C46.2123 58.5844 46.2123 58.6738 46.1827 58.7931C46.1827 58.8528 46.1531 58.8826 46.1531 58.9124C46.1234 58.9422 46.1234 58.9422 46.1234 58.9422V58.9721C46.1234 59.0615 46.0938 59.1212 46.0938 59.1808C46.0642 59.2405 46.0346 59.3001 46.005 59.3597C45.9458 59.4194 45.9161 59.479 45.8569 59.5088C45.7977 59.5685 45.7385 59.5983 45.6792 59.6281V59.6579C45.5904 59.6878 45.5312 59.7176 45.4719 59.7176C44.8797 59.8667 44.2874 60.0158 43.6951 60.1351C43.399 60.1947 43.0732 60.2544 42.7771 60.2842C42.629 60.314 42.481 60.3438 42.3329 60.3737C42.1552 60.4035 42.0071 60.4333 41.8295 60.4333C41.6518 60.4929 41.4445 60.4929 41.2668 60.5228C41.1483 60.5526 41.0003 60.5526 40.8818 60.5526C40.7337 60.5824 40.6153 60.5824 40.4672 60.6122C40.2895 60.642 40.1119 60.642 39.9342 60.642C39.9046 60.6719 39.8453 60.6719 39.8157 60.6719C39.7269 60.6719 39.638 60.6719 39.5492 60.6719C39.3419 60.7017 39.1642 60.7017 38.9569 60.7017C38.9273 60.7017 38.8681 60.7315 38.8089 60.7017C38.6904 60.7315 38.5719 60.7315 38.4535 60.7315C38.3054 60.7613 38.1277 60.7613 37.9797 60.7613C37.8612 60.7613 37.7428 60.7613 37.6539 60.7315C37.1209 60.7315 36.5878 60.7017 36.0548 60.6719C34.2483 60.5526 32.5308 60.2842 30.8428 59.8369V59.807C30.8428 59.5983 30.8724 59.4194 30.8724 59.2404C30.9612 57.8389 31.2278 56.4969 31.672 55.2146C31.8793 54.6182 32.1162 54.0218 32.3827 53.4552C34.426 52.7693 36.5582 52.322 38.7496 52.0238V51.9939H38.7792C38.7792 51.9939 38.7792 51.9939 38.7792 51.9641C39.6973 51.7852 40.4968 51.3379 41.1187 50.7116C41.1187 50.7414 41.1483 50.7414 41.1483 50.7414C42.8956 48.654 45.0277 46.8349 47.3672 45.4333C47.0711 45.2544 46.8046 45.1053 46.538 44.8965C46.1531 44.6579 45.7977 44.4194 45.4423 44.151C45.9754 44.0913 46.4788 44.0615 47.0119 44.0615C47.4561 44.0615 47.841 44.0913 48.2556 44.1212H48.4333C48.6998 44.151 48.9664 44.1808 49.2329 44.2405C49.3513 44.2405 49.4698 44.2703 49.5883 44.3001C49.6771 44.3001 49.7363 44.3299 49.8252 44.3299C52.5792 44.8071 55.0964 45.9701 57.1694 47.6699C58.3835 48.0575 59.2423 48.9224 59.9827 49.8766Z"
          stroke="#A9A9AA" stroke-miterlimit="10" stroke-linecap="square" stroke-linejoin="round"/>
    <path d="M55.3034 58.6745C54.948 58.913 54.5334 59.1218 54.0892 59.2709C53.7634 59.3902 53.4081 59.4796 53.0231 59.5691C52.9935 59.5691 52.9639 59.5989 52.9046 59.5691C52.9046 59.5691 52.9046 59.5691 52.875 59.5691C52.6381 59.5989 52.4308 59.6287 52.1939 59.6287H52.1643C52.0458 59.6586 51.9274 59.6287 51.8386 59.6586C51.7793 59.6586 51.7201 59.6586 51.6609 59.6287C51.6016 59.5393 51.6016 59.4498 51.572 59.3305C51.4832 59.2709 51.424 59.1814 51.3647 59.092C51.3055 59.0025 51.2463 58.913 51.2167 58.7937C51.3351 58.7937 51.424 58.7937 51.5424 58.7937H51.6313C52.0755 58.7937 52.4901 58.7341 52.9046 58.6446C53.1712 58.585 53.4377 58.5254 53.6746 58.4359C53.6746 58.4061 53.6746 58.3763 53.6746 58.3464C53.3785 58.3464 53.1119 58.257 52.875 58.078C52.8158 58.0184 52.727 57.9289 52.6677 57.8395C52.6085 57.7798 52.5789 57.75 52.5493 57.6605C52.7862 57.6009 53.0527 57.5413 53.2896 57.422C53.645 57.3027 54.03 57.1238 54.3557 56.9448C54.4149 56.8554 54.4446 56.7957 54.4742 56.7063C54.3557 56.587 54.2373 56.4379 54.0596 56.3484C53.9707 56.2888 53.8523 56.259 53.7042 56.2291C53.7042 56.1397 53.7338 56.0502 53.7338 55.9607C53.7338 55.9011 53.7338 55.8116 53.7338 55.752C53.7042 55.4538 53.5858 55.1854 53.4081 54.9468C53.1119 54.5293 52.6085 54.2609 52.0458 54.2908C51.6313 54.2908 51.2463 54.4399 50.9501 54.7083C50.8909 54.7679 50.8317 54.8275 50.7725 54.917C50.8021 54.8275 50.8909 54.7381 50.9501 54.6486C50.9205 54.6188 50.9205 54.589 50.9205 54.5592C50.9205 54.4697 50.9205 54.3802 50.9501 54.3206C51.0686 53.2768 51.9274 52.4717 52.9935 52.4717C53.9707 52.4717 54.7703 53.1277 54.9776 54.0224C55.0368 53.9627 55.0664 53.9627 55.0961 53.9329C55.4218 54.4399 55.8068 54.917 56.251 55.3643C56.3991 55.5134 56.5471 55.6625 56.7544 55.8116C56.8137 55.8713 56.8729 55.9309 56.9321 55.9607C57.1098 56.1098 57.3171 56.259 57.4948 56.3782C57.4948 56.4081 57.4948 56.4081 57.4652 56.4081C56.9913 57.3623 56.2214 58.1377 55.3034 58.6745Z"
          stroke="#A9A9AA" stroke-miterlimit="10"/>
    <path d="M52.8161 61.5964C52.6384 61.5964 52.4607 61.5964 52.2831 61.5666C52.1646 61.5666 52.0461 61.5368 51.9277 61.5069C51.8685 61.5069 51.8388 61.5069 51.7796 61.5069C51.7204 61.5069 51.6612 61.5069 51.6019 61.4771C51.0393 61.328 50.6543 60.8211 50.6543 60.2246C50.6543 60.1352 50.6543 60.0755 50.6839 59.9861C51.2466 60.1948 51.8388 60.3439 52.4607 60.4036C52.0758 60.2843 51.7796 60.0159 51.6316 59.658C51.5723 59.5686 51.5723 59.4791 51.5427 59.3598C51.4539 59.3002 51.3946 59.2107 51.3354 59.1213C51.2762 59.0318 51.217 58.9423 51.1873 58.823C51.3058 58.823 51.3946 58.823 51.5131 58.823H51.6019C52.0461 58.823 52.4607 58.7634 52.8753 58.6739C53.1418 58.6143 53.4084 58.5547 53.6453 58.4652C53.6453 58.4354 53.6453 58.4055 53.6453 58.3757C53.3491 58.3757 53.0826 58.2863 52.8457 58.1073C52.7865 58.0477 52.6976 57.9582 52.6384 57.8688C52.5792 57.8091 52.5496 57.7793 52.52 57.6898C52.7569 57.6302 53.0234 57.5706 53.2603 57.4513C53.6157 57.332 54.0006 57.1531 54.3264 56.9741C54.3856 56.8847 54.4152 56.825 54.4449 56.7356C54.3264 56.6163 54.2079 56.4672 54.0303 56.3777C53.9414 56.3181 53.823 56.2883 53.6749 56.2584C53.6749 56.169 53.7045 56.0795 53.7045 55.99C53.7045 55.9304 53.7045 55.8409 53.7045 55.7813C53.6749 55.4831 53.5564 55.2147 53.3788 54.9761C53.0826 54.5586 52.5792 54.2902 52.0165 54.3201C51.6019 54.3201 51.217 54.4692 50.9208 54.7376C50.8616 54.7972 50.8024 54.8568 50.7431 54.9463C50.7728 54.8568 50.8616 54.7674 50.9208 54.6779C50.8912 54.6481 50.8912 54.6183 50.8912 54.5885C50.8912 54.499 50.8912 54.4095 50.9208 54.3499C51.0393 53.3061 51.8981 52.501 52.9642 52.501C53.9414 52.501 54.741 53.157 54.9483 54.0517C55.0075 53.992 55.0371 53.992 55.0667 53.9622C55.3925 54.4692 55.7775 54.9463 56.2217 55.3936C56.3697 55.5427 56.5178 55.6918 56.7251 55.8409C56.7843 55.9006 56.8436 55.9602 56.9028 55.99C57.0805 56.1391 57.2878 56.2883 57.4654 56.4075C57.4654 56.4374 57.4655 56.4374 57.4358 56.4374C57.9097 56.6759 58.265 57.1531 58.3539 57.6898C58.3539 57.7793 58.3835 57.8688 58.3835 57.9582C58.3835 58.3161 58.2946 58.6441 58.117 58.8827C58.0577 58.9722 57.9985 59.0616 57.9097 59.1511C56.7547 60.672 54.9187 61.5964 52.8161 61.5964Z"
          stroke="#A9A9AA" stroke-miterlimit="10"/>
    <path d="M56.3398 59.569C55.4218 60.1058 54.3557 60.4338 53.2008 60.4338C53.1712 60.4338 53.1416 60.4338 53.1119 60.4338H53.0527C52.875 60.4338 52.6677 60.4338 52.4901 60.4338C52.1051 60.3145 51.8089 60.0462 51.6609 59.6883C51.6016 59.5988 51.6016 59.5094 51.572 59.3901C51.4832 59.3305 51.424 59.241 51.3647 59.1515C51.3055 59.0621 51.2463 58.9726 51.2167 58.8533C51.3351 58.8533 51.424 58.8533 51.5424 58.8533H51.6313C52.0755 58.8533 52.4901 58.7937 52.9046 58.7042C53.1712 58.6446 53.4377 58.5849 53.6746 58.4955C53.6746 58.4656 53.6746 58.4358 53.6746 58.406C53.3785 58.406 53.1119 58.3165 52.875 58.1376C52.8158 58.078 52.727 57.9885 52.6677 57.899C52.6085 57.8394 52.5789 57.8096 52.5493 57.7201C52.7862 57.6605 53.0527 57.6008 53.2896 57.4815C53.645 57.3623 54.03 57.1833 54.3557 57.0044C54.4149 56.9149 54.4446 56.8553 54.4742 56.7658C54.3557 56.6466 54.2373 56.4975 54.0596 56.408C53.9707 56.3483 53.8523 56.3185 53.7042 56.2887C53.7042 56.1992 53.7338 56.1098 53.7338 56.0203C53.7338 55.9607 53.7338 55.8712 53.7338 55.8116C53.7042 55.5134 53.5858 55.245 53.4081 55.0064C53.1119 54.5889 52.6085 54.3205 52.0458 54.3503C51.6313 54.3503 51.2463 54.4994 50.9501 54.7678C50.8909 54.8275 50.8317 54.8871 50.7725 54.9766C50.8021 54.8871 50.8909 54.7977 50.9501 54.7082C50.9205 54.6784 50.9205 54.6485 50.9205 54.6187C50.9205 54.5293 50.9205 54.4398 50.9501 54.3802C51.0686 53.3364 51.9274 52.5312 52.9935 52.5312C53.9707 52.5312 54.7703 53.1873 54.9776 54.0819C55.0368 54.0223 55.0664 54.0223 55.0961 53.9925C55.4218 54.4994 55.8068 54.9766 56.251 55.4239C56.3991 55.573 56.5471 55.7221 56.7544 55.8712C56.8137 55.9309 56.8729 55.9905 56.9321 56.0203C57.1098 56.1694 57.3171 56.3185 57.4948 56.4378C57.4948 56.4676 57.4948 56.4676 57.4652 56.4676C57.939 56.7062 58.2943 57.1833 58.3832 57.7201C57.8797 58.4656 57.1394 59.0919 56.3398 59.569Z"
          stroke="#A9A9AA" stroke-miterlimit="10"/>
    <path d="M56.7837 59.6286C56.6357 59.6286 56.4877 59.5987 56.3396 59.5391C55.8956 59.4198 55.5108 59.0918 55.3036 58.6445C55.1852 58.4059 55.126 58.1972 55.126 57.9288C55.126 57.8691 55.126 57.7797 55.1556 57.72C55.2444 56.885 55.9252 56.2588 56.7837 56.2588C57.0501 56.2588 57.2869 56.3184 57.5237 56.4377C57.9973 56.6763 58.3526 57.1236 58.4414 57.6902C58.4414 57.7797 58.471 57.8691 58.471 57.9586C58.471 58.3164 58.3822 58.6445 58.175 58.883C58.1158 58.9725 58.0269 59.062 57.9677 59.1514C57.6421 59.4496 57.2573 59.6286 56.7837 59.6286Z"
          stroke="#A9A9AA" stroke-miterlimit="10"/>
    <path d="M55.1556 57.7505C55.0075 57.8399 54.8595 57.9294 54.6818 58.0189C54.5929 58.0785 54.5337 58.1083 54.4449 58.1381C54.2968 58.2276 54.1487 58.3171 53.9414 58.3767C53.9118 58.3767 53.9118 58.3767 53.9118 58.3767C53.8822 58.4065 53.8526 58.4065 53.823 58.4065C53.7638 58.4363 53.7045 58.4363 53.6453 58.4662C53.6453 58.4363 53.6453 58.4065 53.6453 58.3767C53.3492 58.3767 53.0826 58.2872 52.8457 58.1083C52.7865 58.0487 52.6977 57.9592 52.6384 57.8697C52.5792 57.8101 52.5496 57.7803 52.52 57.6908C52.7569 57.6312 53.0234 57.5715 53.2603 57.4523C53.6157 57.333 54.0007 57.154 54.3264 56.9751C54.3857 56.8857 54.4153 56.826 54.4449 56.7365C54.3264 56.6173 54.208 56.4682 54.0303 56.3787C53.9414 56.319 53.823 56.2892 53.6749 56.2594C53.6749 56.1699 53.7045 56.0805 53.7045 55.991C53.7045 55.9314 53.7045 55.8419 53.7045 55.7823C53.6749 55.4841 53.5565 55.2157 53.3788 54.9771C53.0826 54.5596 52.5792 54.2912 52.0166 54.321C51.602 54.321 51.217 54.4701 50.9208 54.7385C50.8616 54.7982 50.8024 54.8578 50.7432 54.9473C50.7728 54.8578 50.8616 54.7684 50.9208 54.6789C50.8912 54.6491 50.8912 54.6192 50.8912 54.5894C50.8912 54.5 50.8912 54.4105 50.9208 54.3509C51.0393 53.3071 51.8981 52.502 52.9642 52.502C53.9414 52.502 54.741 53.158 54.9483 54.0526C55.0075 53.993 55.0372 53.993 55.0668 53.9632C55.3925 54.4701 55.7775 54.9473 56.2217 55.3946C56.3698 55.5437 56.5178 55.6928 56.7251 55.8419C56.7844 55.9016 56.8436 55.9612 56.9028 55.991C56.8436 56.0805 56.7844 56.1699 56.7251 56.2594C56.3402 56.8558 55.7775 57.3628 55.1556 57.7505Z"
          stroke="#A9A9AA" stroke-miterlimit="10"/>
    <path d="M56.3096 55.4239C56.0135 55.7519 55.7174 56.08 55.3917 56.3483C55.2141 56.4676 55.0364 56.5869 54.8884 56.7062C54.7699 56.7658 54.7107 56.8255 54.5923 56.8851C54.5331 56.9448 54.4739 56.9746 54.4146 57.0044C54.4739 56.9149 54.5035 56.8553 54.5331 56.7658C54.4146 56.6466 54.2962 56.4975 54.1186 56.408C54.0297 56.3483 53.9113 56.3185 53.7633 56.2887C53.7633 56.1992 53.7929 56.1098 53.7929 56.0203C53.7929 55.9607 53.7929 55.8712 53.7929 55.8116C53.7633 55.5134 53.6448 55.245 53.4672 55.0064C53.1711 54.5889 52.6677 54.3205 52.1052 54.3503C51.6907 54.3503 51.3058 54.4994 51.0097 54.7678C50.9505 54.8275 50.8912 54.8871 50.832 54.9766C50.8616 54.8871 50.9505 54.7977 51.0097 54.7082C50.9801 54.6784 50.9801 54.6485 50.9801 54.6187C50.9801 54.5293 50.9801 54.4398 51.0097 54.3802C51.1281 53.3364 51.9868 52.5312 53.0527 52.5312C54.0297 52.5312 54.8292 53.1873 55.0364 54.0819C55.0956 54.0223 55.1252 54.0223 55.1548 53.9925C55.4805 54.5293 55.8654 55.0064 56.3096 55.4239Z"
          stroke="#A9A9AA" stroke-miterlimit="10"/>
    <path d="M52.8161 61.5964C52.6384 61.5964 52.4607 61.5964 52.2831 61.5666C52.1646 61.5666 52.0461 61.5368 51.9277 61.5069C51.8685 61.5069 51.8388 61.5069 51.7796 61.5069C51.7204 61.5069 51.6612 61.5069 51.6019 61.4771C51.0393 61.328 50.6543 60.8211 50.6543 60.2246C50.6543 60.1352 50.6543 60.0755 50.6839 59.9861C51.2466 60.1948 51.8388 60.3439 52.4607 60.4036C52.0758 60.2843 51.7796 60.0159 51.6316 59.658C51.5723 59.5686 51.5723 59.4791 51.5427 59.3598C51.4539 59.3002 51.3946 59.2107 51.3354 59.1213C51.2762 59.0318 51.217 58.9423 51.1873 58.823C51.3058 58.823 51.3946 58.823 51.5131 58.823H51.6019C52.0461 58.823 52.4607 58.7634 52.8753 58.6739C53.1418 58.6143 53.4084 58.5547 53.6453 58.4652C53.6453 58.4354 53.6453 58.4055 53.6453 58.3757C53.3491 58.3757 53.0826 58.2863 52.8457 58.1073C52.7865 58.0477 52.6976 57.9582 52.6384 57.8688C52.5792 57.8091 52.5496 57.7793 52.52 57.6898C52.7569 57.6302 53.0234 57.5706 53.2603 57.4513C53.6157 57.332 54.0006 57.1531 54.3264 56.9741C54.3856 56.8847 54.4152 56.825 54.4449 56.7356C54.3264 56.6163 54.2079 56.4672 54.0303 56.3777C53.9414 56.3181 53.823 56.2883 53.6749 56.2584C53.6749 56.169 53.7045 56.0795 53.7045 55.99C53.7045 55.9304 53.7045 55.8409 53.7045 55.7813C53.6749 55.4831 53.5564 55.2147 53.3788 54.9761C53.0826 54.5586 52.5792 54.2902 52.0165 54.3201C51.6019 54.3201 51.217 54.4692 50.9208 54.7376C50.8616 54.7972 50.8024 54.8568 50.7431 54.9463C50.7728 54.8568 50.8616 54.7674 50.9208 54.6779C50.8912 54.6481 50.8912 54.6183 50.8912 54.5885C50.8912 54.499 50.8912 54.4095 50.9208 54.3499C51.0393 53.3061 51.8981 52.501 52.9642 52.501C53.9414 52.501 54.741 53.157 54.9483 54.0517C55.0075 53.992 55.0371 53.992 55.0667 53.9622C55.3925 54.4692 55.7775 54.9463 56.2217 55.3936C56.3697 55.5427 56.5178 55.6918 56.7251 55.8409C56.7843 55.9006 56.8436 55.9602 56.9028 55.99C57.0805 56.1391 57.2878 56.2883 57.4654 56.4075C57.4654 56.4374 57.4655 56.4374 57.4358 56.4374C57.9097 56.6759 58.265 57.1531 58.3539 57.6898C58.3539 57.7793 58.3835 57.8688 58.3835 57.9582C58.3835 58.3161 58.2946 58.6441 58.117 58.8827C58.0577 58.9722 57.9985 59.0616 57.9097 59.1511C56.7547 60.672 54.9187 61.5964 52.8161 61.5964Z"
          stroke="#A9A9AA" stroke-miterlimit="10"/>
    <path d="M53.6742 58.4054C53.3782 58.4054 53.1117 58.316 52.8749 58.137C52.7861 58.0774 52.7269 57.9879 52.6677 57.9283C52.6085 57.8687 52.5789 57.809 52.5493 57.7494C52.7861 57.6897 53.0525 57.6301 53.2894 57.5406C53.6742 57.4213 54.0294 57.2424 54.355 57.0337C54.4142 56.9442 54.4438 56.8846 54.4734 56.7951C54.355 56.646 54.2366 56.5267 54.059 56.4372C53.9702 56.3776 53.8222 56.3478 53.7038 56.318C53.7038 56.2285 53.7334 56.139 53.7334 56.0496C53.7334 55.9899 53.7334 55.9005 53.7038 55.8408C53.9998 55.8408 54.2366 55.9601 54.4438 56.139C54.503 56.1689 54.5326 56.2285 54.5918 56.2583C54.7102 56.3776 54.799 56.5565 54.8582 56.7056C54.9175 56.8249 54.9471 56.974 54.9471 57.0933C54.9471 57.3319 54.8879 57.5704 54.7398 57.7494C54.651 57.8985 54.5622 58.0178 54.4438 58.1072C54.2958 58.1967 54.1182 58.2563 53.9406 58.3458C53.9406 58.3458 53.9406 58.3458 53.911 58.3458C53.8814 58.3458 53.8518 58.3458 53.8222 58.3458C53.763 58.4054 53.7334 58.4054 53.6742 58.4054Z"
          stroke="#A9A9AA" stroke-miterlimit="10"/>
    <path d="M56.813 55.8709C56.5762 56.1989 56.221 56.4077 55.8066 56.4077C55.6882 56.4077 55.5401 56.3779 55.4217 56.3481C55.1553 56.2586 54.9185 56.0797 54.7705 55.8411C54.6225 55.6323 54.5337 55.3938 54.5337 55.1254C54.5337 54.6781 54.7409 54.3202 55.0665 54.0817C55.1257 54.022 55.1553 54.022 55.1849 53.9922C55.5105 54.4991 55.8954 54.9763 56.3394 55.4236C56.4578 55.5727 56.6354 55.7218 56.813 55.8709Z"
          stroke="#A9A9AA" stroke-miterlimit="10"/>
    <path d="M52.0748 54.3806C51.6603 54.3806 51.2459 54.5297 50.9795 54.7981C50.9795 54.7981 50.9795 54.7683 50.9795 54.7384C50.9795 54.7086 50.9795 54.6788 50.9795 54.649C50.9795 54.5595 50.9795 54.47 51.0091 54.4104C51.1275 53.814 51.6307 53.3965 52.2524 53.3965C52.7852 53.3965 53.2292 53.7245 53.4068 54.1718C53.466 54.3209 53.4956 54.47 53.4956 54.649C53.4956 54.7981 53.466 54.9472 53.4068 55.0665C53.1108 54.649 52.6372 54.3806 52.0748 54.3806Z"
          stroke="#A9A9AA" stroke-miterlimit="10"/>
    <path d="M53.4374 58.8526C53.2302 58.8526 53.0525 58.7631 52.9045 58.7035C53.171 58.6438 53.4374 58.5842 53.6742 58.4947C53.6742 58.4649 53.6742 58.4351 53.6742 58.4053C53.3782 58.4053 53.1117 58.3158 52.8749 58.1369C52.7861 58.0772 52.7269 57.9878 52.6677 57.9281C52.6085 57.8685 52.5789 57.8088 52.5493 57.7492C52.7861 57.6896 53.0525 57.6299 53.2894 57.5404C53.6742 57.4212 54.0294 57.2422 54.355 57.0335C54.4142 56.944 54.4438 56.8844 54.4734 56.7949C54.503 56.8247 54.5326 56.8844 54.5622 56.9142C54.7102 57.123 54.7694 57.3913 54.7398 57.6597C54.7398 57.7194 54.7398 57.7492 54.7102 57.8088C54.7102 57.8983 54.6806 57.9579 54.651 58.0474C54.5326 58.3754 54.2662 58.614 53.9702 58.7631C53.8518 58.8228 53.7038 58.8526 53.5558 58.8526C53.5262 58.8526 53.4966 58.8526 53.4374 58.8526Z"
          stroke="#A9A9AA" stroke-miterlimit="10"/>
    <path d="M54.0879 56.4378C53.9991 56.3782 53.851 56.3483 53.7326 56.3185C53.7326 56.2291 53.7622 56.1396 53.7622 56.0501C53.7622 55.9905 53.7622 55.901 53.7326 55.8414C53.703 55.5432 53.5846 55.2748 53.4366 55.0362C53.1406 54.6187 52.6374 54.3503 52.1045 54.3503C51.6901 54.3503 51.2757 54.4994 51.0093 54.7678C51.0093 54.7678 51.0093 54.738 51.0093 54.7082C51.0093 54.6784 51.0093 54.6485 51.0093 54.6187C51.0093 54.5293 51.0093 54.4398 51.0389 54.3802C51.1573 53.3364 52.0157 52.5312 53.0814 52.5312C54.0583 52.5312 54.8575 53.1873 55.0943 54.0819C55.1535 54.2609 55.1831 54.4398 55.1831 54.6187C55.1831 55.066 55.0351 55.4835 54.7983 55.8116C54.7687 55.8712 54.7391 55.901 54.6799 55.9308C54.6503 55.9905 54.5911 56.0501 54.5319 56.1098C54.3543 56.2589 54.2359 56.3782 54.0879 56.4378Z"
          stroke="#A9A9AA" stroke-miterlimit="10"/>
    <path d="M54.5026 56.7656C54.3842 56.6165 54.2658 56.4972 54.0882 56.4078C53.9994 56.3481 53.8514 56.3183 53.733 56.2885C53.733 56.199 53.7626 56.1096 53.7626 56.0201C53.7626 55.9604 53.7626 55.871 53.733 55.8113C53.7034 55.5131 53.585 55.2447 53.437 55.0062C53.141 54.5887 52.6377 54.3203 52.1049 54.3203C51.6905 54.3203 51.2761 54.4694 51.0096 54.7378C50.9208 54.7974 50.8616 54.8571 50.832 54.9465C50.8616 54.8571 50.9208 54.7676 51.0096 54.6781C51.3649 54.2308 51.9569 53.9326 52.5785 53.9326C52.8745 53.9326 53.1706 53.9923 53.4074 54.1115C54.1178 54.4098 54.5915 55.1255 54.6211 55.9306C54.6211 55.9604 54.6211 55.9903 54.6211 56.0201C54.6211 56.1096 54.6211 56.1692 54.5914 56.2288C54.6211 56.4376 54.5914 56.6165 54.5026 56.7656Z"
          stroke="#A9A9AA" stroke-miterlimit="10"/>
    <path d="M53.6742 58.4058C53.3782 58.4058 53.1117 58.3164 52.8749 58.1374C52.7861 58.0778 52.7269 57.9883 52.6677 57.9287C52.6085 57.869 52.5789 57.8094 52.5493 57.7498C52.7861 57.6901 53.0525 57.6305 53.2894 57.541C53.3782 57.6305 53.467 57.7796 53.5262 57.8989C53.5854 58.0182 53.615 58.1374 53.615 58.2567C53.6742 58.2567 53.6742 58.3164 53.6742 58.4058Z"
          stroke="#A9A9AA" stroke-miterlimit="10"/>
    <path d="M53.8215 58.3765C53.8215 58.4064 53.8215 58.4064 53.8215 58.3765C53.9103 58.4958 53.9695 58.6151 54.0287 58.7344C54.0879 58.8835 54.1175 59.0326 54.1175 59.1817C54.1175 59.2115 54.1175 59.2414 54.1175 59.2712C54.0879 59.808 53.7327 60.2553 53.2295 60.4044C53.1999 60.4044 53.1703 60.4342 53.1407 60.4342H53.0815C52.9927 60.4342 52.9335 60.464 52.8447 60.464C52.7262 60.464 52.6078 60.464 52.4894 60.4044C52.1046 60.2851 51.8086 60.0167 51.6606 59.6589C51.6014 59.5694 51.5718 59.4501 51.5718 59.3606C51.5718 59.301 51.5718 59.2414 51.5718 59.1817C51.5718 59.1221 51.5718 59.0624 51.5718 59.0326C51.5718 58.9432 51.6014 58.8835 51.631 58.8239C52.075 58.8239 52.4894 58.7642 52.9039 58.6748C53.1703 58.6151 53.4367 58.5555 53.6735 58.466C53.6735 58.4362 53.6735 58.4064 53.6735 58.3765C53.3775 58.3765 53.1111 58.2871 52.8743 58.1082C52.7854 58.0485 52.7262 57.9591 52.667 57.8994"
          stroke="#A9A9AA" stroke-miterlimit="10"/>
    <path d="M51.3646 59.0915C51.4238 59.0617 51.5126 59.0318 51.5718 59.002C51.6902 58.9722 51.8086 58.9424 51.927 58.9424C52.371 58.9424 52.7558 59.1809 52.963 59.509L52.9926 59.5388C53.1111 59.7476 53.1999 59.9861 53.1999 60.2247C53.1999 60.2843 53.1999 60.3142 53.1999 60.3738C53.1999 60.3738 53.1999 60.3738 53.1999 60.4036C53.1111 61.0299 52.5782 61.507 51.927 61.507C51.8678 61.507 51.8382 61.507 51.779 61.507C51.7198 61.507 51.6606 61.507 51.6014 61.4772C51.0389 61.3281 50.6245 60.8211 50.6245 60.2247C50.6245 60.1352 50.6245 60.0756 50.6541 59.9861C51.2165 60.2247 51.8086 60.344 52.4302 60.4036C52.0454 60.2843 51.7494 60.0159 51.6014 59.6581C51.5422 59.5686 51.5126 59.4493 51.5126 59.3599"
          stroke="#A9A9AA" stroke-miterlimit="10"/>
    <path d="M55.8369 54.8867C55.8369 54.8867 59.0938 52.1133 61.0776 49.2207" stroke="#A9A9AA" stroke-miterlimit="10"/>
    <path d="M54.7705 53.3067C54.7705 53.3067 58.5907 52.5015 60.3379 49.6387" stroke="#A9A9AA" stroke-miterlimit="10"/>
    <path d="M62.9438 48.5352C62.2627 51.8751 59.094 54.4397 55.5996 54.6187" stroke="#A9A9AA" stroke-miterlimit="10"/>
    <path d="M64.5432 47.5508C64.1879 51.4275 60.96 54.4394 57.0509 54.4394C56.5771 54.4394 55.8368 54.4096 55.3926 54.35"
          stroke="#A9A9AA" stroke-miterlimit="10"/>
    <path d="M60.3078 49.7275C59.538 51.8747 57.4358 53.5446 55.1855 54.0218" stroke="#A9A9AA" stroke-miterlimit="10"/>
</svg>
