<?xml version="1.0" encoding="utf-8"?>
<!-- Generator: Adobe Illustrator 24.3.0, SVG Export Plug-In . SVG Version: 6.00 Build 0)  -->
<svg version="1.1" id="Layer_1" xmlns="http://www.w3.org/2000/svg" xmlns:xlink="http://www.w3.org/1999/xlink" x="0px"
     y="0px"
     viewBox="0 0 37.4 39.7" style="enable-background:new 0 0 37.4 39.7;" xml:space="preserve">
<style type="text/css">
	.st0{clip-path:url(#SVGID_2_);}
</style>
    <g>
	<defs>
		<rect id="SVGID_1_" y="0" width="51.6" height="43"/>
	</defs>
        <clipPath id="SVGID_2_">
		<use xlink:href="#SVGID_1_" style="overflow:visible;"/>
	</clipPath>
        <g class="st0">
		<path d="M15.3,26.6L30.4,0h-3.5L11.8,26.6H15.3z"/>
            <path d="M32.9,29c-2.8,4.6-7.8,7.7-13.6,7.7c-8.7,0-15.9-7.1-15.9-16c0-8.9,7.1-16,15.9-16c0.7,0,1.4,0.1,2.1,0.1L23,2.1
			c-1.2-0.2-2.5-0.4-3.7-0.4c-10.5,0-19,8.5-19,19c0,10.5,8.5,19,19,19c7.5,0,14-4.4,17.1-10.8L32.9,29z"/>
            <path d="M33.1,14.8l-1.7,3.1h3v5.6H23.2l3.7-6.4l7.9-14L33.1,0L18,26.6h16.3h3.1v-8.6v-3v-0.1H33.1z"/>
	</g>
</g>
</svg>
